<mxfile host="app.diagrams.net" agent="Mozilla/5.0 (X11; Linux x86_64) AppleWebKit/537.36 (KHTML, like Gecko) Chrome/141.0.0.0 Safari/537.36" version="28.2.5">
  <diagram id="elastic-stack-diagram" name="Elastic Stack Architecture">
    <mxGraphModel dx="1489" dy="770" grid="1" gridSize="10" guides="1" tooltips="1" connect="1" arrows="1" fold="1" page="1" pageScale="1" pageWidth="850" pageHeight="1100" math="0" shadow="0">
      <root>
        <mxCell id="0" />
        <mxCell id="1" parent="0" />
        <mxCell id="tXwXjZz_xk4zs_cxmN8Q-17" value="" style="endArrow=none;html=1;rounded=0;strokeColor=#B2B2B2;strokeWidth=2;exitX=1;exitY=0.5;exitDx=0;exitDy=0;dashed=1;" parent="1" source="IH_eHasgbrQrR9ba0ONM-49" target="tXwXjZz_xk4zs_cxmN8Q-15" edge="1">
          <mxGeometry width="50" height="50" relative="1" as="geometry">
            <mxPoint x="140" y="280" as="sourcePoint" />
            <mxPoint x="324" y="584.5" as="targetPoint" />
            <Array as="points">
              <mxPoint x="166" y="662" />
            </Array>
          </mxGeometry>
        </mxCell>
        <mxCell id="IH_eHasgbrQrR9ba0ONM-9" value="" style="rounded=0;whiteSpace=wrap;html=1;strokeColor=#B2B2B2;shadow=1;shadowOffsetY=0;shadowOffsetX=-3;shadowBlur=1;shadowOpacity=25;" parent="1" vertex="1">
          <mxGeometry x="392" y="330" width="260" height="50" as="geometry" />
        </mxCell>
        <mxCell id="IH_eHasgbrQrR9ba0ONM-14" value="" style="sketch=0;pointerEvents=1;shadow=0;dashed=1;html=1;strokeColor=none;fillColor=#3C508F;labelPosition=center;verticalLabelPosition=bottom;verticalAlign=top;outlineConnect=0;align=center;shape=mxgraph.office.concepts.connector;" parent="1" vertex="1">
          <mxGeometry x="341" y="339" width="16.5" height="12" as="geometry" />
        </mxCell>
        <mxCell id="IH_eHasgbrQrR9ba0ONM-16" value="" style="html=1;labelBackgroundColor=#ffffff;jettySize=auto;orthogonalLoop=1;fontSize=14;rounded=0;jumpStyle=gap;edgeStyle=orthogonalEdgeStyle;startArrow=none;endArrow=none;strokeWidth=2;endFill=0;entryX=0;entryY=0.5;entryDx=0;entryDy=0;strokeColor=#3C508F;" parent="1" edge="1">
          <mxGeometry width="48" height="48" relative="1" as="geometry">
            <mxPoint x="357.5" y="345" as="sourcePoint" />
            <mxPoint x="392" y="345" as="targetPoint" />
          </mxGeometry>
        </mxCell>
        <mxCell id="IH_eHasgbrQrR9ba0ONM-17" value="" style="rounded=0;whiteSpace=wrap;html=1;strokeColor=#B2B2B2;shadow=1;shadowOffsetY=0;shadowOffsetX=-3;shadowBlur=1;shadowOpacity=25;" parent="1" vertex="1">
          <mxGeometry x="392" y="391" width="260" height="50" as="geometry" />
        </mxCell>
        <mxCell id="IH_eHasgbrQrR9ba0ONM-28" value="" style="sketch=0;pointerEvents=1;shadow=0;dashed=1;html=1;strokeColor=none;fillColor=#3C508F;labelPosition=center;verticalLabelPosition=bottom;verticalAlign=top;outlineConnect=0;align=center;shape=mxgraph.office.concepts.connector;" parent="1" vertex="1">
          <mxGeometry x="341" y="410" width="16.5" height="12" as="geometry" />
        </mxCell>
        <mxCell id="IH_eHasgbrQrR9ba0ONM-30" value="" style="html=1;labelBackgroundColor=#ffffff;jettySize=auto;orthogonalLoop=1;fontSize=6;rounded=0;jumpStyle=gap;edgeStyle=orthogonalEdgeStyle;startArrow=none;endArrow=none;strokeWidth=2;endFill=0;strokeColor=#3C508F;entryX=0;entryY=0.5;entryDx=0;entryDy=0;jumpSize=6;" parent="1" source="IH_eHasgbrQrR9ba0ONM-28" target="IH_eHasgbrQrR9ba0ONM-17" edge="1">
          <mxGeometry width="48" height="48" relative="1" as="geometry">
            <mxPoint x="312.1599999999999" y="450" as="sourcePoint" />
            <mxPoint x="482" y="468.845" as="targetPoint" />
            <Array as="points">
              <mxPoint x="392" y="416" />
            </Array>
          </mxGeometry>
        </mxCell>
        <mxCell id="IH_eHasgbrQrR9ba0ONM-54" value="Application" style="text;html=1;align=center;verticalAlign=middle;whiteSpace=wrap;rounded=0;fontStyle=1;fontColor=#3C508F;" parent="1" vertex="1">
          <mxGeometry x="125.66" y="156.64" width="81.67" height="30" as="geometry" />
        </mxCell>
        <mxCell id="IH_eHasgbrQrR9ba0ONM-49" value="" style="shape=hexagon;perimeter=hexagonPerimeter2;whiteSpace=wrap;html=1;fixedSize=1;rotation=90;shadow=1;strokeColor=#6c8ebf;shadowOpacity=100;shadowBlur=0;shadowOffsetX=3;shadowOffsetY=4;shadowColor=#000066;container=0;aspect=fixed;fillColor=#dae8fc;size=10;" parent="1" vertex="1">
          <mxGeometry x="140.34" y="186.64" width="52.31" height="48.72" as="geometry" />
        </mxCell>
        <mxCell id="-0OWEeviORjlElJpiEF7-10" value="" style="whiteSpace=wrap;html=1;dashed=1;rounded=1;strokeColor=#FF9933;fillColor=none;arcSize=6;strokeWidth=2;" parent="1" vertex="1">
          <mxGeometry x="100" y="156.64" width="630" height="104.36" as="geometry" />
        </mxCell>
        <mxCell id="IH_eHasgbrQrR9ba0ONM-57" value="" style="shape=image;verticalLabelPosition=bottom;labelBackgroundColor=default;verticalAlign=top;aspect=fixed;imageAspect=0;image=data:image/png,iVBORw0KGgoAAAANSUhEUgAAAuYAAABACAYAAABWQ7KJAAAAAXNSR0IArs4c6QAAAARjSUNQAQ0AAZxpOzIAACAASURBVHic7L13cFzXef/9uffu3b4oi94IEAQINlAsYhNlkhJFSaRkydKryC12nPYmcYk9Tpw4yUxm8ksmydiZeGInjuLIfm0nzi+yJdmymmmKamyi2AmCAAt6XwC72F5uOe8fi10CBEiCTSTt/cxwuFjcvTi37D3f85zv8xxJCCHIkSNHjhw5cuTIkSPHLUW+1Q3IkSNHjhw5cuTIkSNHTpjnyJEjR44cOXLkyHFbkBPmOXLkyJEjR44cOXLcBuSEeY4cOXLkyJEjR44ctwE5YZ4jR44cOXLkyJEjx21ATpjnyJEjR44cOXLkyHEbkBPmOXLkyJEjR44cOXLcBuSEeY4cOXLkyJEjR44ctwGWW92A242p6y1JknQLW5IjR44cOX4VyfQzuT4mR44cF5OLmF+EEIJ4PE4qlSK3KGqOHDly5LjR6PE4ejR6q5uRI0eO25CcML+IeDzOz372M5599lmGh4dz4jxHjhw5ctxQtGiUoXfeutXNuKWYpiClG8QSGvGEhmGY5LrbHDlyVpYZaJpGR0cHr732Gm+88Qa///u/z9q1a8nPz8diseSmHnPkyJEjxzUjhADTINB6inmPfPhWN+cDRQiBaQoSmkmvL8qeFh+9IzGsFpkVDQWsXVSM12NFtci5vjbHB4JpmiQSCRRFwWq1IoRgaGgIRVEoKSlBkiRSqRSSJGG1Wj+Q+zInzC+BaZr09fXxta99jbVr17Jt2zY2btyIw+HIPTBy5LjBGLq4vWenJFAUKffdz3H9CEG4qwuha7e6JR8oQgiicZ0eX5RTXRO094aIJg0AUrrJgdNjdA1Huau+kIU1HorzbahKTqDnuLEIIUgmk1gsFiwWC6FQiG9/+9vU19ezfft2AoEAX/rSl1i4cCFf/vKXsVqt/O///i8FBQV85CMfweFwZIW6qqo35f7MCfMrEIlEePfddwkEAjQ0NFBXV3erm5Qjx68cZ09F2bfLf6ubcUnmLXCw9fFiFOVWtyTHnYwQguTEBCPvvo2ret6tbs4HghACwxT0+WIcO++nYzDCeCiJedE43DBhYCyOP5yitWeCu+oLWVpXQL5bRc6JcyB9LmfGL8Tk76a8JUHmjElSLqAwlXA4zI9+9CMKCgp4/PHH2bdvH9/61rcoKSkhFotx/PhxXnvtNU6fPs2KFStob2/nO9/5DqtWreKee+7B7Xbz4x//mKqqKh599FGUm9Ap5IT5HNB1nYmJCeLx+K1uSo4cv5IMdCd49bnRW92MS7J2Uz5bHy++1c3IcQcjhMBIJhnZv49QVycLPvnpW92km4oQAlMIwnGdE+cCvNc+xkREw7hYkV9EPGnQMxJj2J/gbH+IDzWXUFvuQVUkQOLXQWNmLD+maWKY6deGbpJIaMRiKeIJnURKR9dMDMNENwwM3cQ0DYRIz+5ZVQW7XcXttpHncWK1KSiyhGKRsSgKiiIjy7/6oj19Lk2EEMiyjN/v53/+53/o7u7m1KlT+Hw+fD4fo6Oj/Pmf/zmxWCxraf7yl79MNBolEolw4sQJXnjhBY4dO8arr77KU089xY4dO5AkCcMwUBQFWb4xaZs5YT5Hbutp9hy3FZl7xTAMJElClnPTsVdi0nZ722Kat7oFOe5khBBo0QjDe96l/7VXqHn4ERxlpekIqGmCEEiK8ivznDBNk0hcp2s4yv7WUbpHoled2JnUTNr7wvT6Yqxp8tJcX0hZoR3rr4j/PH0+0ifFNAWaZpDSDOJxjWg0RTSWJBpNEYuliMU1EpMJsqYpJiPnIvva0CfFuZEW6qZhYmR/Tv+vqjIOu4rLZcOTZ6ewwInX66aw0I3HY8fpsKKqll9JsX7o0CEOHTrEunXrCIfDDA0N0d/fz9e//nUgfb8CjI2NZT9jmiYjIyPZn4eGhvirv/ordF3HMAy6u7tpb29ncHCQw4cP89RTT9HU1HRD2psT5jluOpnpN8M0Ccc1YnGNlG5gmiaKImO3KuQ5bThsll+JaTdN0+jq6qKnp4fGxkZqa2vv+GPKkSPHtSGEIDk+Tu8rLzGyfx+lGzZSft/9CAHxoUGSwSCOkhLsRXf+jIwQgkTKpHMozImOAJ1DEcIxnesJa8WSBntbRjk3EGFpXT7N8wsoLbAjy3fuM1UIgW6YWeEdDMbxB2LEEzrRaJJIJEEqZaBrBslkWpRrmoEpBMLMBH/S/Wqmf704eJj5ObstgomJBKYZxDTT/a/VqmCzWbBZFcrK8plfV0pJSR5VVV5cLvsdK9KnngshBC0tLfzd3/0dJSUl5OXlMTAwAKT76gySJF0yAJv5XTKZzL537Ngx/uAP/oChoSESiQQrVqygqakJIcR1n7OcMM9xUxFCEI5rtPf6OdsXYCQQIRRNkEjq6LqBRQG7VaHQbWdhjZfVi6ooLnAi38ECPRaL8Ytf/IKOjg4+9alPUVtbe6ublCNHjg+YTDQ8NtDP+f/+IRPtbVQ+8CDVD23HiMcZ3L0LM5XCu/wu1Ly8W93c60bTDYb8cY6dC3CqO0g4ps3wkV8rhoDB8ThjwSTnB8KsavSyuDYft92CJN3+CzVlBJ9pCuIJjcBEHP94FH8gRiiUIBJNTIr0JIl4imRST9tXDPMSvvJrRQIUJElGlgWplEk8nkLTNLp7/Lz/fic2u0JVlZemhRU0LayiorIQpyNTjeTOsBIJIfD7/aRSKdxuN6ZpEovFaG1tnSbAVVWloKCApqYmqqurOXnyJO3t7dkIuqqqbNy4kXnz5tHS0kJXVxehUAjTNBkfH+fAgQMAlJaWIssyExMTjI+PU1paitvtvub7MifMc9xUkprB2yf6eOdEPzZVZnwiSjiWxDQm/XCmmfZ/mSYHWno42zvKxx+8i9JC961u+hXJTCfC9AQbwzCIRqO35SJVGb/dbA+MG+WPy5EjBwjDYOJMG+d/+ANiA33M/9gnKN2wkeDp0wzu/iWeBY1Ubt2Go7T0jrWxCAGmEISiKU50BDjeEcA3kUQ3bs5zL6WbdA1HGfYnaOsNsqapiPnlbhy22/f8ZSwnExNxfKMRRnxhgqE4gUCUSCRBJJxI13HX0zaVuaIoEopy4ZktBFmry+xcOD/p/kogSTKKYsFqtWGaJpqmk0gkaG0d5PixHpxOlebl81ixvI5ly2rxeO6MKHoymeRb3/oWr776KitWrGBsbCwb7RZCoCgKjY2NPProo+zYsYNFixahqip79uzhq1/9KmfPnsVut/PQQw/x93//91RUVDAxMcHBgwfZuXMnv/zlLxkaGsr275FIhB/84Ac8++yztLS08LWvfY3HHnvs10mYZ2662/vGyJFmIpLkyFkfNSVuPrKxgfP9Af5n1ykimp4V5JlpNS2uceh0H4vrSti6pgHLbVwCQwhBOBymv78fl8tFdXX1TcnOvtHous7AwADRaJSxsTEqKysxDIPq6mrc7tt/MJQjxx2BEEQH+jn/w+8T6elm4e/9IWX33MPowYN0v/ATyu7dxLzHHkd1Om91S68Z0xREEzpn+kK81zbGkD+Ops9NWEqAVZWxqTKKLCMQaLpJUjPnJOrjKYO2nhADYzGW1RWwZlERJfl2LEpaF9wOwlGIdMQ7HE7S0xdgeCREIBAj4I8SCsWJxZLo+rUlrzgcKls2zSelRcloIovFytiYTsupIVKpuSTsTI9+K4qCoijYbFY8Hg/JZJJIJMa7755h//6zLF5UyZbNS1m+vA6PxzEp7q+p+TcdWZZxu92cP3+eo0ePAmQtJuXl5XzsYx/j4x//OMuWLcNms2Xvlx07dmC1Wvnrv/5rFi9ezFe+8hWamppQFIWCggLmzZvH9u3bOXDgAN/73vfYuXMnoVCIWCzGj3/8YwCsViulpaXXdQ/eNGEuhEDXdaLRKA6HA6vVClzfFyYdoTTRTA2LbEGWrn+UnIkg6rqOqqrXta+L95lIJLDZbCjXGQ3JjMo0I4Wmp7BabFiUdFtvhwfQ5UimDIKROJVeB06bhTyXiiKDEGb2PE39F4klGBkPYxgCy22qc4UQaJrGD37wA3p7e9mxYweVlZV3hDBPP3ht6LrO6OgoFosFl8t1q5uVI8evFEIIRg+9T7Ctjdonn6Ji02YSY2N0Pf8c9qJiqrdvx+Jw3OpmXjOabtIzEuXoOT+t3RPEU1cWmIos4XZYKC2wU+ixUl3ioLLIgcehYpgwHkrQ64sxOpFkLJhgLJQiqRmXtHEIIBjV2d86xsnOCe5fWUZTTR6FHivKLewXMxHycCTJ4GCQzu5xJiZiBPwR/P4oyaR+3X+jsNBJR+dRvvTFz2dnQNev38BvfurLkzOf155Jny5YAA6HHYfDjtebTygUoa19mNNtA6xcUcfWrctpbKjA7bbfNlYiIQTRaJSJiQkMw6CsrIz8/HyCwSAANpuNFStW8PnPf57HH38cl8s1I6fNarXy8MMPs2rVKhRFoaioKDuTnCnkkJeXx4MPPsjy5cv5/ve/z3e/+126urqyOs3j8eB0Ounv78dqtVJUVITFcnVS+4YL88z0vs/n48iRIxw+fJhFixaxYcOGrHi52ouY2WcsFaZ3/By94x2UuqtZWNGM0+a+5in4zIVsbW2ls7OTBQsWUFFRcV32A9M0CQQCtLa2cuzYMZYuXcqKFSvwer3X2E6BYeqMBodoGzjOcKCfeSULWFS1Aq+7GEm6vcWgSTrb/Pi5ESbCMSbCcULRRFqIG0ZaoGftLAZCkrL+rtuZTMa2pmm3nV3lckiShM1mA6C8vByv14uqqjdsUJojR460jSXuG8FaUEDx3WuQLBai/X3EhwbJa1iIxX5nLlSXqUne2j3BG8dGGJtIzMlHXuBSWTQvj8bqPKqLHXicKspFloiiPBuN1XmkNJPxUJLOoQjtvSF6RqKkLhNZFkA4rrPz0BB9o1HuX1FOaeEHP+jJ9APxuMbIaITu7nGGhoP4fCHCoTiJhHbDvOLeQgc93QNZ0SlJEh5PAbJkR9cT173/qddFURQKC/Nxu5xEYzFOnOyns9PH3XfXs2XLUmrnlWCx3HorkWmavPfee/znf/4nkUiEQCDA+Pg4ABaLhW3btvEnf/InrFu3LtsHTrWjZpAkibKysuzPl9qmoqKCP/qjP6Kqqop//ud/5uTJkwDE43H+4i/+AkVRWLJkCV/96lfxer1XdSw3VJhnslaPHz/Oiy++yIkTJ5iYmOCdd95h7969PPHEE2zYsAG73X5VF9EQBoMTXRzseoP2weOEoiEswkFD6TI2L91BbckCLLJlzvvMRGoHBwd58cUXeeeddxgfH6ewsJDm5mZ6enquSRzqus7Zs2d54YUXeO+99wgEAhQUFLBmzRqeeOIJlixZclUrRQkhiCejnOo9xOGOPaT0JOUF1Rw69zbt/cdZv3ArC6uWoyo3Z/WpG4FdVagrzyMcSxKNayiyxIKqAgzDpHc4QDSWtrRgmtlIw40SulPrlwKXHBRO/XtXcx5vpiDPzCBAelpuLoO6qcd7uTKNeZOJZgUFBdko/9WO6HPkyHEZFAW7twi1oADV5Zo0XgqErhPt6yUVCuEoKbnFjbw2/KEke0+N4gtcWQBKEtSWurhvRRnzylw4rBeeSRc/myQJJCRsqkKF10FpgY2m6jxOdgZ46/gI2hUsLsFokl/sP4dNSvHElhtTtm6uiMl/wYkYZztGGR4KMzgUYGw0QiKRuoHJmyDLEl6vnReefz/7niRJVFfXkkzJ12yPuRSZZEnVqpKv5uF0OolGo7z19mnOnR/myY+sY/Xqeiy3eIpbkiTy8/M5deoUbW1twIU+Oi8vj4qKCk6cOMGpU6euWS85nU4aGxtZsWIFLpeLgoICnn76acrKyvjjP/5jzp07RzQaZefOnSiKQm1t7TX1rdfdG2cOPJVKMT4+zmuvvcZzzz1HIBDIbhMKhThw4ACHDx/m0Ucf5eMf/ziVlZXZUcvFJylbB1oYxFIh2oYP8+75lxkLDaNrJrpuEk3FOHD2LdoHT7C1+cOsbdhEnsOLIl+4Oabud2pt6VAoxHvvvcczzzzD4OBgdptoNEp/f/9VH7+u6wQCAfbu3cszzzyD339hBUOfz8err77KoUOH+NSnPsXWrVspLCzMXqzZjj3tt0sxFh7m7ZZX6BhuY0HFEh5c8SSFrhJ6Rs/xZstLPLfvP7hr/jruXfQwXk8JqnLBLjTbCO9mkqnJGk1oTISTRJNaWmQj2L6u/kLpJjP9CNMMg++/fIRwJD4pJtNecxkp/VofwxRJQALZhiTngXz5Ad1UC1EgEGB0dJT+/n5CoRD5+fksWLCAmpoanE5ndgpL0zTGxsYYGBhg+fLlWcvV1H36fD7Gx8cpLi6muLiYeDxOb28vqVQKwzAYGRmhvb0dt9s9Y2XYTDZ4OBwmGAySSqWw2WwUFxeTn58/bbAghMh+j3p7e+no6ABg3rx5zJ8/n+Li4ml+uKnHm8kG7+3tZXx8HI/HQ1NTE1VVVXg8nqxIlyQpe+/lxPivL5nvqyFAN01SuiCuGaRMEyHAapFxWhRsFhlVkZC4/DNETO5UAIYp0E2BOZkYCCBLEoqUtjNY5NvHB3yzkGWZwqXL8B18j+jQIO7aOlzVNVi9RUy0nKDvtZdZ8PHfRLnoeXMn4I+kGPJfebE9iyKxqMbD9rVVFOfb5ny9M9YIWVYoLVTYsqKMwjwrO98fYiJ6obzd1D49GotztmuAwESIinzlAxXmmaopfn+U4y39DA+HGRqcIBCIzrq9oshYLJcPtFwIUjEjWGW1WnA4JA4dOjRlnwr19QsQQsJms1x2H5IEFotyxXKTUwNlk6X2J2dcrVitKg6Hg95eH9/819f4wue3s+KuOmy2W2OxzfSFTU1NrF27ltOnT0/7vd/v57vf/e51tysT8Fq9ejX/+I//yN13343D4eD+++/nr//6r/mzP/uzbFJoZWUl999/P1arFcMwpllirsR198y6rtPX18fhw4f5xS9+QWtrK4Yxu79J0zReeuklTp06xYMPPsg999xDXV0dVqt1utgQBqFEgN6JM5waOkDHaAuJZGLKqFNCltM+qEDEz6tHf8z54dOsnL+ehRXLKXAWYVEuHFrmogUCAU6ePMlbb73F/v37s9NA14ppmgwPD3P06FF27tzJkSNHSKVSs27r8/n4l3/5F/bt28eDDz7IqlWrKC8vnyaOhBCktARDgT7ODrVwdqCFPGcBj979CRZV34XD6kKSoL6siZK8P+BE13ucHWrh5UP/RUPFMhZVr6DIU4aqqOimRkpLosgKVtWOdNOTZQV9oxF2H+3lZOco4WgCwzQwDYGYTO7M2FWMydfpqiXpyixpYW4iJBkwMaL70c1zk08DK5J9CYrrHiTFw6UyTnRd58yZMxw5coTe3l6sViv5+fkAdHR0sGvXLlavXs39999PZWUlkiQRDAZ58cUX6e3tZfHixTOEuWma7Nu3j127dvHII4/w0EMP4ff72bNnD7FYDF3XOXXqFP39/ZSVlU0rjWiaJmfPnqWjo4OBgQF0XSeZTBIOh6moqOChhx5i6dKl2ah1PB7nwIEDHDhwgFQqRXFxuq7xmTNnAFizZg333nsvBQUFSJJEKpXi7Nmz2b9vtVpxOp0kk0nOnj3L7t27aW5uZvv27dTU1PxKC6EcV4dumgyGk/RMJDg/HsMX1RiLaURT6ZrTLqtCqVNlXr6dpWVu6gsduG2X7i5MU+CLphgOJ+kJJvBFUkQ0g9RkMqCqSORZFeYV2FngdVKdZ8Ou3t42vOslr6GRik2bCbS0UNC0GJu3iOqHd9D5f/+b/ldeoeyee8lvXHirm3nVGIa4YoKmJEFjlYf7V5ZTlDd3UT4bFkXmrvpCTEPw5vERxkPpCLSuGwTDEXxjAYZ8fjQt7d1OpK7fwz1XMqJ3eCTIiZYBensDjI2GicVm1wEWi0zTQi+x2OgldRKAQEJCQVUdgJ1xf4JQKIFpCtwuG+HQOOFweMp+LUiSgWoZo6xUm7kPyc7YWIJQKI7X66KiXCYcDlw2ki+QkCUVq9VFMmVhbCyWPS5JkrDbbVRWljE25ueb33qN33hqA5s3LaWw8IPPWYpEIuzcuZPBwcFpiwJN5UZaZA8ePMhv//Zv8+Uvf5lPfvKT5Ofnc//99/Pkk0/yve99j3g8jq7rvPPOO/h8PhoaGli/fv2cCyxclzAXQrB7925ef/11Tp8+PS1KfilM0+T8+fMMDw/z3nvvsXnzZnbs2EF+fj6SJKEbGh1jLbT69tMbaCcUD6DPdgNLIMkSwhDEk3FO9R2lz9/BgrKjrF2whSXVq7Ba0iJL0zROnDjB66+/zpEjRxgeHr7sl2Iux61pGnv27GHXrl2cPHmSsbGxK154Xdc5ePAgHR0dLF++nEceeYSNGzdmhVlKT3Lw3Fu09h7BYXOxduEW6ssWU+AqQpEvRFYlSSLPWcj6pgdorFzG2cEWTvcepX3gBKsX3MvSmrvxhQboG+2gwlvLvOIF2FT7NR/vXM5HJK7xwp7znOoaI6VpmIYxo+pKVqAb5hShLrKiPPuUEIDQwUwhhA4iiogeQlK8SK7VSMzeoYdCIV555RWi0SibN2+mqakpGx0fHR3l5z//OYcOHcJms7Fjxw48Hk824ny5a2ea6dXTMtuUlpayY8cOOjs7icVirFmzhlWrVuFwTPeNCiE4c+YMS5cu5b777qOkpIR4PM7Bgwc5cuQIL730EsXFxVRUVADpL/sbb7xBZWUlmzdvzuY7DA0N8dZbb/HGG2+gaRrbt2/HbrczOjrK888/j8PhYMuWLdTV1WUTO/v7+3nllVdoaWmhuLiY0tJSHHdwslmOG4MQgnBS573+IAf6QoxEUoSS+gyfcChpMBROcXo0xtGhMKsq83iowUuhY7ptTgDBuMbRoTCHB0IMhZNMJHSSswg3CXCqMhUeG6srPNy/wIvbZvmVra+l2O1UbLmf4b3vMnrkEJX3baXy/q2EOzsYfvtNYsMjd6QwnwsFLpXNd5VS7nXckModFkVm2fwCwnGdt4+PMOIPMewbZ3R8glg8eVVlBm8UmYjy4OAEh450MzgUZHw8SjJx6YGB22VFlvz853f+gXj80rMOkiThdnsoKytn/vyFbN6yHZ/PSU+vH6dLZXCoc9riOMlkkm9+85+x2y/084qi4HK5KCkpo6FhEes3bGPEZ6Ww0Mmpkz/nlVdevqwdU1VV8vLyqaispnnZKpYsXkdHZ4RAIJZtY7oCSTGBQJBXXzuKxaLwwNZmHA7b1ZzK6yYUCvGNb3yDtrY2IpHITf97pmnS1dXFv//7v9PQ0MC2bdsoKSnhgQce4KWXXqK/v5+hoSGeffZZHA4Hjz76KEuXLv3ghPk//dM/ZQuuX83nwuEwR48eZXBwkNraWjZs2JCOYEb9vNHyc8aN8yALTHHp/aY7iPQ0i2EYBKMBTva+z3hwnEJnKbWl9QB0dXXxzDPP0Nraiq5f/2haCEFbWxvf/va36e/vvyqRL4RgdHSUt99+O+vFd06WzArFA+xv38Waxi2snH8P+a5CJOTJypAXVvcyhYkg7SMuya/E6y5lcfVK9rfvYk/r6+Q5CkCSGAr04fWU3fTkRCHgZOdoVpQLM7MowoUa5WmBPrUKizGZSGRkf58h/SA3EUIDYSCEAUYSM3YKxdEMyuwCM5FIMDw8THV1Nc3NzZSWlmZ/l5+fz/bt23n22Wdpb29n9erV11QeMPMwKi4uRlGUbJZ2eXn5jPwBSZLYtGkTGzduxOFwIMty2qunqnR2dtLf309nZyfl5eWMjIzw8ssvY7PZ2LhxI0uWLMkO2LxeL4Zh0NnZycGDB1mwYAHNzc1Eo1FGRkZYuXIlixcvznrHAQoLC/H5fPzsZz+jp6eHeDyeE+a/5phCEIhr/PS0j/f6Q8Q184orMmqmYCCcYvT8OOOxFJ9eUYFncoVe0xSMRlP8tG2Uw4NX3p8AoprJeX+cvmCCjkCcz6yspMAxueLvDTzWW8k020FBAZX3bWX08CGi/f24amooumslobNnyF/YOO1zpmliivTjPm0zuH3L0V0O1SKxfV0ltWVu5FkqdmTOTyJlMBpMMBFJ5x6VFdrJd1knk0Jnfs6myjRWunht3wQnWrtIJJJZq9StIhSKc7Klj+HhIKO+MJp2eR3kLXLR19fOsWPHrqhFMrYJq9XK3r27+cqf/Q0pLQ+Hw8KJ463TVqHMBDwvtQ+bbScjI/188pN/jEChre00LS0tVzw+SZJQFIVf7nyNp556miee/D2OHNWJRi9Ezi0WC0VFXsbH/bz88mHmzSvmruV1V9z3jaS4uJgnnniC1tbWaQOWm0km8Pbiiy+yadMmJEmiv78/O5MhhCAej2crvWRmwOfCdVtZJiYmZn0/nSXsoaSkhGAwSCAQmCFgM8miicSFJJKUoeOfCBEijifvyqMuSRKYBpgAEhhJjfGJCZKpCzdtNBplfHz8kl8Ep9OJ2+0mFApNa8vliMVihEKhWUV5erTrprCwEL/fTzQanSGODcOY0aZYMopFsdJUtZxCd/oiBiJjnBk4wcKqZmRJpq3/OL2j50locawWO3WlC2mqWo7XU8r6pq209h3BMHXc9nyaqpbjtLpu6tLFgvR17PWF0fXJBYOM9NLBpnGh4op5UeRciHQUWphimih32lVKCxRkMwimhhAmCAOEiZnoQJjxK3rNMw+jzGtIRw/mz5+P2+1mbGyM7u5u6uvrb9h5uLjsEkz6TAsLcTqd09pTVFREeXk5w8PDRCIRTNPk+PHjRKNR5s2bR1VV1TTveWYxhIaGBtrb2+nq6qKpKe2hzCR6Xvz3M3VXZVlOn+c7qHLM5VAsEqoqoesCXZt+TLIMqlVCS6UH6xZVwqJOuSaT086mAYo6i+gR6UGmljK5AwoDXRWmEIxFNZ5vHWF/X/CqV2RMGYJDA2G8TpXHF5XgUBVGokl+fMrH4YEQV7ueTNIQHB0KY1WG+VhzF9njUwAAIABJREFUGUVO9ZIWtdudTMAkntKJxDTCsRQWi0xRnh2XXcXiclF2z0ZMTUPoOpLVSuPv/D724pJp38vxUJKe4TD9vggFHhurm0pwO27fxP7ZkCRoqPKwrC4fZZZ+xzQFgUiSM30hDp3x4wskMEyBJIHTZqGx2sPqhV5qy1yok4vnmKYgHEtxuG2Q599s41DrANoNTnC8WtKz5gbnzo/Q2+dnZOTKohwgz2PlxLHuabqhpKSEkslE4PR+dcLhEH6/H03TiMfjHDlyhOd/8gM+8ck/xmKxcvZMe1Y7SJJEVVUVDseFmvialsLv9xMOhzEMg1gsxu7db/DQQ4+woGHJtDw4WZZpaGjI2mqFECQSSQIBP6FQCF3X8fv9PP/8j1mwoJHq6rWcPTuWneDOlFfMy/MwMjLKCy8epH5+2WQpxZud25bxwJvcfffdNDY2cuTIkWnfq/LycrZt24Ysyxw6dIi2trZZc/CWLl3K6tWrpxVaEEIQCoU4efIkXV1dM/SeruscP36cSCRCMBhk9+7dMyL269atY9OmTVfVB9+U7C+73U5zczPbtm1j8eLF9PX1sWvXLt5//32i0dkTIrJIYJgGwVASu8OCRZlLiUGBaUqgi3RyqDS3L60kScyfP58HHniApUuX0tLSwp49e+jo6LjmyLrNZmPZsmU8sO0B5s+vo62tnbffepu2trYZ/vNMxDXdmMx/0jQ/+Hh4hH3tv8Rlz6PLd4ZzAyepL19MvtNLNBnh0Lm3CURH2bzkEeRM6URJpqqoDm9eGVbFiqrcxGklIUjpJuOheFZ4m0JkxbeZiZqLtFVFmkwQQ4hspYL0CwnVIrOhuYplNQFk0zdpYzHBTAtzIUIIbQzJUnDhhF0Fdrsdp9PJ2NgYwWDwlonVTBQELiQP9/b2YpomBQUF2RmUDGk/n52ioiJM02RgYIBYLHbZv5GJdNxJnfqVkCRYvMLFxgcK6T4X461X/KSSF65hdb2dDfcXsOcXfob7U9z9oTxWrJ++1PlAd4L+7gQr1udhs898tgT9Ou/+ws9Ad3LG724HsiJQN9BMweVC1JIEVkXGbpEJJnRePTvKoYHQrKLcqkg4LTKqIhPXTWKaMWM7zRS83x+iqdhFlcfG860+jgyGZxXlqizhUGUssoRmCGKaMWM7U0CrL8KRQSf3zS/Earkz71XDNDlxboxj58YQwNL5XurK3agWGVMIJAFCsYCskIzFsS9owuItJhDRiCY0TCEoL3SS51RprM7HNAX/vfMsKc3gvlVVqLfrgg6z4LRZWF5fgDJLFSkhBCOBOG+dGKGtJ0RyqpAV6ZKHx88H6PNF2bCkmFWNXnTD5OiZYd481MWBk32MBmK3PEqewe+P0H5mCL8/NidRLklgs8n09fVk+x6n08knP/kp1q59gFRKJ10e2SARD7Fr10v88pc7icVik6UAD/D4409RW1dHX19fdr/5+fn8n//zd1jUQjQtLRyFqdPaeogf/egH+Hw+gMkA6SiJuJ+urq7s50tLS/n6179BIJARnQJdTzE42MmLL/5fTp48iWma+P1+Xn31Jf7kT9ehKDOrv1itKnl5Hk6f7mfnL4/zkcfXTvZB13GSr4AQgtOnT/Pzn/+cXbt2cf78+Rn9ekFBAX/7t39LcXExX/3qVzlz5swMga0oCg8++CB/8zd/My3PLFNSe9euXfzlX/4lnZ2dM9qg6zqapmVLZF+87xMnTvDFL36Rhx9+mEcffZSysrIr9ss3XJhLksSyZcv44he/SH19Paqq0tjYyKJFi/j2t7/N7t27LyuIJjUaiYRGOJSkYA71SNOFPtJWj1TSBAdz0m0LFy7kK1/5Co2NjTgcDlauXMmqVav4zne+w4kTJ65JuN1999389u9+hoQ6QcfYERpWLaS5+XP8xzP/yeHDh7MRzvz8fLZu3ZotHSku0cMKBIYwiSbD9IycocBdzJbmD2OzOACTkz2HGJ7oQzOmi35ZVvDY82bd540mntKIJVIX2VYuvFZkqCzKo7GmML10shAIU2Ai0sJbpDPVK4qc3FUXwms5BkZ4UpCno/AIPX2N9XGg4ZraKcsyTqczW/3kVkaRp34xdV3PztRYLJZZSyNmLDRCiGzS6a8bkgQ19Xbuf6yI0EQ+w/1JTrwfyYrTknIrG+4v4NThML5BjYYlLu590Mtgb4JkIn2fJeImwYBGRY0Np0uhoMhCUZmVkf4k4aCB3ZGaVbDfPqSTLHd3+gnENS5+0E19jtgUmfU1+SwscvJe3wT7eoIzvN+KBPMLHWyuK6DEZcUiS8Q0k7NjUd7o8JOY3F6VpWki/7QvyuGBMPpF6l2VJeoK7WyqLcTrVFFliaSetq+80+UnmDSmPelCSYPDAyHurvJQZLnzKpQAIKC1O8CBlmHyXFaCkRTHzyo47Jb0qpZCkNIMdD1TzhQEQWw2hfrKPOor85BlCauqYFUVVjQW8+K7nZzrD7KxueKOEuZej5XywtnzmUIxjT0tPlq7gpcsfWgKGA2m2H10mLGJKG2dQ7x7tIeR8fCcVgT9oBACunvGGRkJkbiMp3wqDruKLKXo778gqktLS1m+/G5GRq2EwyaSBLJkweOp5pFHn6at7XQ2+X90dJShoV7KyrxZsZ3Zx+rV69m5q2dS3IPN5qK5+R4qK3dlt00HhFQGBvoYGhrKfr6hoYGq6kZOtJwFMlVbXNQ3bOS++8Y5c+ZM1g+fFvQaFst0YZ7pzzweF8FgiDffbGHD+oVUVnq52au0nz17lu985zv09fVNs1RnnAvNzc243W5UVb1i2eGZJTylbEBvNmRZpr6+HpfLhdfrpba2lpGRkWnOi4xNNRqNcs8990yrkX4prluYX1yaL1Ocvbq6OjvysFgsVFRUUF1dPWspvxn7lNMdTDicxOm0oqpX7igNY9I6IcSc74N58+Zx1113ZS9GpkZlVVUVLS0t15QgWllZiXAkefvkzxkLj9A31sFjqz9DVVUVR44cwWq10tzcnK3pPteSdU6bm5qSBZzoPsiP9/4H5QXV5LuKyHcWsrZhC257PhPR8atu740i7R+fWn0l3QmpFol7m6vZsdZDqduPRDh7edKRcxNIC28LfiStH6FHJ4W4gTAN0r4CIy3Mzdmz3efCXO69W8HUOuVTk0wvJjOou5R4/3VAkiV0TWC1SXz09ysZ7OlidDjtKZTltNVFkklX2VQkAmMaP/zmAL0d6Y5F19IWmGP7wygWiQ89XMiTnynnhe+PcOJgCNOAeOzaE8M/CPLtFjbVFWCYAjH1YSemC3NFkihyqgxFUrzZGSB2UYRLkWBNVR6PLSqmOs+BRbnw/VhW6qLMbeNAXxCnKrOk1EVTkQu3TaErEOf9/mA6Yj8Fu0VmU20B2xq8lLlt2bKIQgiWlrmoybPx3KkRRmNTSt4BPRMJRqMaRc47U5grisSTm+p54O4qEkmDaEJnIpJMi3HzwvLzbrsFt8uKTVWwKjJWq4LLrmK3To8q+gIxAqEEaxeVYp1D33e7IElQ4FZx2WcuViaEoH80Sltv6LL1yIUQJJIpBkdCvP1eC6FILGtbUWSJwnwHhmESCF0QPm6nSoHHwfhEjPgNWFVzLui6wem2AeJxbc6Jp3n5DgKBwWmi2uv1Ynd46emLkUpdeO7EEzp1dS7cbk/2vbStJcbIyPA0C3F9fT3RqMgmZabbZ1KYb0ybpfd6vZSXl3P69OlsYCcjLP3+BPH4dG92KKjhcudP62tSqVR6tnuWiG+mxKXH42Z0bJyz54aoqCi8qbO2kiSxbds2/vRP/5Svfe1r2ZkEVVXZsGEDH/vYx3jkkUfwer2XDWaZpsnBgwf5+te/Pm0FbyEE4+Pj7Nq1i56enhmfKy8v54knnsDtdrNmzRq+8Y1v8NOf/pSf/vSntLe3ZzXk0qVL+dznPjdn++wNF+ZX2vbK26SFuSQLknGDoD+Jt+TKFUXSjoe5i/JMey51g10rkiRhChPd1NPJjcJAILDb7dTW1vLYY4+xefPmq14F1aY6uGfRg1R6axmZGGAsPMy54dOktAQNFUt54K4nuOy89k3EYVVxWC3ZhE8xmdhpmibN88t48l47xep7SIb/QuUVJr3lwiAtug2EqWc95UIYWQtLxmMuTBNZ8Vzz+FvXdSKRSDb6fLGX7FaJdlVVKSoqAtL5EBdbnjLnMhaLpRN+S0qmZd//uuEfS9F2LMKG+wt58MliXvz+CPHY7IMZwxBEQgahwHSxnUoayDLEoybChGh45ja3A0II4prJufEoCSMtw+dylyrAfK8Du0XmyEAIX3RmQtSSUhdPLyuj1GVFktI+dDHpjrEoMvfMy2dlhQebRUJVZGQgaZic9kWYmCVKuKrSw2OLimdUbpEkCbtFYVWVh4FwklfPjJGaImbiusFQOMmikg++zNqNQJIk3E4Vl8NCMJqie2SMFQ1FeBxp33xmFjhz7YQA3TDRdHMyOTK9H9MU+AJxXtrTzcJ5hdx7V+UcrZy3BxZZosBtxTpLjW7dMDnZGSSWnP07lrH0jQdC9A35CEyEZwjewnwHv/3YSoKRBM/+9CimKVBkic2r6vjotqX864/f53Db4Kz7v5EIIZiYiBEMxjAM87IlB6fidKoMDfVmRXUmD880lRm2EFmWQOho2oW+wG6343K5OHPmTDYiK8syCxc20ds3vfSz1SoTT0xME/CVlZVUV1fzyiuvZN9TFIXq6nkMDIS5GFmR0C9a2TpdQEC65GBEkiAvz43PN8r4eBhdN1HV2XXWjcLpdPLhD3+Y/fv389xzz2GaJvPnz+eZZ56hsbFxTjorUxZ53759c/67xcXF/M7v/A4PPfQQsixjt9tZuXIlzc3N3HfffXzhC1/g9OnTKIrChg0bWLt27bTS4JfjNlxhRCApAmQwNYmwX8PpUrHarjydl71/pLl9UyKRCBMTE9kFWIQQRCKRWZM150ogEMAp5bNh4VY6httoql5ORVENjzzyCI899hi1tbXZmYS536yCQNjH2YGTLK9dy111GzBMnaSWoLXvCMc69+MP+yhwFV1Tm68LKe0N93qsFyV6moBgzSIvXuu5tCjHvBAlF+ko+YXkzrQQF5nXk95ywQWPOZITrJVzShKbev0yr/1+P5FIJOvXnlp+UtM0YrEYLpdrWk39Sx+2NG1Qej2iXpIklixZwt69exkdHcXv91NYOD3SEAqF8Pl8WK1Wamtrf60rrJgG7P1lAKtdZs2mAtpORDj+3syOBcDlVrhrnYeKGlva4zqQouvMlRdHuV0QwGA4yaGBEIlZEt4u3CPT7z+HolDusZHSNdpGozOi2/k2hd9YWkap2zqZ0yI4NRKhLzh9iXXB9FhHLGXQMhKd4Rcvdlp4amnpDFE+FZsi01zm4mB/kMHwBcFhCugPXv8y4rcaIaBnOMzO93o50xOgqsSF3WpBtUjZKjYpzSQa1xgNJhgLxlm+oIj7VlXhsFkY8cc4dm6M+VV5bGwuJ885t078dkGWJVx2C4oys82aLpiITF8Bc9qif5EovrEJBkfGSaVmDiKry/LYunY+a5dUEo1rjAVi7H6/k8Z5RWxZXcfS+hIeWFePLEvYL1Nv/0YRCsfRNOOqksQddpXx8bGsLSTtJKjEMJUZQtdut6BpgWlrrWQi3u+88072PbfbTXX1PMbGpuccedw2Av6RbIWQ9Mqg1aiqytmzZ7Pb5eXlUVVVg883/fmZ9sPDRHB8mnOgqqoKsGAYsx94JrdJUSxMBKKkUjrqTVqvIJ2kmmD//v1885vfZPfu3dNKGjc0NNy0PCubzcanP/1pPv/5z0/rqyVJQlVVFi5cSFlZGadPn8YwDH7yk59gsVj47Gc/S2Nj4xVnvG8/YS4BskhrM11CE4JQIEVhqY05hcPNuQfNW1tb+bd/+zcefvhh6urq6OnpydYlv9Zi9IcPH8ZqtbLlvs081Pw05SVVWC02Fi1K+72v9SYxhEGX7wyBsI81C7dgtdgwTZNIPIjNYsOm3hqhJgGyBHXlBcgI9CmLBakWieI8CdkcmbSsiGnJnOlIuZ62qkwR51Oj5Bd+FsieJiRLHpe7whkP9tjYGF6vN/sFiMfj7Nu3j2g0Sk1NDfX19VlbiN1uJ5VK8fbbb7N9+3ZcLld2X4FAYNbKQ4qi4HA4spV8zMkSkddyfSVJYuHChSxevJiOjg7a2toms+zT1zSVSmUXEaqtraWhoeHX1sqSIZk0efH7I/y/f1bDhq2FlxTbBUUqDz9Vkq60YsC+XX66zsZv1eTSVSMB1fk2fmPZ7L5E3RRoxszZHqtFJt9moW0sii860/5VX+igwmNDnhxcjsU0/ufkMP3B5BVLHs7Gqoq8ycj7Ze5/SSLfruKyzuyoY9rtN1txtUgSzK/I48nN9bT1+OkZDqPpmWsjQJKQJQmLIuOyK6xsLGF+pQdFkYkldKIJnRUNxZQUOLCq8h0lyjPI8uxlLzMzBdmfJ2cBg8EQI8Mj+MaDJHQTITJVEKbvpaLEw4dW1lLqdZHSDLauq+e9ln4WLyhhYW06yLKiqYKxYJwx/xUKTNwAdN2YjJZfPHSdHVmWsFoN+vp6spYKq9XKvHkLSFz06LJYZBoaijiwbzejo6PZ9+vq6igqKpq2OrnH48HrLWNsfHqyekmJi/a2oWmR9ZqaGoLBIAMDA1O2K6GgsJwx//TBkNtlRZEinGo5ni0/aLVaWbNmHdGYdElhniZdFS2l6Td0UZ/ZCIfDvP7667z55pvTCotkShffrO+QaZoMDQ0RDoezFXXgwn1tmua0Pnp8fJzXXnuNzZs309Bw5Ry5G2JluaFIgJAwE3K2F4iGdOxOC3bnlUZemUgnzKXnDQaDvPzyyxw7dox58+bR1dXFyMjIJVfvnAuBQCC7Cui9997Lk08+yYIFC6b5lq4eiSJPKVubH+PAmd387OAPMM10R+b1lLJ6wYcoyasgkghdx9+4jtZJEnctKGNeWR7nesemVGFRkCQTiYwQN7MJnVm7ijCywlwIE0x9sgLLFGGOANmFkrcGSb5yhZnBwUFeeOEFli1bRk1NDZBOEDl06BCqqrJmzZpsjXOn08nChQs5d+5cdjXPRYsWZRfwaW9vn1EfNhMV2LhxIz/5yU9ob2+nvr6eurq6a7aYOBwOnnjiCX70ox+xb98+DMNgxYoVAJw7d469e/fi8XjYvn37tPrsv870dyV48+VxHvvNUpasdKcTvy9i3Jfihf9vmJH+dM1j/6h2x4hyuGADsc+SAGiYgiMDIQ72BzEuEuZLS91srfeS1EyS+swDLnFZsU5GNk0h2HlujP5gkmvpRiUJmoqdyFfoC6TJNhuzTIPPJtbvNCRJwuNUWbO4lOYFXpKagWqRISs20+cgU17OosiTJQUlTFVQX5k3WcP7zhPkkO53Nd2ctWqKIoNlSiTdNAzOneugv2+QcDhdMla12VDtTqRZkoBbO3z8608O8bmn7iYQSvDN597HF4jy2t5z5Lts/Nb25fzkjdO8dbiLVQvLb+pxAljVjHUzO01/2e0tFplUKkhra2v2PYfDQUlpBYmkiaJIWK0WiovdNC0sZWjwJC+++Hy2+paqqjz66KPIsjyt1KHb7cZqdRO/yFpWUuJkcHAgK6plWaauro7u7u5sFD5ji1RVN6YZxWKRcTqtlJfnUT8/jxee/y4nT57Iiuu6uvmsX7+ZwaH4Few7AsPQcTpsWG5y4nJhYSGf/exnKS0t5dlnn81WZYnH41cdLCspKaGsrCwrqDVNY2RkhEAgMCPwoWkar776KkuWLOFLX/pSdk0Un8/H66+/TkdHxzRP+sqVK/niF7/Ipk2b5hRUu+ERc0VRspVGLsZqtaKq6rTC+BcjoSBrVtAVMj2ooQuiQW1OdhYAhJStr52paa2qMxNSIO077u7upru7+7K7vDijV1XVrF/o4oum6zrDw8O8+OKLHDhwgE9/+tNs2bKF/Pz8y06tqIoVzUgxMtGP112CarFlBbhFUWmqXE5jZTMJLU5KS6BarNgsdiyKSkpPcm7oFIqsoMqzH+vNQpIkPC4rf/CRu/nmcwcYHAui6wJVEcgwRWhfZF0RZDstgTR5uSfP8YUiqSBZUfLWYXGvRJKufFOXlZVRVFTE+++/z549e7IJlS6Xi61bt7Jx48asnchms7F+/XoSiQTvvPMOR44c4dixY6iqiqqqlJaWUlNTQ0dHx4xj3rhxI6Ojoxw5coRnn32WmpoavvCFL2Srv7jd7lmTezN+NI/HM83WVFlZyVNPPcXrr7/O3r172bt3b/Z3FRUVPPbYY9TX1yPLcnZw4PF4Lvl9s1gsuN3uaXXUf5UwDThxMMzytR5+83OV/OR7wzO2ScRNzp+O0X32zrGvzBVJgnqvgyKnmhYJkNUHBZMJeKbgEkLpgl1rNKbR6ovNsK3MdfwikRZdV4odmkIwHEkRiE8XEbIEtQV3rjUrU/418/ps3wTP/KyVx+6dz5K6AiwWJXteTCGIxDQ6BoPUV+ZRVezGqsrIkoR0E9eb+CAwTEEwmkI3BLaLuiDVojCv1Mn5/iA+3xinTrUzMRGcFlFNJRJoqRQOtxtJtSPLSvYejMU1znSN8d+/bCWR0OgfTovL8UCMN97vYjScYH9LH2OB2KwDvxtNfr4TWZbmHDG321XisQmGhi9UQ7FarZSWeFi3ri5tc0olGRoa4Cc//hb/9V8/zEaALRYLmzZtYuvW7Zw4cWSavaW4uBgh7GjaheebJIHHrUwLKDkcDmpqajh9+nR2v5Ik4XK5mFfjpnnZPExTEI1G6O7u4h/+/m958803s0FKl8vFE0/8P0hyKeP+2Ze8B8isim6aJoWFbqzWm2fKyMx419XV8ZnPfIbOzk46OzsxDINwOEwwGJzzoj4Wi4WPfvSj/OVf/mVWKxqGQWtrK3/+53/O4cOHZ3wms9L4U089lV1XpLu7m69//evTSjIqisKHPvQhHnnkkRkW1Uu2Z64nYS4HVlJSwsqVK9m2bRs22/TIpqIobNq0iWAwyMGDBxkYGJg1Mu2x5bN2/ha0mESvr4tYMn0TJeIG8ZiG3XnpJiuKQpGnhCW1zbjsF1Z1rK6u5oEHHmD37t309/dfVUTcZrNRXV3N5s2bs2VuMtaDj370o7z55pt0dXURi8VmCPRMzelvfOMb7N+/n4cffpgVK1ZQXFw8sywPEoWuIhZV38W+9l/SM3aeeUUN9I13oMoqVosNSZKxqXZsqi2taU2TUDzIuaFTnOw+yPBEP8vr1lNWUMUHvY6eJEnUVRTy5U9spOX8MOFYAlmSKPXa0/XITR0wpkTMBZKtAUl2ITCR0gWa01Fy2YmkuCYNrhKSWoziWg7yletgZhJqnnjiCSwWS3aJXqfTyZIlSygqKsoK28z2LpeLhx9+mLVr19Le3k4ymSQ/P5958+ZRWFjIrl276OzsnLGyp8Vi4bHHHmPNmjX09fVl73m3283TTz9NMpmkpKRkxrV2OBxs27aNe+65h8LCwmmLD82fP5/f/d3fpaOjg/7+fmRZpry8nAULFuBwOKZNz1VWVvLZz34Wl8s1q+e8oaGBP/zDP8RqteLxeGb8/k7Aapcoq7KRiBmM+2Z6TwPjGu/+IsDCZjePfrwU+SJ/q6pKFJWqxKPph6RhCMITOsnEHRQ2vwSyJFHsslLsmr2aiRACWZZmXWBsJJIiZZgoskI4oTMv306xyzLlszASTTEYSl1RoJsCzo/HWVWZh3KJTkcICCV0jg6GCF5UOcNtVShz33kVWTLPe80wiSV0dMPEZVdx2ixUlbh4ZX83L75jZI36QqQTPIUQ2G0Wass9PLSuhoU1BdMW4zEnl/+80gzE7YZpCiYiGomkgcs+vZ+WJYlFNR5eefM4h4+0EIvOPlAWpkksFMLhTLFkyXySOvSNhNB0k3hC4933O2dEa9s7RznTNfaBJe9LkkRenp3SUg+h0ChCXHmWw+WyEouFSE4pozc8PMznPvfZbPAmlUphGEZW2EK6L1m/fgO//TtfYCIoc+bMuewCNhaLhfnzGzCFihAXzmdhoZNYLDCt1nl1dTXFxcXT9I9pmrz55pscOHBgMgfCRNO0bBsygc3i4mJ27PgwK1ZupbNr4pKJn5kZhGAwjN1upaKyYFpfe7Po7OzkP/7jP/jhD3+YFcPhcJju7u5puWRXIpN7NrWOeUlJCf/wD//AJz7xiWm2ogx9fX0cPXo0a43t6emZsZimYRg899xz1NTU8Fu/9Vt4vd4rtum6hbksy3g8HtatW8eWLVtYvnw5RUVFM6wbkiTR2NjI7/3e77F+/Xrefvtt3n333Zmixepk07IHqK9o4mTnYQ6cfpeB8T4M3SAa1LHOMuUpIeFyOFlWs5I1C+9lYdViClzerIbzer189KMfZfny5ezZs4e3336bsbGxy/qfJEnC6/WyZcsWNm/ezJIlS8jLy8tGyD0eD08//TQrV65k377/v70zD47jPO/009fcFwb3DeIkDlK8RZqiSFExTYq26ZiyZVnxOlbVZje2Ny4n3nLWpS1tkq2tyrosObFXTsV24siJLR+yJTKSD+o+aImSSfEUeOAGSGBwY+7p6e79Yw5icIgASREg008VeMz0Oejp79fv976/93Wef/55enp65txmLBbjtdde48KFC9x777186lOfmjOCb7M4uGvVR+kJnOPsxRP87txz6LpGW/VG/K5U+oKRbk8YV+N0B85xovsNRoJDlPoq2bvhfioL6nBYFt9q/nogCgKVRV7KCzxZ2zZBGyQ5qqWbBU3PIzcwkhMYQjSbQ24YOgICkrse2bsFhPRnlPG/WwSyLFNQUMAdd9yRvWHPd5PIPHkXFhbmPGFnblYZz/OZD5tAthizqqoqZ1ulpaXzHpskSdl9zXSvyPimtra20tzcnPP6XAK/pqZm3i+50+nM5svfrNQ02PnUn5TR1xXlR9+Z7biga/DuOyFeemaU+/9LGZdVYtSSAAAfBklEQVT6c2fj/EUW9j9YTDSc+l4GJ5M8+8Qw5069d4OmWwWLKGCZQ5hfGItwOhBmfZmb6jw7962yZCPrBjAeVfnZqSEusrAgxlsDU6wrc9OQPzulxTAMYkmdw70THLsUzCkuFYAan40Cx42d5bseJDWdvkCI7sEgTpuM12VFkUTKC508uHclQ+NRRiZjTATjxBNa6rttkfC5LPi9NnwuK36PNSXKhYywge5LU9n3byYMYDyYYDKiku/NPXZBgGK/nW1rSnnn5Nl5hXlm2XXN5Xz+/i0kDXjh7W5eeLuLicnYvCkUN9pRS5YlVrVV0tMzSiJx5X27XBbaz/TmBAV1XZ/VJfLy9mWqqqrYs2cvWz6wi3DYw+TkJN3dHTlWh4VFJahq7mxoTXU+p0/nNnMsKytDluVsRDlDIpGYM1CZmfVtbW1l37791NZvYqA/QTD43kXaiYRKMBiirraQhvrShfg0XBOZBkNPPfVUTibGxMQEzzzzDKOjo9nAVzKZpKenZ85rxTAMuru7OXToEIqiIEkSTU1NlJeXs379erZs2cLBgwdnrRsIBPjOd75DIBDA4XDw9NNPMzo627Z6bGyMl156iXvuuQe/33/F87pmYV5XV8e9997L9u3bc6bu5zJqzzTW2bx5M7fddhv79u3jW9/6Vk60TxAErIqN2uJ6Kguq2LxyGwfe+BmvnXqReFQlElKxOy/fxEVBoqygjI+sv4+2yrXYrc5017HLHTQz+920aROrVq1i+/btfO973+PEiRNzepVLkkRjYyNf+cpXspHK6akAmXOzWq20tLRQV1fH7t27eeyxx3j11VezeV0zt7l27Vq2b98+b765IAh47D5aqtbTUNpGTI2BYJBQ4/SPdrKiqAlFthKKTvLy6Wc41nkYt8PHrjX7qS1uxqrYEIXcVvQ3mlSKxfRcQlLRcl3NFnUamYLOWE86zUVAUPwYiTEMI4lorwVBRBCvfUJnMSkcM8VvppB0dHQUq9WajbZPX36ufy9kP++1Tub1K9UlXKm45WbNVZ1OaDLJ2HCC0YBKUjXo74rx1iuTTI5djrpGwzr//qMhfH6ZeFxnfCSJrht0vhvhjRcnyNTegUF4KomaSIl0w4CLvTF+9/w4o0NXX1eynPHZZfx2mbEZOahTcY0nTgxiU0RaCpzk2S+34w6EExw8O8LZ0cisaHmRU0HXYWSG5/FQKMGPTwzymTWlVPtsqch5OogRTmj86twov7kwSnSGs4zDIrK6xI37Jswxb++d4B9+eYraci9/tKsRr8uSspUUBfweG36PDd0wcpw7BFJxBlG4nPqjG6BrOnFVo3cwyJmece5eX56TzXezMB5K0BsIU1s6Ozhks8h8ZHsboiDwyD8/z9DIbCcliyKxY3Mj//NP91Cc70JAYG1jCXs+0MC3fnqEUxeG0JZJo6G62mKqq/M5dz4AiPPOUosieNwWzp49nSOCrVZrToAuE9Spr6/n/vs/zdat2xm4qPJu+wjx+AT5fg8jI8PZZjc2mw2P20dsRm1NQaGbl148jdVqzQaTKioqCIVCnD9/ftpxpVIqZ46RFouFLVu28MADn6G+oZXjx0dpb5/K8VmfSaboMRQKoaoqH9u3Ca937qY81xNBENixYwdPPfUUv/3tb3nkkUfo7+8nGAzy6KOP5tR8ZVz35gqeaprGs88+y8svv4wgpBoTPfzww3z605/G7XazceNGDh48OGu9ZDLJ4cOHOXbsGJIkzdn8r7Gxkb/5m79hw4YNaVebK3NNykcURb7//e8v2JsRLl98brebVatW8dhjj+U0WMksIwgCVtFGWX4lf/zBP2X1ivU8d+wZekY70GwGkijjdflYWb6WHS33UJZXhSTOL3ghJXQyRvC1tbX88pe/zElvkWWZ6upqdu3axUc/+tErToNk8nwdDgc1NTX89V//Na+88gq/+MUvaG9vJxqN4nQ6aWpqYt++fWzfvn3efOCcz0eQka0ydquTmBrlRNebvN3xCn5nIfVlbZzufZtQbIpNDTvY2rwLt923jEVYOg8v2yxII9VQSMPI5GC51qAU/xFGMkS8/xHSw9eSHO10+8N4PM6ZM2fo6OigpqaGFStWLMkx/UfmYm+Cf/g/veh6qkb45JEgp94KzrIpi4QNvvv1/pTQSb/3+qFxDj83PmubmfcNA84cC/PuO+EFexHfTAiCQLnHSkuRi+7J+KwunYNhlX98a4AtlV7KPVYEYDSicrgv184wQ4FD4ZOtxZwdDfNC53iOZaIBnBuN8p0j/Xyg0pv1Rp+MabzZP8mFsegskS8K0JjvYHWJ66by684QjScp9Nk52zPBX/3T26xfWUB5oQubRUoXdqYEuChkIuLpRmyGgW6k0qo0TUfVdSIxlfFgguI8O3esLiUYUQlFVUrznTfNZ5PKL9b53akhWqtcFOY5ZwUvHHYL+3etYXVTOT999vd0D4wxHowiSyLlRV4+sL6WD21txu2wZtd1Oaxsainjm1/exU8Onebnz51mZCKSfmJZugCUx+NgVVsVly6NEwwmQZDnHIdTDl46Q0OD2fFFURT+7u++zcaN24nF0gWakogsW9A0gcFLk7z6+jDj4xF03UiVWkke/vf//vY0YSkwNZXg6DsDOfu7ODDOZz/7JT796c9nX/N6HRw7djgnP72lpZW//dtH8OdXoGs6CCnHIEWxEo4k6eoe5beHegnP4eo0F7FYnHA4ws6dbWzcWH9DNEnq9+ChubmZsbExioqKGBgYwDAMpqammJpauCFGJBLJFttO/7ckSTQ3N5Ofn8/IyMis9XRdz5mdmEl1dTV33HEHJSUlC3aKueaQ5FzT+4thIZ0vrRYbm5q2sqKkjuNdb9M1cgafx8eqik3UFjVjtzgWdRGIokhhYSGf+9zn2Lx5M6+88goXLlygqqqKu+++m8bGxisK6Lmw2Wzs3LmTxsZGXnvtNc6fP09raytbtmyhtLT0qjw1bYqdzU13U+av5mTPW3QMnqHMX01r1QYqC2qxyMt8ulN0Iihl6ImRtOOKlm4slCkCBT0ZRI92Y2hhBNGOYClOp6/cWFL5cZMEAoFsjtrJkyfxeDxs27Ytx+Pc5MYxPQCRKUWYC0PPLVh8r2UvL7SAZW5iREFgY4WHk0MhuiZmT0OPRZM8e240pXGMdD32HNvxWiV21/tZW+bGZZU4HYhwMTi7iP9iMMGTZ4azUd5Mw6KZCMAKn509DQUUz5Mjv9zZ0FRIY4WXS2MRxqbixOIaoWhKUGu6TkI1SGppm1hSc7iyJGCzyFgVMftZK7JIsd9BRaGbqXCCo2eHcTsU6iu8c9YHLFeSqsrY2DgnTwwRGunlz//4LvK9s++ZoiDQWF3I//iTXQQjcSaCURRZpMDnQlGk9IPM7PP2OK20rcjjgBFHi0cRFSuCJLFU4lySBBobSrh0aZzfvXE+fR+ZLc4tFgnDiOa4qTidToqLq3njyEXGxtKBASP9oJbUZt2TDAOOHu3DYrm8fcOApJrMdkbNcPrMJTo6R3KOo7raR2dnV06reL/fj6o6eeXVHhIJLX2/1Ekm9VkNj96LVBArwfj4BA0NxXz4nvU3fJycnJzkBz/4Ae3t7e9LWlNDQwMVFRVzCvMrcfjwYb773e/yZ3/2Z/h8vgWts/x8zOdAQEASJUryyvG7C7k9sQ1FUrBbnIjC1RcXyLJMW1sbK1asIBqNYrfbr1l8SZJEdXU1xcXFxGIx7HZ79uHlardrka3UlTRTll9DMplAkS3YlMU9jCwVguRCdt9JMhlEj5y77MqSiZwDRvQCiaF/A0FCdq1DdLSQ6l24ODLpJgt52JuPU6dO8cILLxCLxbK53mvWrKG6uvqWdDYxubURBIEqr40P1fv5yakhxmOzp6NnekzPxGWRuKcxnztr8rDJIg35Dv6gNo8nzwQIq7MH8CttTxSgzm/nvrZiGvMdN61FoCAIeF1WPC4rGKmc89GpGP3DYQJjUTSLkQ3qGno6Sq7rJJMGU5GUe0lSS3WvjCU0Crw2CvJs+N028j1WbFZ5iSTnwpg+uxiLROjo6OLSpSHC4QgDff3UlPm5f+8GXHM0SkrNNov43HZ87txU1ln7Se2E3ktj/PDpI3T2DKJpBpISw2J3ICrpHidLcA253Xa2fqCRYDDK8RN9pIaIXHFutUiMjwdyhHlZWRl2u5dAIEAiMX+r+OlomkE0OjtNdiaGwRzLGQz092VTaQRBoLKymoQqMjUVm7eg8733k1onGo0xNDRMUZGbvXvWUV5+5Rzq600mTUeSJGRZnpVOcq1UVVWxefNm2tvbcx5u3gtBSDUbyuT2h0KhW0uYw+UvrEWxYFFSv/hrdR7JTCu43e7r5lqROU673X7dujOmjlPCaXXBMg+Qz0QQRER7PbJ0P3r4HbTIeYz4IIY2mRLogg1B8SNay5FcqxAdLQjS1eWm+Xw+HnzwQSYnJ6+66LGiooI777wTr9dLaWkpPp/vmh+sTEyWElkU2FThJaEbPHN2lKEFTk2LQJHTwodXFrCl0otNlhAEsMki21fkYQC/Oj/KaERdsLWiXRFZVeziYysLqfRa04GVqz2zpSVbK5L+QxFEivLs5LmtJCo14qpOUtNJaun0Fd3ILi8KIMkiFllCSf9tUcTLDXqEG+2rtQiysyGpzouXLg7S2dFFMBjOplmEown+7eBb+H1O7tnWjN02tzhfCIZuMDIe4h9/epjDRzuz0dxkIoGmqlhsdmSbHUFWAOGGXU+Z4/f7XXzkw+sRRZFTp/tJJpOI4mVxnp/voL/vnZw0kg0bNhCPi6jq9RWQcyGKAm6nTF9fb7amTpZl1q3bSCikXrUo1/VMM79RfD4799+3ldtuq37fvcvnoqSkhCeeeIJAIMCjjz7K448/nn3P4XCwbt26eS2z58LpdFJRUZHViB6Phy984QtYLJZsN8+ZjIyMcO7cuWwRak1NDV/96lfZuXMneXl5CxblcBMJ8wzL+HZlMiephwrJWopoKUby7sBQx1LCXE8iSA4ExY8guREE+ZqiHrIsU15eTllZWWrPi9yWIAhUV1dTXV1tinCTWwZBELApEndW51HstPBcxzjtI2HCqsZcY7IsCnisEs0FTnas8NFQ4MQi5dYA2RWJu+v8lLotPN8xxrnRCKGEPqdAFwVwKCKVHhtbKr2sK/OQZ587H/dmwjAMtHgcQ9OQbDZESUISBCSLiO199G9eauwWCZtk0DkwRHdXD4HAyJwCs39wnG/960uEIjH27VyN12VDEMUFj+CGYaAmdS70DvP/fvwKL/7uHLG4OmuZeDSCmoih2BxY7Q5K82+cE5WQfipzu23s/tBqnE4LR491E4kk0uJcpKzcy4njQ5SXl6PrOpIkcfvtm5mcUm9IGp2iSLhcKYFeVVWFYRjY7XYam1rp6Jy/p8ycGClnOE3TmJoKMjU5RWNDMZ/85FZWNpUjLVE9hKIolJaWYrPZCAZzi4qtViv33XcfH//4x7PNhyDV72S+VGxBEHJqHwVBoKWlhW984xvous7U1BRjY2MoioLNZkNVVR577DG6urqywjwYDGbrFqdbMC6EW/fuYbJsmN4dTRBtCNYyoGz2cqmFU0tew6C9VOuamCxnFEmgpchFtc/OuyNhTg+FmYonCasamm5gk0VcFokCp8L6Mg8lLis2WZjXT1sRBVYVu6j1O2gfDnNiKEQwniQY10hoOnZFwqVIeG0yrcVOGvwOnBYJ+SZNXZmJrqpceulFIpcuUvPx/Vi9C4+I3cwUeq24pDAnj58kGJzt3JPBMKDv4jh/9y8vcqZjiP271tBaX4LdqmSvqZkuWBmSms7weIhX377AD59+i7Ndg+/pxqJrOolImMpCF1vaFuZ8cb3xep3ctaOVvDwXhw+fY2w8gmGIDA+H2XPP/ey4a1+2N4fL5ePYsdkN0d4PNE0nGrfwhS88hKqmU1lEEcNwMTk5cIW1U2R+N7quE43EGJ+YRBINtm1byd571lNR4V/yVE9d1zly5AgnT57EZrNlfdnHx8f5+te/zgsvvEAoFGJkZASLxcJDDz3E3r17F3QvmmlZ/Pjjj/ODH/wAh8NBYWEhNpstu31BELBYLEQiEV588UU+9rGPkZ+fv6hzMYW5yftKpulAxk5p+msZpl/wM5v/mJiYXB8EQUASwG2V2FjmYV2pm4RmEEkLc7siYpMlJBGkBbgHpLYn4LaKbCj3sLbUTVwzCMWTxJM6DouEU5FQJCGbR34rfaMNTWPq/Fkmz52l8p694DFygguZdJTpcjKTppJabFoQwpi27vQUmWnLLwcEQcBlV9i3vYmR4VFeffsCw2Oh9+y2ORmM8cvfHON4ez93rKtjfWsl9dWF5LkdWK0ykihiYJBUNULRBMNjQd5pH+DIiW7eOtHD+OT84j+Dokg01RTxiT3raGsoub4nvQBSYxi4XDa2bG6grNTHW7/v5OzZQU6e7MVut6XHtoyn9iSqOr/94PUkmdQ5cqQPRZFyLqVEYhxNu3KRZ2bsjkZjBIMhkqpKRWUeO+9qY8P6Ony+5WOKUFBQwAMPPICu6/T393PgwAFGR0fp7e2lt7c3u5wkSfz6179m9+7dizbliMVivPrqq5w8eTL7Wqa/DaTSYL70pS8BUFlZuagUmgymMDd5X8l8qTVNQ9M0dF2fU5hnpo0kSboq9xoTE5OFkRERAgKyaOBQpke6Fp+jK2S2KQnIIjiVmZGzG5f3e+NJ38sM0JJJEuPjhC8OoIZCOEtLcZSn8lTDg5eQLVbsRUUIkkQyFiUyOIjF7UFxu1FDQcJ9/aiRMI7iEhzlZRhqEkGSkK7CIez9RBAE6qsL+cqDd7NtfR0//fVR3jzeg5qcX2hqusH5rgDdfaMceOEEJYUeygq9eD127BYFXTcIRWIMj4cZGJpgZCxENH7l/GdRgII8Fx//0Fp237GS+qpC7Lalc/nJFLWuWFFEYaGXxoYhjr3TxflzQyQ1HVGUEUUpHV2+cb9TTdMXJMKnY6RdYiKRCMFgmFgsSllpHtvuuI3bNzdSWOBBUZbOFWcmoiiyZs0aWltb0XWdAwcOcOjQoTmX1XWdwcFBwuEwHo9nUfsZHBykv78/57XpekaSJD772c9SUVGBKIqLTmMBU5ib3AAywjvT4ne6MJ8+RZRZbjkNQiYmtyrTo7fXb3vZP/7DMXb8HS78yz+jhkMYySSGplOx9yOUbt/Bu9/+e/R4nLUP/xVWfz5jJ05w5u8foWLPh3GUltHz1JOowRC6qqKrCcp3fYjSP9iFbHdgt1qXVdQcUpaHBXku9tzZwsbV1Tz93Al+eOAIw2MhEu8RCVaTGqPjYUbHw5w+dwlg1qzCQhAEcDqsbGqr5sF7t7C+tQqLsjwCOpdNJWysua2KxsYSzp+/xBtvXKCvf4xEIoYgzC/QhRv0HTLSTddmkkoBSRKJRAkGgyQSKkWFbnbv2sD27a0UFnqyBZ7L4fPOkOmRI8sysViM9vZ2Jicns3nk0zuDGobB8PAw/f391NfXoyhKzrlMj4BnyHQBP336dE70PUNGgEejUTo7O6mvv3ovd1OYm7yvZPLORFHM2hjO5TNqpq+YmJjczDgrKqn7o/+EtaAQXVXp/NG/MvLWmxRt3oy7to5Lzx8iPDCAxesl1NNNMhLB4vPhrqun/jN/jCXPTzIcouNHP6TvmX+n5M67cFQXLfVpzUumwV5xvof//Mmt3H5bDb84dJzXj3bQPTC2YLePxYhyAfC4bDTVFrN7Wwt7trVQmO+etw5iKckIdJfTxprbaqivL+Vs+wAXOobo6x9laipKPK6i60J6nBTTvvU3aixMOavouoam6SSTSeLxOIlEEl1XcTgU2trKaagvZcvmJkpKfCnXoGX4Wc9EEARqa2v5zGc+Q1FREZ2dnfzkJz/JEedHjhzhL/7iL/jgBz9IW1sbVVVVuFwuLBYLsixjGAbJZJJYLMbk5CQdHR2cOHGCAwcOMDw8nLM/l8vFAw88gN/vp7+/H4vFkg1EXg2mMDe5Icx8GjUxMTG5lbAXFaG43YT7+4iPDiM77EQGL6InNXwrV3Lxud8ydvI4ruoagp0dWHx55K1eg6u8HEdpKcHubpLhEKIsY6gJ1ODCuxYuNYIgsKqxjPJiH9s31vPsy6d5/WgngdHgoqPh86HIEq31Jey6o5kdmxqoqypAvknSHlMC3cq6dStobqlgeHiKwcEJLl4cp69/lEBginA4mi4xENOpnVJ2Bnlm8eFimV7npWmposhEIvWjqqkfRREpKHDT3FzOippCqqoKqajIJ8/nXBILxGtBURT279/PH/7hH2KxWHj88cd58sknUVUVWZZJJBLEYjEOHTrEa6+9RllZGRUVFeTn5+N2u7PFo9FolKmpKQKBAH19fQwPDxOPx7OiW5IkNE3Dbrezb98+7rrrLkKhEC6X65quS1OYm5iYmJiYXCPhiwN0/vhHTJ59F0GxkBgfQ3a4QABf2yocJSVMnjlDsHU1wY4OHOUVOMvKCPX1cuHxfyHY3YkgKyRGhtPdkZf6jBaHIAjk+5zcuaGetc0VHDnZwz89+TuOnelPd0C9epwOC/ftXscn9qyjqjQPa7oD5s0gyjNkjtfpsGKvLKCi3E/yNo1IJEEoHCMQmOLt33fQ2RlgairV4j0l1C9H0CVJztZhzVWLlRLgZKO9qqoSjyeIxeKoqpqOkOvZWi+bTaGsNI8771xPc3MFbrcdj8eO1ZLaz80SIZ+JIAjZXiYZEW2329mxYwebN2/mm9/8JqOjo+i6Tjgc5vz581y4cCHnQSiz7lx1cQCtra3s37+fJ598kpGRkWxTwuvR98QU5iYmJiYmJtdI74GnCfV0sfLzX8TX0ETPwae49PLLCAjYfHnYS8uYOn+O0aNvEx8dpuLDHyEZDNL9858x9s5RVn/tITx1DVx4/J+5eOg3S306iyYjRGRZIs/r5IMfaKatoYyf/+Yo//7iafoHJ4gvoqGOKAp4XFbWNFfywEc2csfa2pyW9DczoiggihKyLGGzWcjLc1JR7ue21VVEowmmpqL09I7Q3RVgZCRIKBIjFlOJx9V0tDtGMqmlizoN0A00Q0fXMy5oetpMQURRJLxeKzabC6fDitfnZMWKIpoayyku8uBy2bFY5CXzIH8/mHmN7Ny5k4MHD7Jq1Sq6urr48Y9/zMTEBEVFRWiaRiAQyJlVyIjwTG2cYRgoikJ5eTlTU1OMj49TV1fHl7/8Zb74xS/y5ptvcvvtt8+576vBFOYmJiZLjiBCcfnSuSlcCV++eas0mUnKjUVIWdww1XEBiy8Pqy8PNRImNjwMRipSLEgSBRs3MXrsKEOvv4bi8VG0aTPJaJTYcADZ4cBZXokaDpGYunlSWN4LURQoK/LyXz+1jS1ravnt6+/y8pEL9Fwcu2IE3WFTWN9axQe3rmTn5iZKCj3LMo/8ejHd/EBRZNxuO6WleWzaWE9CTRKLJYjHkkRjcWLRlEBPqElUVSOZ1NE1nbThJpIoprrKKhIWq4LNpuCwW7DZLNjtVmw2BUkS09HhWz+1VBAE6urqqKurAyA/P5/m5mbq6+u57777OHnyJI8++iiSJLFhwwYGBgbo6OjA4XBw++23Mzg4yLvvvkttbS0PPfQQY2NjPPHEE7S2tuJ0OpFlmb17917XYzZHGxMTkyWnZa2L//a/apb6MObF7c31ADYxwQBD1xAkGUEUyWtuYeA3v6L9sW+DJJGYnESQ0kOsIOBb2YLscBDu7aZm/yew+v1osSjOyirGTxzn1Df+L4IiEx8dXXYuLFeLIAhYFJkNbVXUVxeyc3MTTz13nGdePk00ps65/IoKP5/7+BY2raqmojQP2y0SJV8MqbQVAUlKebQ7HdZsFHe6m0omu2J2X5Ds/3Iupf9on+Nc5Ofn89WvfhWfz0dlZSVtbW387Gc/o6mpiYceeoj29nY+//nPs3r1ar72ta8Ri8X4y7/8S5qamti5cycej4etW7ficrnet6ZKgjGXRYaJiYnJDeRmuQ2ZA5tJhvj4GKe++Q0EQaDtz/87elJj+K0jhHt7yFu9Blu+n8TUFN6GRiwuF8l4nLGTJ1AjEXxNK3EUpRxX4pMTDB0+TLivl7yWFuzFJUQDAfJa27D5/Ut8ltePTErAZCjG4aOdfP/Jw5zrChCNqwhAfp6LPdta+OSeddRXF6HIl9uhm5hcL2aONYlEgoMHD1JbW8vq1atJJBI8/PDD1NbW8sADD2C323nzzTeRZZl169bNahj0flyfpjA3MTExMTFZBFo8Rt+vf0XPL35O+Yf2sGL/JxAVJd1syECYHklLpylk3pv+GqSFQiavNdPHId0B9FYUpak8XoOLgQle/X0HXX2jyIrExrYqNrRV4XLYZkR9TUzeX3K68JLyIhcEAavVmuNpfqO+j6YwNzExMTExWQSxiXHOff972AoKqNi1G3txca4YN7kihmGQ1HRUVUMQwGKREW/RhxETk8VgCnMTExMTE5NFYOg60UAAi9eLZLOZYtLExOS6YQpzExMTExMTExMTk2WAOfdmYmJiYmJiYmJisgwwhbmJiYmJiYmJiYnJMsAU5iYmJiYmJiYmJibLAFOYm5iYmJiYmJiYmCwD/j+HoIDj7AsL/wAAAABJRU5ErkJggg==;" parent="1" vertex="1">
          <mxGeometry x="210" y="193" width="510.13" height="44" as="geometry" />
        </mxCell>
        <mxCell id="IH_eHasgbrQrR9ba0ONM-58" value="" style="whiteSpace=wrap;html=1;dashed=1;rounded=1;strokeColor=#757575;fillColor=none;arcSize=6;strokeWidth=2;" parent="1" vertex="1">
          <mxGeometry x="100" y="280" width="630" height="430" as="geometry" />
        </mxCell>
        <mxCell id="askfaeidy0MYPpgIz7Vt-1" value="" style="shape=image;verticalLabelPosition=bottom;labelBackgroundColor=default;verticalAlign=top;aspect=fixed;imageAspect=0;image=data:image/png,iVBORw0KGgoAAAANSUhEUgAABLAAAAFaCAYAAAAOxqSMAAAQAElEQVR4AeydB4AcVf3Hv7/ZvZ4KKXQIJKQDgdBrAOlVIYIKioViQUEgNL2cSjog8LfEgr0FGxZQRAOKgBhKkksPCb1D6vXd+f1/74KQkNzd7t283dnd77vfu92defMrn5md8ps3bwOwkAAJFA+B2tWVmLXkAExffEjxBMVISIAESIAESIAESIAESIAEIiBAFSRQ0ASYwCro1UfnSeBtAqqCW+q3Q6/mjyKln0YQvPr2HL6QAAmQAAmQAAmQAAlERoCKSIAESIAE8kWACax8kaddEoiKQG1tgOmLdkWrfB6hXgfRlbh6xOqo1FMPCZAACZAACURKgMpIgARIgARIgARIoBsEmMDqBjQuQgKxIeCSV+UfHAXBlyBynfn1PILwz/ZKIQESKGICDI0ESIAESIAESIAESIAESo0AE1iltsYZb/EQqJ2bRM3Ew5HUmUDwSQus0ZJY/8TGMfX2ntI5Ac4lARIgARIgARIgARIgARIgARIoIAJMYBXQyoqXq/QmrwRmz6tGzY5nQ+X/ADkJgFpdjTR+izoJ7T2FBEiABEiABEiABEiABEiABEiABCIgEA8VTGDFYz3QCxLInMDtKwZibdUnoeEsW2gfq04aAfknmkfMBwsJkAAJkAAJkAAJkAAJkEC8CNAbEiCBHhNgAqvHCKmABHJIYGr9UDS3XQXIlwDsZhUQcb2vXkGQ+DnqJAUWEiABEiABEiABEihCAgyJBEiABEigtAkwgVXa65/RFw4Bwaz6A5EIXOLqUnN7gNVNotoKwYPY2Prkpgn8TwIkQAIkQALbJMCJJEACJEACJEACJFCwBJjAKthVR8dLhoAbrH3G4pORDuqgeg4Ufd4T+3oguBN1Y1rfM50fSYAEIidAhSRAAiRAAiRAAiRAAiRAAvkgwARWPqjTJglkSuCW56tQPfh8S1rV2iLHAlKNLUtoSa0HUJmYt+XkGH+iayRAAiRAAiRAAiRAAiRAAiRAAiSQJQEmsLIEFofm9KFECNTWb4fWdZcBWmsR72+1wuqWImhDEHwDlw9r2XIGP5EACZAACZAACZAACZAACZAACRQ6Afr/LgEmsN5lwXckEB8C05fuhBq52pJT1wHBEHMsaXVb8iD6jnh4WzM4jQRIgARIgARIgARIgARIAERAAiRQJASYwCqSFckwiojA1GV7QsOpULkCigGAdvw9VZ2BS6StiKJnKCRAAiRAAiRAArEjQIdIgARIgARIIP8EOr4wzr9v9IAESotAbW2AaUvGIpH+PgQXWvBbPzJoE98VfQyTRv/93c98RwIkQAIkEFsCdIwESIAESIAESIAESKBHBJjA6hE+LkwCERG4fUUFqs8/GgHmQHEMuioiaYQyratmnE8CxUSAsZAACZAACZAACZAACZAACZQugaB0Q2fkJBATAtOX9kZL29nQ8BdQHZGRV6E+hYq1f8mo7buN+I4ESIAESIAESIAESIAESIAESIAECpIAE1hZrTY2JoGICXx94WDTeClC/ACCwfY+E2mDhv+HR15ozaQx25AACZAACZAACZAACZAACZAACWRLgO3jRoAJrLitEfpTGgRUBdOXDkdL4stAON2CrrSamSjqkcBfcNfEdGYLsBUJkAAJkAAJkAAJkAAJ5IEATZIACZBAhASYwIoQJlWRQEYEZs8rw/Tlh0N0hrW/1KpYzUwEbRC5Ew01azNbgK1IgARIgARIgAQKmQB9JwESIAESIAES2ESACaxNHPifBHJDoLa+F9bVnAFJz4TqKWY0u++gymJA/oa6PVrAQgIkQAIkkAkBtiEBEiABEiABEiABEigCAtldPBdBwAyBBPJGYMoTA1ETfNQSV181Hw60mrSahUga0F/YAi8BomAhgZwRoCESIAESIAESIAESIAESIAESyC8BJrDyy5/WS4XAzKVDkKj8HBTXADIcQMJqlqJLEIb/QOMvGrJckM1JgARIgARIgARIgARIgARIgARIoKAJFEwCq6Ap0/nSJeAGa59Rvx/C9LUGwY13tRug3fjeSWjL/w4VeBp1de69faSQAAmQAAmQAAmQAAmQAAmQQPERYEQksC0C3biQ3pYaTiMBEtiKQO3cJGYuPQoqdVbPs/kDrXZPBMuBYC7WjfY7ePu0eX3xtad2xsXzyrrnKJciARIgARIgARIgARKIAQG6QAIkQAJFR4AJrKJbpQwoFgRqV1ei16BTzZepgJwAQR/0qOi9SLUtRl17T6weaep0YakcjmT5pRhWtX+n7TiTBEiABEiABIqeAAMkARIgARIgARKIEwEmsOK0NuhLcRBwvzRY2fghpHELVN1g7ZU9DGw1wnAuWse83kM9nS9eq0mEGAXBpQiDMzHt6b6dL8C5JEACJNAFAc4mARIgARIgARIgARIggYgIMIEVEUiqIYF2AtPm9UV18Hkk5GaIDLFpWf7SoC2xtdwPqXgSvntf9anfEYnEoRDZHoKzgaajtnaFU3JNgPZIgARIgARIgARIgARIgARIgAQAJrC4FRQ7gdzFN3VBf0j1TEDqoOgHQNDTongZInMxadiLPVXV5fJp2Q2qx1g1v3U4EJyFaU/v1uVybEACJEACJEACJEACJEACJEACJEACngkEXetnCxIggU4JuF8avH3FLkgk51i7TwGasNeei1gaDHgQSD1mytSqP7nl+SpocqwZ2NuqhQCB6NlA81Ec0L2dCP+RAAmQAAmQAAmQAAmQQAkQYIgkEF8CTGDFd93Qs0IgUFtfjmmLxqOp7X5LNx0fqcsqr1sm6QFcM3ZVpHq3pSz91g7Q8IQtZ0l/BMGHsWfNCPNDtpzHTyRAAiRAAiRAAiRAAtskwIkkQAIkQAJeCDCB5QUrlZYEgdpH+6AmcTok+KPFO9xqhCIhBP9BqP8ypX57X9VqACnb1ewdaba2FA0tKZd+H6Yv67XlDH4iARIgARIgAX8EqJkESIAESIAESIAE3ksgeO8EfiYBEuiSgOCmxTuiuvenoPpdS/wM7nKJrBvoGtP9Lzy5eFnWi2a7wPYreyEFN2D7gK0XlSREPm6+jMW5c6J5NHJrI5xCAiQQPQFqJAESIAESIAESIAESIIGiIsAEVlGtTgbjnYDrrTSlfiQS4SSofNns9bcatSigCyDh33DXxHTUyrfS15DazpJUJ281/Z0JMhqCD+LgfX3E+o6V+L2hRyRAAiRAAiRAAiRAAiRAAiRAAnEhwARWXNZEMfpRbDG58a5qFh2KRFALCT5hSZ0+nkJci1AeQt/mRZ70v6u2dm4SCRlhE/a32rGono8wPASz55V13IhzSIAESIAESIAESIAESIAESIAESpJADoJmAisHkGmiCAjU1vdCdfIkaFAHxRkWkZ8xocS0AysQhH/CJePbzI5fqd6xChqeDmhlp4YEA63dZ/BG9TYeM+x0Sc4kARIgARIgARIgARIgARLIgACbkAAJdE6ACazO+XAuCQBTlmyPyuA8S+BMNhxHQ9B5sscadV9kgyWTHkJVxfzu68hiyVC3t5TZKZktEUxAAmdhjnIsLLCQAAmQAAmQAAnEkABdIgESIAESKGICTGAV8cplaBEQuGXZzgjCSxBgkiWu9jONSav+JNQXkNbf4vJhLf6MvK3ZDcqeDI+AyG5vT+niRSuswRfw9MLd7ZVCAiRAAiRQlAQYFAmQAAmQAAmQAAnEkwATWPFcL/Qq3wRUBTOeHoa28FpL8HzW3BlqVaz6lEYI/o3K9U/4NPKO7lGjEghxPqCZ7wcCDEOQuAKOzzuK+IYESGALAvxAAiRAAiRAAiRAAiRAAiQQOYHML1wjN02FJBBTAnPmJDBz0b4IW6ZbcucC83JHq/5F9E2E8nNceViTf2NmoSbYHSpH2bvMRS3FBnwEM5cdlvlC2bfkEiRAAiRAAiRAAiRAAiRAAiRAAiSwOQEmsDanUTzvGUl3Cbhf5Vu176GW2JkNkZNNTV+rORBtM5uPoPmVR3NgbJOJMPwABN0YjF76IUx/BbffU7FJEf+TAAmQAAmQAAmQAAmQAAmQAAnkiUDJmGUCq2RWNQPtkkCtBug1+HQE6Z9DggPQ1S/zdakwqwYbrfX3UDeh2V79i4s1CC7stiGRQ9Gwh+ud1m0VXJAESIAESIAESIAESIAE4kGAXpAACRQCASawCmEt0Uf/BNyYTr0WXQ7Fz6zuCs3pL+0pIE9gSP0/kKtStegwqAzvtjmRSgS4BlOeGNhtHVyQBEiABEiABEigeAgwEhIgARIgARLwTIAJLM+Aqb4ACEyeV40ZS76JMLgViqo8eNyGQG7DxInpnNkO5AJkM3j7ex1zCT9gFySrrjE98t7Z/EwCJEACJJA9AS5BAiRAAiRAAiRAAiTQMQEmsDpmwznFTuDcOQl8bfHuqKq+y0K92Gq+pB4bR/w5Z8anzeuLUM6OwF4VVM/F9OUHRqCLKkggCgLUQQIkQAIkQAIkQAIkQAIkUKQEmMAq0hXLsLogcPuKCowbexDK8StATgSQr+9CGmFiBuokNB9yI1J9BgT9sM2S7UQZDAk/j+kP9c52SbYnARIgARIgARIgARIgARIgARIggUwJ5OuiPVP/Cq8dPY4/gWlP90VTy+kI9HtQORDI6XhXW/JRLEZz2++2nOjxU60mTftEqwmrEYhWQsMjgQFnwA0MH4FGqiABEiABEiABEiABEiABEiCBgiBAJ3NKgAmsnOKmsfwSUMFNi3eENH8UCGZAMMqSV/n8DqQheivqxrTmjEu/FcPMliXtouxxJjsax4+gculupptCAiRAAiRAAiRAAiRAAhkTYEMSIAESyJRAPi/eM/WR7Uig5wTceFfTl+2NZPB5qFxrCodYzbcsRtjr9zl1ojX1frPXy2qUkgTC/RGkPwj3aGaUmqmLBEiABEiABEigKwKcTwIkQAIkQAIlQYAJrJJYzSUeZG19OcaPOgDQ64DwYgh2jAGR0PyYjb12W58zX9yjk4oTAKlE5EUGAnI6mtrGgYUESIAECo4AHSYBEiABEiABEiABEog7ASaw4r6G6F/PCNzyfBVq9Bgg+DKgbuyn/j1TGNHSIoshwT2YKOmINHatRlsPtkZ7GYeIxr8ybe+KWDxjIfIB3FK/3buT+a5kCDBQEiABEiABEiABEiABEiABEvBIgAksj3CpOs8Epi/tjdTGs4DkZPPE/dJglb3mXwSKUH+CRM0rmzvj9b2qIAhPhaAffBXVPlA9CW3JI+xVfJmhXhIgARIgARIgARIgARIgARIggdIjEBRRyAyFBN4l0N4LKH0xwvDLNvEQq0mrMRFdhkTwF1yxS3POHLp5yW6AHGi1Cn7L3oCehVkL9vBrhtpJgARIgARIgARIgARIgARKmABDL0ECTGCV4Eov+pBvWjgYbYlaqHwRIiPi1RtIgRBzkC571nyzD8hNSeMoM7QLoL6/8+XG+ySEyWMwe16Z2aSQAAmQAAmQAAmQAAnEkgCdIgESIIHCIuD7YrawaNDbwicw/qcd4wAAEABJREFUfcUuSAbfhuBjVndE7Io8DYR/RdOeG3Lm2sWWSFI91uwNsupfRAYD8gGs7zUSLCRAAiRAAiRQzAQYGwmQAAmQAAmQQM4IMIGVM9Q05J3AtCVjgZY/A3IK3HhMiGPR3yOsXIE6CXPm3ZC+YxCISyZV5Mamuv3KsUjr8fjGa71yY5NWSIAECpUA/SYBEiABEiABEiABEiCBTAi4C81M2rENCcSbwKxFJ0PwFyAYa46WW42hyEsIkn/BdUPfyKlz0nYUFLvn1CZQZevjQmx8eUyO7ZaiOcZMAiRAAiRAAiRAAiRAAiRAAkVPgAmsol/FRR6gaoAZiz+DdPALQHeyaMVqlpKj5oI/IgyWQkRzZBGYvrQ3BIdaHZwzm+8Y0n0hZWdj1rIB70ziGxIgARIgARIgARIgARIgARIgARLoBoFoEljdMMxFSKBnBFQwdUF/zFg6A4qplrzq2zN9vpeW16Gp+zBp6Iu+LW2pP32QfR5mjPKT2FP5ONp0H5w7J2F+UEiABEiABEiABEiABEiABAqdAP0ngTwRYAIrT+BptgcE5mgCM+r3RJC8zRJXl5qm3lbjLArRv0IwH/YGuSpzXNJIDoFgz1yZ3NqODoCEl+LQfXfYeh6nkAAJkAAJkAAJkEBpEmDUJEACJEAC2RNgAit7ZlwinwRqV1di9ZIDocEdlrw6z1ypsRp3eROq/0DDmNU5dfS5MbsAsh8U/ZDPIno2WsKjUFsf07HJ8gmHtkmABEiABLpJgIuRAAmQAAmQAAmUGAEmsEpshRd0uLUr+qCq8USL4WYgsFcps/dxF4XgX0jrf5DLXx50VNIYB4Sj3dv8Vkki0C+isswSapD8+kLrJEAC7xLgOxIgARIgARIgARIgARIoHAJMYBXOuipdT1UFM1cOQnXqPIh8xUAcBmihbLtvmb8PYvvmFfaaO5k53/VM2x8qQ3JntFNLByBIfxiz5yU7bVVoM+kvCZAACZAACZAACZAACZAACZBATggUShIgJzBoJPcEurRYa4mqm5fshrDtMktaXW/t97FaGCJwva8eR1r/iUvGt+XU6XT5noCMg6AS8SmXYl312Pi4Q09IgARIgARIgARIgARIgARIgARyRaCndpjA6ilBLu+PgBusvfeiEQgxyZJXnzVDu1stHFFda87+C83VS+w1d1Jba99rHQ3RfXNnNCNLOwHBNbj9noqMWrMRCZAACZAACZAACZAACZDA5gT4ngRKmoBd6JZ0/Aw+rgRq5ybx7NKDkA6+CpWPmZsDrBaYBIuR0r+hbkhzTh2vOK8/JNwfCksY5dRy18Y0PBPNu53WdUO2IAESIAESIAESIAEfBKiTBEiABEigUAkwgVWoa66Y/XY9r6p2OBmq0y3MswCtstfCEsV68//faG1amHPHE+m9gOBgs5uwGjephAbXY+b8QXFzjP6QAAmQAAlkSIDNSIAESIAESIAESCAPBJjAygN0muyEwOx5ZVi96DIgnAbFkdayMLdRwSoE+idMHt9oMeROLjZ+EoyAYD/Etug+CMsuAVRi6yIdIwHPBKieBEiABEiABEiABEiABEggOwKFmRzILka2LhQC36jvhXXVX2vvoSMyqlDc3oafDTbtUST7zLPX3MpuvV3PpkOg6JNbw1lYk8D1DLsQMxb1ZIyuLAyyKQmQAAmQAAmQAAmQAAmQAAmQQKETYAKr0Ndgt/2P2YI3rRqMjcH3EeJSCHaMmXfZuvMSAvwGV+7alO2CPW5fFuwKlaN6rMenAm3vebUbEFyBuZr0aYq6SYAESIAESIAESIAESIAESIAEioMAE1jFsR4LO4pZ9aNQ1vIrC+JMS17Ft+eQOZiBtFqbJ7Ex/Ke95lZueb4KQWosoMNza7hb1sptqQl4bAkHdDcQFBIgARIgARIgARIggZgToHskQAJ5J8AEVt5XQUk7IJi65Bikg19C1Y13VVEENN6ApH+CujEukZXbcBo3DEKox5nRAunVJDtZwvIzqH200JOWhpxCAiRAAiRAAiTQFQHOJwESIAESIIGeEGACqyf0uGz3CdTWl2N6/YUI9E5TMtZqMWyLaUvELUHDmHssnhyLCsraH710Cawc2+6mOdUEFGNR0+8iwPzvphouRgIkQAIlRIChkgAJkAAJkAAJkEDJEiiGpEHJrryCDNyNf3RL/XaowZVAMMViGGK1WGQ9FLNRJ2HOA/rG6zUQOcLsDrBaSDLYkn4TMWt5ITz2WEhc6WuHBDiDBEiABEiABEiABEiABEigEAkwgVWIa61QfZ6jCXxt2R5oS9xgyatJFsZOVotF1BJIS9E86u68BLThte0Q6qk5sR25ER2NMPwo3BhekeumQhIgARIgARIgARIgARIgARIggWIgwARWHtZiSZp0jww+s2RflId1gH4Win4ortIK1W+hTnI/9tW5cxLQxJ4QOaRAkfZFqCeibcMRxlAKNAa6TQIkQAIkQAIkQAIkQAIkQAJbEeCE6AgwgRUdS2rqiMDkedWoDo4GpA6CjwBwv0BnL0Uly9BrwO/yEtGoUVUIwtMsMViZF/tRGBUZaf6fgyn1g6JQRx0kQAIkQAIkQAIkQAJFQ4CBkAAJkEA7ASaw2jHwnzcC0+b1RWXV+y1x9VWonga1d96M5UuxhBbVHfjMoI158aA63Q8QS2ChgIta8k2ORSJ4H2q1QH5FsYBx03USIAESIIESI8BwSYAESIAESKDwCTCBVfjrML4R/N+S7YGqT0Hky5a4Oji+jvbQM9GlSNf8podaurd4rdp3uGw8BHt3T0GclpI9ATkD1cv2AgsJkAAJxI0A/SEBEiABEiABEiABEsgrAbv4zat9Gi9WAl97amc04gaIuMHahxVrmBafItRv47rd1+QnxkVJs3ueJQjFXgtcLBknOAZIn4iZ82vAUnQEGBAJkAAJkAAJkAAJkAAJkAAJdJdA0N0FuRwJdEhgSv0oJMtnWVLlMmszwGrximI5JJGr3ldbc+wd7AjIcSieMtCSgmcjTIwGtAiScsWzYhgJCZAACZAACZAACZAACZAACeSTQIklsPKJugRs19YGmFZ/IhLB7ZaEmGgJiMqij1rxQzS+/BryV041zsWVJAz1IEBOwazHtwcLCZAACZAACZAACZAACZAACXSLABcqNgJMYBXbGs1XPLPnlaF64kchwTQAx1pSpQS2LVmFQH+DumPSFnPuRVWQxkdzb9izRZFqQD6EdOVY1GoJbEdgIQESIAESIAESIIF4EqBXJEACJBAjArw4jNHKKFhX3HhFayuvBeRLAPaxWiKPfunPIG0vAaLIR5m2cj8z66q9FJmI7GkRnY/qZTvYK4UESIAESIAECpYAHScBEiABEiABEoiGABNY0XAsXS1TnhgILZsJBJ83CHtYLZFtSl6Chr/BVfs0Wsz5kaDtfDNcbrX4RDUByHlQPQCudx9YSIAESpgAQycBEiABEiABEiABEiABlEiygWvaC4EZC/dCUPENKC4y/W68IrHX0hANf4kmPA/JU++r2npLXKlLYBUxb+lte6jLsbbv4CIOMkeh0QwJkAAJkAAJkAAJkAAJkAAJFDYBJrAKe/3ly3vB9PqDoMnvWgLnXHOi+AdrtyDfFV2DsvK7UDd6zbvTcvyuOnkSIINQ7EX1eEjbSbh9RUWxh8r4SIAESIAESIAESIAESIAESIAEOiaQswRWxy5wTkERqF1diZmLzoAE3wJ0QkH5HoWzArXY5yAoexb5GvtKVcz0eQCSVotfQr0OLY07FX+gjJAESIAESIAESIAESIAEioMAoyABHwQCH0qpswgJuKTJ1AX90av5AoTBrZbG2b8Io+w6JNU1CFN/xNrdX+26sacWM5btiFCPMe2l8f11A7qH5Z9hLyxb4xQSIAESIAESIIFSIcA4SYAESIAE3kOgNC6A3xM0P2ZJoFYD3LR8JyTKLrPEyQxAh2SpoTiat/e+knuMw2LUSZi3oCQ8G4JeebOfF8N6GRqaxuTFNI2SAAmQAAkUKAG6TQIkQAIkQAIkUEwEmMAqprXpI5ZzNYHq+uFItl0N1Voz0c9qiYq8aQz+gj4bX8gbAPcIp+JUs19ltZSkGkHyK6itL7HEXSmtYsYaSwJ0igRIgARIgARIgARIgARiQoAJrJisiFi6MceSV+OWHQIkahEEl5uP5VZLUwQKhA8ikXwcl4xvyxuEirZ9zfYoq6Ux/pUF+o4ITkaVnPHO5wJ5QzdJgARIgARIgARIgARIgARIgAR6ToAJrJ4zLE4Ns+eV4dklZyARTrUAP2jpG7HXfEg8bCreAuTvKA9WI29FxdbHqbYu+qMUi0IgMgmzFu9eiuEzZhIgARIgARIgARIgARIgARIocgKdhscEVqd4SnTmzFdqsKbqUoSYZgSOtEqB/hcIH8Hlw1ryBmPmgoFA+ggEUpM3H/JveDRScjHmzEnk3xV6QAIkQAIkQAIkQAIkQAJxI0B/SKB4CTCBVbzrtnuR3bRwMNJvXg+RL5uCva1SgDWAPIDG5uXIZwnLDgNkD6iWcvImAcH5WDX2YLCQAAmQAAmQAAmQgA8C1EkCJEACJBBLAkxgxXK15MmpWctGICk3QeRz5sEAq5R2ArIAQfIBTB7f2P4xH//cL0FCjzPTg6yWuOjOEL0ck1+qLnEQDJ8ESIAEYkuAjpEACZAACZAACZBA1ASYwIqaaCHqq60NMGXJ0QjT04DgQxZCb6sUR0BkPaAPoaHXQvcxb7V62TBA3ADuTNoA5VAchcp1Z4GFBIqXACMjARIgARIgARIgARIgARLYjAATWJvBKMm3brD2mokfQAI3WVLgJGNQZZXyLoFlEPkbJu+Uv95X7b6ER9iLG7xc7JUiGIhAL8L0+bt0DINzSIAESIAESIAESIAESIAESIAEioUAE1jFsia7E8ctD1dhXfXF0OCrQOjGFKrYQg0/NCHUx9BQ+Z+8ovjB6kpLLh5mPuxolbKJQBIq+wHJC6AqmybxPwmQAAmQAAmQAAmQAAmQAAmQQLcIFMBCQQH4SBd9ELh1dT+k+l8NxWQAwwBJguW9BFZZYu+PqBvS/N4ZOf38WtN+EIw0m2VWKe8Q0O0BOQM31R8AFhIgARIgARIgARIgARLIMwGaJwES8EuACSy/fOOpffrSndDa/FWo3mgODgCU24GBeI+02ecFaBr9d3vNtxxiDgy1StmSgOt5tS/KkhdgrjIBuyUbfiIBEiABEiCBQiRAn0mABEiABEigQwJBh3M4o/gI1Fqiatqi0dDw65a0+qwFyB49BqEDecGmz0GdpOw1fzJlxUAIXA+jgflzItaWq2xbPhb/WXSyeekSWvZCIQESIIFSJsDYSYAESIAESIAESKA4CTCBVZzrdeuo5tSXo2bpkRD5LgTnbt2AUzYj4JJWi1FVdu9m0/LzNmjZHyFG58d4oViVUZDgA5iyYkCheEw/Y06A7pEACZAACZAACZAACZAACcSOABNYsVslHrFqo0QAABAASURBVByaOb8Gz5adCtXvm/ZDrVI6J/AGwvBnuHxYS+fNPM91vxCJxDhLOA7zbCly9blVqG4/dgyk9XRcPI+9CnMLn9ZIgARIgARIgARIgARIgARIICcE3IVfTgzRSFYEoms8Zcn2CJMXQNN3mtK9rFI6J5AGZAmC5J+Q79JQuTtEx5kbvaxSOidgrOQM7Fm1d+fNOJcESIAESIAESIAESIAESIAEYkWAzmRIgAmsDEEVYDPB1CV7IJH+PCB3QNEPLBkQkI2A/ASTRmxAXosK0jIakP3AkhkBwVGQ4CRMX9o7swXYigRIgARIgARIgARIoDgIMAoSIIFSIMAEVjGu5VoNMKt+PAS1QPAlC5G/0GYQMhAFwmVI6x8yaOu3yfRlvaDBvhAd4tdQUWnvb9G837b7faAq9p5CAiRQagTmzEm0J7FvXd0Pvqp7LL+2ludPpbZtlUK8jJEESIAESIAEYk6AJ2AxX0FZu+fGTapadCpSwRRLflyY9fIlvYCmIPJDXD/yzbxjCDAEGh4CBcd0ymplhAcC6dMwdSUHdM+KGxuTQJEQWL3f3nbs+wzamm/wVsOyj6Lvh3bcFjFOIwESIAESIAESIAES8EeACSx/bHOvefZL1VhffSFEvgrBBHOA69cgZC6yHG3p32be3lPLWg0QYm/TfoBVSlYEpAwq5yIIx6NW2fMwK3axaEwnSKBnBDR1OlS/aPUqbxVyOVKpw3rmKJcmARIgARIgARIgARLIlgATHNkSi2v721cMxNo1n7fEx42AjAWQsErJhoDKnbhh7KvZLOKlbcWT25ve8RAZaK9ZCpsbtz2B9Hkoq2cPCW4OJFBKBGbOH2Tf/8Mt5H5WfcpuCOVQfKO+l08j1E0CJEACJEACJEACJLAlASawtuQBFOLnmUuHoKn1WiD4AgS7WwiBVUpWBOQZpFM/y2oRX42TlbsC4dFQW5u+bBSzXjf+leA0JJNHonZ1ZTGHythIgAQ2I6DlB0FD13vVc+9LrTKr49BUNtJeKSRAAiRAAiRAAoVMgL4XFIGgoLyls1sTqH20j52wf9xmWNVBTHoYiW6JfC8Wva9q68sR6ggLYR+rlO4T2M6SgJchuZ69sLrPkEuSQOEQcIO3h+EEiNgNgBy4LRiDdNuBcAnzHJijCRIgARKIMwH6RgIkQAK5IsAEVq5I+7JT3esYO4E+GxDfj0ygeIu+hlR4Zyzi6xdsjyA4ynyptkrpCQGRg1Bedg5ued71luiJJi5LAiQQdwKrRo+w5NW+EORq37kdIOMxY+XOYCGBnhOgBhIgARIgARIggQwIMIGVAaTYNvnaQrvTHJwByHCw9ITA99E68vWeKIhs2VB3gIbvi0xfaSsqt/CvRGrtTvZKIQESKGoCwWGADs9hL2Q7f7IElrSMKWqsDI4ESIAESIAESIAEYkTATsBi5A1dyZxAbW2ApEwAcJrVpFVKdwgo1iNMfw91kurO4pEuc8vzVUjLAYAMAUs0BEQGQxOTMHteWTQKi1gLQyOBQiUwbV5fiB4ESG57Q4mMAhL7caw9sJAACZAACZAACZBATggwgZUTzB6MVE0ciSB4v2kebJXSXQIS3Ik+wWvdXXzz5Xr8Xjb0g+JU0yNWKVEQ2DQ+zaewtte+UaijDhIggRgSkMr9IRhrnuV236masH324ejVNNRsU0iABEiABEiABEiABDwTiFMCy3OoRaT+B6sr7W7zBKieUkRR5T4UwXpI+BN8enRD7o2/x6JLtDTrDjb1OKuUyAmkv47bV1RErpYKSYAE8ktgjiWREIxHiNH5cUQPQRiMQK3yfCo/K4BWSYAESIAECpcAPSeBrAnwhCtrZHleoLY2wBtt+wJygVU+FoUeFJVfItX8PES0B1qiWfTWFywpGZxoynpbpUROQA5HU9tHAM1tD43I46BCEiCBLQg8vcg9cj0egl5bTM/dhwG2XzkUvZ6219wZpSUSIAES2ESA/0mABEigtAgwgVVo67vvuf2QTp0GyEFg6QEBXWMXHb/G0HFv9UBJdIum37LElZ4VnUJq2gaBGzGdvxi2DS6cRAKFSUAtIZ0M3KOD++c3AJ0AtLhEGhPk+V0R3bPOpUiABEiABEiABAqGABNYBbOqzNFaTaItOMDuNF9gnyg9IaDyZ7Sll2KipHuiJpJl3UWYVO5t6/XASPRRSUcEdoWkruSA7h3h4XQS6B6BvC11x8reSMMlr/bMmw+bDI+FJseidnXFpo/8TwIkQAIkQAIkQAIk4IMAE1g+qPrSWb5koCU5LjT1u1uldJ/AmwiCP6BNXu2+igiXnIwE0qkPmkZ+Hw2CR0lA9UNYVxm33oseQ6ZqEihiAg2pYQjkMIsw3/vOJDQ8EZXNbhxDc4dCAiRAAiRAAiRAAiTgg0C+T/p8xFScOmvry5HQI6E4szgD7ElUWS4r+gAQPoW6Ma1ZLumnee/H+wFyOlhyQEC3g8oXMHVB/xwYowkSIAFfBNwxUXQ0oPv5MpGdXjs+BzIE7YPKZ7ckW5MACZAACZAACZAACWRGYFMCK7O2bJVPAtUVgyDyeXOht1VK9wm8BchfMLDqecSlhJVHmyvsVWcQ/IuUAcFRSASWCFbxb48WSIAEvBDoW+Z6JB8KxXZe9GevdDA0fQxWrcrXYPLZe8wlSIAESIAESpcAIyeBAiXABFYhrLjauUlo6jxz9RCrlJ4ReBSSfgwXDWnumZqolrYkigYfi0ob9WRCQO2CVy7AjCVDM2nNNiRAAjEkkNI9zKsJVuMjYolxTW0fH4foCQmQgE8C1E0CJEACJJB7AkHuTdJi1gR6D9wbop+z5bi+DEL3RdZBcD8aWlZ2X0fES05dOMR8OipirVTXOQFLCGMcVD6MOXMSnTflXBIggdgR+EZ9LwgOML/2tBoj0ZFIpA7gD0VkvErYkARIgARIgARIgASyIsCESFa48tDY/UJdGEwyy7tZpfSEgOqTSOnDmDy+sSdqIl1Wys6Cok+kOqksAwJBX0BPxTOj3QDQGbRnExKII4ES9alBByMMT7Doy6zGScqh8gGs6V8dJ6foCwmQAAmQAAmQAAkUCwEmsOK+JqcvOgGK98fdzQLwrwkiD6Cyz4LY+FqrAUQviI0/JeWIsYeMBuR8uN4cJRU7gyWBAibg9psauMcH49lzVXEypHEnS5BLAVOm6yRAAiRAAiRAAiQQSwJBLL2iU5sIzNYyBImv2YdeVmMpBeOU6gKEqQdx5a5NsfG5qt6NabZ3bPwpOUe0ypLDx2K9nFxyoTNgEihUApUL+wLyPgDx/EETcT1qk2eh9gE+nmwriUICJEACJEACJFBcBPIdDRNY+V4Dndlft/RSqI7trAnnZUSgDZCHUVP5COJUgsREc6fCKiVfBESGIhGchZsX7povF2iXBEggCwIp2Q4qZ2axRO6bqn4Ee+yRzL1hWiQBEiABEigAAnSRBEigBwSCHizLRX0SmLxyEDS8xkwwwWEQeiayGEFwHy4f1tIzPREufcvDVQhxtmnkXXqDkDdRTUBxPFLBqVDlIz95WxE0TAIZEHC9kivKxyPA8Axa569JICPxWuPh+XOAlkmg2AkwPhIgARIggVIlwARWHNf8uXMSqG65EZABYOkpgRQ0fBINFQ/0VFGky6e2Ow2CvpHqpLJuEtBBgJyBmYv2BQsJkEB8CTQ+VYMwdS7inmx2/ql8Mr4gAdA5EiABEiABEiABEihAAkxgxXGlHTj2CKicZa5VWqX0jMAqJIM/om5Ic8/URLi0S1Bq6HpfVUWolap6RuBYW/wkTJ7HXw8zEJSuCbBFzgkIwspBEIl2zDrFeotkg9VoRfB+zFo2IFql1EYCJEACJEACJEACpU2ACay4rf9pT/eF4rPm1mCrlJ4RaLM79QtQnry/Z2oiXvrAce4XtA4yreVWS1XiFncFNPgAKmoOgvuVs7h5R39IoNQJ1M5NIKXnGoZok8yCe6H6F9PbajVKKUcq9bEoFVIXCZAACZAACZAACZQ6ASaw4rQF1NYGkOb328n0oeZWF8kNa0HpisDLSAS/w+XD3B32rtrmbr62nmrG+lmlxIvAeAThaej1NHtNxGu90BsSAKp619jNnQ9Gj0JfBXSe6X49ct0iH2avzsipUiEJkAAJkAAJlCgBhu0IBO4fa0wI9Dp/d6h8CIIdY+JRAbuhKXN+ESS4z17jI7X1vYDgOHOoj1VK/Aicg3TLoaitL4+fa/SIBEqYgFSNt2Pj2IgJtALyGgIsMN2vI/oyCmVV7oZU9JqpkQRIgARIIHsCXIIESKDgCTCBFZdVWLu6EmFoyStxA0lzvfR4vcgauyD5La4a/kaPVUWpoEbG2d1+9wtaZVGqpa6oCMjuEDkfvauZRI4KKfWQQBQE/AyK/hYEryIoe8ZefRwrkkjKBXCDukfBgDpIIAYE6AIJkAAJkAAJ5JMAEyX5pL+57YqGA+zjaZbcGGivlB4RkLQtvhQI/2SvMRIVIDgeUI5vFqO1spUripORbjoWtzxftdU8TiABEsg9gWn1u1mC6cToDcurpvMlVPV/AQrXAyu0z1GKnWPpMZi1wI17+D+9fCUBEiABEiABEiABEugmATu56uaSXCw6Au6XioLEB0zhaKuUHhPQRojehWvGvNJjVVEquHXJDnaRdBAgfHwQMS6CPnaxfBmaN+5qyUaJsacl6hrDLjkCQeCOj/0jj1vwMkJ5Hp8ZtNF0r7LvvXu1txGKyvbQijMi1EhVJEACJEACJEACJFCyBJjAyveqd48WaPpIS7icZK70tkrpCQGxFBFkNdrk1z1R42XZZhwC1T1Nd36/d+YApQsCKgcgoR/E5MfZC6sLVJxNAl4JzJ5XZvovtBqtiChCfQlNzc+3Kw5kMVSif4xQUAVNn4mZ82va7fAfCZAACZAACZAACZBAtwnwQrob6CJdZNayPeyk2e7O6tBI9ZaqMtU0FL/ADaNejhWCOZqwu/tHArpLrPyiMx0RCGw7ugTV1SMs6cheWB1R4nQS8E3grZrD7bs4InIzoW4wnauB37/9K7WperuR5B4jtMmRSgIIhgFlHMw9UqxURgIkQAIkQAK5I0BL8SEQxMeVEvSkdm4SYfoYaHgKIGVgiYCAvIZE2Z0RKIpWxeoVe5vCsQgC9ugxEAUhgp2hciXuWsTvZkGsMDpZlAREPwIfx0fBKwiwAnV1m8a92thrOUJ9DoD7BVt7iVA03A6Ks+B6XIOFBEiABEqSAIMmARIggUgIMIEVCcZuKikfMAqQD0BkIFiiIaDh93D10NeiURahFkkfDMEwXsBEyDQnqvQsrNL35cQUjZAACWxJ4JZlO9t+8zhAE1vOiOCT4iW0pZe8o6luSDOCxDz7vNZqtCJShVAPwrRFe0WrmNpKiwCjJQESIAESIAESYAIrX9vAzFdqUJawE3Mcb3dmJV9uFJndBjThttjF5MY+UT0QED4+iIIrNZBguiUeo7+ALjgUdJgEckygNX3kC2AdAAAQAElEQVSGWdzeajTyrhbX6+o5tMrSdyfZuzB81P6/aTVqEYjt/4Pk8VErpj4SIAESIAESIAESKCUCTGDlbW2vHwPIxwBUWKVEQUD1W6gb81YUqiLVEZaNNX22vj30IjDFFN8EZBRmLrnct5VC0E8fSSBnBNzjdqLnWuKn2oPN1xHgKTtetGLz0mQJLIUbP1E3nxzR+8GQ8ATMVj6SHBFQqiEBEiABEiABEig9Akxg5WOdz1o2AOnU+6G6Tz7MF6dNaUGgN8cztnB/W9ejAcTTPXrVFQGx9fcVzFw5qKuGnE8CJBARgemLDgdkL/vuJRB9eR5p+edWauvGtCKQuTb97YHd7V10EkAtnrXLjohOJTWRAAmQAAmQAAmQQGkRKLAEVhGsnFq1k9hwDEQ/WQTRxCgE/T76Nvt49KNnMc6o3wEIxkHEx2MwPfONS2dBIKhCunUKajWZxUJsSgIk0B0CrvcV5ExbtL/VaEXQZvvj5Wge8eQ2FYep+2169ONgmVJAd4eGx8KdB7R/5j8SIAESIAESIIHOCXAuCWxJgAmsLXn4/1S9bAeEeikg24ElGgKC9dDwO7jkgOh/PaqnHqqMtrvu43qqhsvnm4AmIDgb1cuOzLcntE8CRU+gbsFAiBxlcfa2GrW8ZrrvR524cbC21v34mP9YoukFm7Ht+TajB9LXbl6NR69lu/dABxclARIggewIsDUJkAAJFBEBJrByuTJnzyuDpA83kx+wSomKQIhfo6liNezKAHEqtfXlgIw1t0aCpQgIaB8gvApTn42+V0gR0GEIJBAZgcqykwDdKTJ97ypSKF5ESh58d9J73t0laUDuBdBk1YMEeyMM+RihB7I+VVI3CZAACZAACZBAPAgwgZW79SBY32sXhPiimeRjSAYhElFdA9WfYfTQhkj0RamkpmJXiBxoKqutUgqegLjv7UGQhvNsm5OCD4cBkEDuCGRuafK8agiOBYIBmS+UcUuXlHoC1w1f1ekSQfBHm7/BavQiuqspPQTTl/roXWaqKSRAAiRAAiRAAiRQvASYwMrVuq2dm0A6fT5EDs6VyRKxc6/dzV6Eie6ueZwiVgHSw6Ah13ecVkvPfdkOggsxc9XQnqvKRgPbkkCJEKipGmuRjgG00l6jlrUQ+XOXSq8avtDsLwI6eMwQPSiKMlt6H0hqH3ulkAAJkAAJkAAJkAAJZEGACawsYPWoadXA0Qjk0h7p4MLvJbAGCfk1WmXNe2ds9TnXE6Yv62XJq32BYI9cm6Y9rwQC0z4C2noRauf6uMA29RQSKFUClvhP6wSL3scYUSEgz6Ah/TC6KiLuUcO7LImV7qppN+ePggYH4uJ5LpnVTRVcjARIgARIgARIgARKj4C7GMsoajbqAYFaDSCJSVC4Rwd6oIiLbkFA8QBS8iTqxrQidiXYxVw6yi6AEvZKKS4C/Wy9nopeOxxSXGExGhLIM4Hpy3ZEEBxkXmxnNWpphuo/7HjxVkaKpdz11FqXUdvsG1l8Mh5DanbOflEuQQIkQAIkQAK5IUArJBBHAkEcnSo6n6rqT7aYzrJKiYqAYj0Q/h7Nla9EpTIyPefOSUDSe5k+Pj5oEIpSVIcixPmYsmJgUcbHoEggHwSC8GC70TPCTPs4N2lEgN+Z7sxk0rAXAHkAvoroeCThHpf0ZYF6SYAE8k+AHpAACZAACURMwMdJYsQuFri621f0gSQmA1pV4JHEy33Rf9vJ/zzUDWmOl2Pmzbix/RCGh9q77a1SipGASLV9p49DovUEC0+sUkiABHpCoHZ1JRSuV6OHx64lhOp87BHWZ+di+ifZtc+itWKIHScOwLSn+2axVAk2ZcgkQAIkQAIkQAIk8C4BJrDeZeHnXVPrp0zxvlYp0RFoAuRPCNavRixLejBEjo+la3QqSgK7mbKzMH3+3vZKIYF4EigUr8obRlgCa5y56+Fmj6YRyG8wMdvHzZNzAX3OfPIh5XacOBRBeogP5dRJAiRAAiRAAiRAAsVIgAksn2t1+sKRQHAxBEmfZkpPtzxqXB/DlYdZIitm0dfWlyOZsPUu/IWpmK2a7rrTyXJlEDkWUnES5miik3acRQIk0BWBIBhvTcZY9SHNkLbfZK140ogNgPwWvkroepylR8KNk+nLBvWSAAmQAAmQAAmQQBERYALL18pUFSBxpd293d3uKosvMwWgN2IXNQVJ34dBFVk+ChKxGx2p613WBxqeYOu9sqMmnF5UBPoj1DOwetEBRRUVgyGBXBK4aeFgBHDfocGezN6Dq/d5vVu6JfwRxI7i3Vq4i4UEdrzQI1A2f8cuWnI2CZAACZAACZAACRQKAa9+MoHlC+/0pZbEgKsVvkyUpF6R/yIMH8ZFMRz7yq2QMNkfCE5xb1lLgIDapa3oUdDESait71UCETNEEoieQHkwGiKuB5afc5I0fgyIojuloWapLfaYVV9yHJIVu/tSTr0kQAIkQAKFSIA+kwAJdETAz8liR9ZKZfrseWWAXmkn5DuXSsg5itMuQPRBNPX2eTHR/VDc44Paepit+126r4RLFiCBpF0bn4dq4a9OFuDKo8t5JuB+tTWUfaDqxr/y4Iy8hutH3dNtxaP3aEMoc7q9fNcLDgfS4zB5XnXXTdmCBEggYwJsSAIkQAIkUJQEmMCKerW6RwfX1lwEwRg7Iee4OJHy1flI64Ooi2nvq3411ZbIODvSkKmsUAiMNEfPwq2L+SiQgaCQQMYEDhm7FxSW+Ief46XoDzP2ZVsNJ0oaFfit+di8rdmRTJPgZFRXxG7fEUlsVEICJEACJEACJEACERJgAitCmO2qpi3dHdAP2/udrFKiI9AGyMNo3vgw4lrawoGAuMdGwVKCBEQ+hFYcjNq5yRKMniFvTYBTuiLgbvik0iMs8X9IV027Ob8VYfjzbi777mJrm9cC8mf4KxOQDnYHB3P3R5iaSYAESIAESKCgCaigtjbA7SsqrPbBlBUDccuynTF1yR6YsXAvTK0fihlPDsOMxVafHoYpS/ZurzPsvZv2VTdvxV6YuXQIvvbUzjZve9zyfBXcuRggKKDCBFaUK6t2dSWC8GOWwPL1S0pReltgunQlAtyPukPWx9Jx9yt02naW7QSqYulfQTpVYE4rtrPd/8dQs4slsQvMd7pLAvkgMG1hP8D9+qDs6sn8Y6iucGNY9VB9WSMQ/h6QNPyUatt3nIzKhX39qKdWEiABEiABEvBBwJIq7hpo+tLemL50J0xdtqclRvbG9IUjMWvZiPb3LrHikizT5++CmSsHYdrTfdE+7IotC1d9+FXoOo2LYzSjfgdMWzHauB6I6UsORtUHj0Bj2wfRkr4eibYfoDX9DwRYDE3YdXKwAlqxHAqrLcuR0GXtVe29m1bu5rWttBt7S5Esuw+J8DaEGy7CzGWHYfr8gzF1wQFW98Q36nvZ9azEmSATWFGund5NB9lGcwog2yEOpXh8aAVkHiTxL8S1LH68wi5wJsbVPfqVIwKKU6Ftx+CWh5nIzBFymilgAolKS/bqBG8RSPBz7DA01WP9dWNaEZQ/Yvv453qsqyMFYvuOoHwQoLE+aezIfU4nARIgARIoCQIC1wNoqiWqZiw5GjOWnYjVS8+EhpdB09PtPs8PEOgvLaHye6TTv0VCf4Ug+AlEZ0PKZkFbJyNo+RyqEudg5vKTMW3xSZi+6DhMqR8FNxbkpt5AKMlSWxtY0m8Api05DDMWnYgqOQcafAXS9mcE6f8Yk0fsZteDVn9kSahJ9vlUe783oFtec9iMLqQcIqMA+TDS+Iatu4eAskcQlD0ESX4fGxIX4+blJ2Ha4qMwa/HuaB/bG7EqQay8KWRnpizZHqFtaCLsfRX9enwRieCvuGr4G9GrjkhjRY0bA+mAiLRRTeESSAJyGVr7D23v5gsWEiCBbRJwdxbDNjuBwv7bnN/zia8jmfob3BhWPdcFpFJrgeCPUajatg6xY0h6PGoXlW17PqeSAAmQAAnkggBtbINArSbbe1VNX/oBNLVeZAmVqVD9HTS81xIov4HAklfyEXs9yuo4q5ZYgR3XsB+AQ+zzCVB80KoluvBVS2j9DJr+M0TuAeRPluS6DVVVn8TMpee1J3FQIkXtppXruTat/nRUnXeeJf2uQnsCMLjX2PzMKHzKqt3sg9irZ9FKs3KMrZubzY977P1vEOIrWN/rQsxcfCq+tnBXuN52nr3IRD0TWJlQ6qpNrQZIhsdC1Y1/VAWWKAm0mbL5aAn/Ya/xlQAXmnM52LmYFUrMCegBdvCZiF7v574g5muK7uWRQHVyAESOBaQaPorir2htfj0y1ds3rAfk7wA2WPUj7uTe/RiIH+2FrbW2vhemL51gd+o/zLoo7gy29m/m4tzc3J26YE/MWPIBL9vIjPqTcEs9n7Doak/iLsjddZGP6nR3ZT+O82sf7eNtu5xef0Z7LxlfcbubTTOWnIbqJZ8FElOgoSVV5Ftmzj110t9eo5BKCI4H5Dao/hypthH2KijeIpj5So0lhY7H9MUXQ8MbIcGPLHFkbDHJkny+hlVAlmWA+XIhwvB7CPEDlCW+jNXLPoMZy45s74WXpbIomzOBFQXNXst2B+QMAMOsUqIlYBcglt2/YdTL0aqNUJt7lht6VoQaqargCchFSCfGoVBPtgqePwOINYH274XsAshx8FEEaYj8Dv3RGJn6S8a7mynLAHkCvorIUUg37wW1O7K+bBSq3ipsB/eICnAHWAuPQVpPsvXmXyR5EFSnmKHoGYVyNVoRlwtLCzGGcuvqfpix+BJUL7nBS52x/EzMnF8Tw8g7d6mybJBtl1OtUfTbJYIvQbG/6Y5W3GNjMxadi0rcaL7faspdPQuCcnvvWcLAs4H8qXeDrs9YfAHCt75k6+1m4/l/Vi8zh/pbjbMMNOc+CYS3AemZaG670ZJvF+QrkRWYM5SeEHADt4f6PtsIjzc15GkQIhR3EbIUSP4pQp3RqwpTbgyX3aJXTI0FS0B1Z0jwRdyxMgcH+oKl5M9xao43gVkLqgE9xE7advfk6BJIaj4uaU86RWdCy16BhvdFp3ArTX2Rspshkx9IbDWn1CckA7G7070AsZN81oLjEEglclECd3Gt/eBjOwmC3vb9T4KlYwKpFvf9/Kw1+IqXKqlz0RrYfsC0F5KUVwfmrp/tEugLddu9WYhKZiw5GuuqvgKVqQiCG03tUKuUbhOwm1LuVwCnL/4C2sKZpmaKnf9cA8U+gBTePkVxsPlu24VMQWNqJqYt+RR+sDo3+3hsKu4Ltekd/3ePQE2D6+b4AVt4B6uUaAmss4ucP2HSiJeiVRuxtiB0jw9GrDS/6mg9EgInoTV9eiSaqIQEiolAWN3fkhFnor0nlpfA7kFa34pcc9OeG6DhPEBegK8iOB/VO1b5Ul+welOhwjYasJBAZwTULqs6m9+Tee37q7KeaCj+ZVOtgnZOxR9qUUZ465P94JIsqtOgcoXFuJdVsUrpLgE3NO+u5wAAEABJREFUvtX0JZ83nrebihvsuvZ8KHa2WgRcdRcEaglrrcXrTXdg2qKJOHdOTm7AMYFlW1O35dbV/RAmTrLlD7O6ufB9zwnYySqeQxl+2XNVHjV8df4QO6c+yqMFqi5cApUI01/F9KW9CzcEek4CERNwA4AG7eNbHBSx5k3qBOsRhv/AXmPXb5oQ4f86CQFZZSegD8Nf2RMBjvWnvkA1pyrdOYGrBRoA3c4dAfG3nTB/1fVqDIrgurzrKIuvxdRF49Ba7h5zvNaCO9hqhVVKdgTebe3O/acv/gQ0/RM7ZzCm6vIFA95tUCTvFGJ/LiH3MYjchAPG3IapS7z/qBkTWD3Zflo2joKEF0JQeN1ZexJ3bpZthMhduCLGY185DuVJ18Omj3vLSgJbEVAZAYRf2Go6J5BAqRJ4fVEV0uFpFr6f46biPwiCVYjq1wfN0S2kpuJ5CP5p09JWfYhAw0/6UFzQOssafPatKWg0dH4zAqq62afo36ZFoldKje8S4LvcE1DBtCWnQ+TrZvsCq4OtilVKdwio8ZzlEjjpu6Gow6Yfq3FMu6OtkJZxj0IOheAiBPrd9p587sdXPEXABFZ3wd60cDAkcS4ge4PFAwFdA2n9ngfFEauU80yh+9LaC4UEtkVAP4tZK0Ztaw6nkUDJEWirroEEduz0FLnIfdDgFU/agcuHtSAti0y/q/biQRTHYeqyPcHyLoG2SoWl9t6dwHfbJMCJJJBvAmoX8Pn2gfYzIzBnTgLTFtvxWGfZ/vUwQGrA0n0CqgFmLJ2NtP4akKON6c4ovVJtIe9n9UZUyrdxU717bx+jFSawusOz1jbQIBhti37Cak6e9TQ7pSQpy1r/GFfv83qsg56+zD0CM9R85J0Kg0DpiIAMQLqttqO5nE4CJUPAjY3Q0naCxbujVR/yHFQexzXDN3ZXeUbLpYMVEHkko7bda1SFIOXuhHdv6WJcqkwtgWW1GGMrhZgUL+ckTEmoPzs81cuMLTllxinPrWrry/HMmA/bDaU77HjmrmV4M74nq2Tm8oMtebUC0AtNzR5WSznH4nYC2yOQc5EMfoVpi86ES5YalKiklOF2n2H1kzvYl/1yU8CxbQxC9KKtSCZvBcTjiQh6XiR1tinx8xiMKaYUDQG3nz0eM5ecXjQRdRwI55BAxwRGjUpAw49YA7EavYg8hLD1WTs++z123Lj3S1D9LxTRj7P1PyoSfNJs+OH0PxuF9Foe+l2nhcSi8Hz9E4aM/GHhuf0ej1UFYYrfyfdg2eojCW2FJHYTZs8rQ6/kWXaM+aYlXAZZdeepsXOzIBxy+4XpS+6Apu4zjq7ndEVB+J0bJ8shGGam5mDV6Ctw+4rIhtzhBmtUsxKXsdbKo2yFnJnVcmycDYHv4arhb2SzQM7b3r6iAqGcanYj/rUo00gpQgLSD6HeiM/ZdlOE0TEkEsiIQGXZLnZfwvXAyqh5do0kRBj+E9u1Pp/dct1pbTdXAq1HIE90Z+mMllEdhKmLmPT+H6w2S2BxFKz/0SicV5HXoI0f8TYm3XtJ+B4DCxzF/b3It/zMa/ctecTwk0terak6xY6XPwIfGUS3S60GuPWZHTFjyVzLCVxmN7QiS85026c4LqhGR8QSWTITzakZuGmx64EvPXW1+BJYPSXS1fJlOthWxQ1dNeP87hKQJrsjcHN3l87Zco2tJ0Fk+5zZo6ECJ2AHOmAodk59Bu6gV+DR0H0S6BYBaftUt5bLaCGdD8gSXDK+DbkoFeVLoOETdhzwNZh7EkHwEXB/sWlttqmdBlvicNMn/i8MAg2AfBRNB2xAzkro11KZX/XFoV17fHFaHBxiGIV7jGtdzWF23LLkFSpj6GH3XcrlkrWrK1G15GS0Nd5nZo+GasJeKV0RUL0ESfwIMxbuCfRsP8EEVlewN59fOzeJsuTHbdIYqxQfBAQ/wbVjnvOhOjKdbhyXIDjZvnz9ItNJRaVAYDuIXoA+S4eWQrCMkQS2IDB5XjVEPrTFtOg+KBA8AglWRqeyC02XD3OPDz5hJ66+enwFxutoVC53Y2l04UwJzHaPEIa2mksg1CIJsQWKWyEt/0KdeM4qbUYsCPxtJGJ20m3uv70pPmFERU5ALWHwzKixdsz6gUXa1yqlOwSmPd0XVQ0XQGz/pmA+IHuG70OY+BVmLR+e/aLvLhG8+5bvuiTQZweXMbyiy3Zs0E0Csg6S+kY3F87dYgeP2QWhugHcq3NnlJaKgoBiT6TCSzD7JW47RbFCGUTGBKqqTwBkN/gpa03tPEwanpuBos3YJimzBBYWbXrv47/W2DHR/dKtD+WFpbMtrRDRGDtN1/5HQOAe9rwfEnwLV+/b8L/JuXv1uZmwC1bX65GXll0zykOLry3bAxq4a6whebBeHCZnLRuAoOkyBIlaC8iN7WQvlKwJCA5Auu33mLl0n6yXfXsB7mXeBtHly+33VCCtX7F2zFobBC8iuBt9WpZ40R2lUg2Oh2BwlCqpq0QICPoAciLeeusosJBAqRBwd35FXe/lTiLuwSyRJ4GUJZLE55Xr1g42vuh+cWi+zWi06kOqIHIy3B1fH9oLSWd5jUIsMVJIPpeqr4rlKJMpmLfg1ZwjSKfBrSTn1Lc06Pb3W07hp3wTmPpsf5Tpl82Nw6xSukPgplWDkU59BipXQHXn7qjgMpsTCIYj1J9iav2Bm0/N9D0TWJmSat7jONtoz820OdtlTWCtbcjfx8UHpLJeMpcLuJ4zYXi0mdzeKoUEukNgKCQ4HzctjDYJ2h1PuAwJ5ILAzJV7QjHBjyltg4ZPorxmuR/9nWitm2DHK33UWqyy6kPcOdqekCZ3zPGhv3B0BtUhNMcJysKhEydPX4HqrUjJQtw10bJJOXZNAkt0etxO0vwVwhyvUZrrKQFVQdB4KQL9KFi6R8ANPJ5ouhyQz1kdBJaICOgYBMFtmLF4/2wVupOjbJcpvfZft6xr6DLXSl7+1v59QMV85PERgYxCa2wpB8T1wkuChQS6R6ACgqOQDE4BB2juHkEuVVgEtO1DgPgZMFblRSiewBVD3GOEyHlJB/Mgsszs+hrnp7/pPgNzSnyQ2HXrDINapcSYQAsEv4Ik/ohJI3I4cPtmRALbG2z2Mdq3AvAJwq6Rqm0FXbdii1wRmLbYbh7pVfbNsA04V0aLyM7MlYOQ0Msh8mmLip0XDEKEYtukjodKLaYtGp2N3iCbxl20Ld7ZLU0fh3tes3gjzHdkG6D4MZr2bMi3I13aX/vD9RD9uW0P8R5ovstA2CDPBHaDyJnovXzvPPtB8yTgl4B7/E1xphlJWI1eBPVIJp+IXnGGGm8Y9bK1nAfIW/BTqoDgADy3vLTH2+hXE0JV/SCm1kgIKB60C70fWfLqpUj0xU6JCpjB6nytJFoF0nkTzvVAIOyA+q1L9kBCvgSIzx+dQtGWqQv6I93yeaN7qcUYZ4YKkfXmo12bykJ7tXMSvF1lPiCrILD5EiJ2Rey2gB6HAFfilmU7Z+pekGnDkm03o34/IPgoRPycfJcs2M0Dl7mQ4EnUSWrzqbF8X1cXoqHqbihuN//etEohge4QsH2vHI4wPA3u19m6o4HLkEAhEAgaj4RgT3NVrEYrio2mcD7Kg9X2mj8RPAionTj6ckF2QlpP8qW9IPS2hHaCHmhB+FqKTgoWI9Dvoax8cVGHH/p4hLDYiEW/qy82QhHHIwhkW9AFrfppu1452I5Pds4JlmwIzJxfA0leCRFLXkm/bBb12LbFbuT813yaZvVys/MZCD5t69fVzyHAF+z9FxGmr36nIvgiIFfY9cbngPAz0PCzVt20nwHq68Ybsiw1UDkLbelLMv2RK27QnRF2j/eE8nlbwXtAbRPprC3ndZOANNsX6WdoTL3RTQW5X6xuSDMawx+b4TutNlqlkED2BFQHQPVMVPcal/3CXIIECoSAJiaapzVWoxfBM9DwP7h8WAvyWloX2HnCEnPBkx/hdpDwKNxSv53ZKE2ptgQWwm3Hzqn5JvCGrZpfIJ2+P+/fxVA13zBonwRyTiAMZSubMxdNsGln29Wrn8f3TXnRSu3cJMKKTxu7yyzGfB9310DkFxB8CiIftno5kumZ+O/Cb2LSyG/hmlHfwqTR37bXH+PqUb/DpFF/w3VjH3inThr+d0wa8QdcO+bHcO0mjf4m+jffgTD4MiT4qJ1bfMh03mBxerwJZ9q7Fsf5I1iz9pyum8JydZm0KtU2NUtPsZV6rIVfYZXih8CDCORJ1I1p9aPek9a6MW/Z1+frltj8s1ngWbVBoHSLwAFQPRVTnhjYraW5EAlEQMCbiulLh9v2fSAEZV5siKxAdYUbRN2L+oyVXr1vAzR40Np76pUrSUsQDEdrmd1JNyulKE1pBQdxj+OaT0PkPiD8Ma7bZ00cHYzUpzR7YHXNU6XrNmwRIQFB4j39UaYv7Q11PXOwm736Wh9pAM+a/t9ZnWH1s5YQmQiVM5CW0xGG56A96YIZ1u5eq3bdZP8LQap3+LDt0640V7e3mgfRFET/YwwvQijvh8gN6DvyR7hm5G8wadSjuNKuQdt/JEOyT9i7saYvGd+G64avMn1/wtWjf4mw4RvQ9PnQ8HwL1l3XZq/XFoxAdrW4P4bpiw/pStd7tviumpfQ/FtX94OqZV51pxKKOtehpuzLOQcNrz6fa8OR2Js04iXbwV1luuzuu/2nlCqBnsRdZdvQB5EsP6AnSrgsCcSSgITuJtAgKHycQL8BDf+Lzw19Ixaxp/Q+i/NVb74IdkcQuhtq3kzEWvG8BY0okxvthtdhWVVNHw6VzKqER6Czmtaj7GLiRDtvObnjGpwMBGdaPbfTKsFEBMHH7YLvE53W9otQ/bx9g77QSbULLbne5n9piwqdCsWLfterPo5QZ2PS6HicxwUWsc+Ay/zk4n26TN3FTsAShulwy+t5TZ9p34SDLPJyq9GISBqQ+QA+afVQ278dAncDtiz9edsvzkD/fj9Aw/DfoWnEn9Hyy3vQ/PrdSK79GVIyAwlcBk3Y8StxMML0iebb1wF5DXEsUxeZnzrFXNvBao5FXIeIv0PlOKD1AtRU/ALXjXwAV49YjUukzYszLqF17fh1uHbsw+jf/BtbV5+xcw3bfvRuL/Y6V5oExLar8ELMXDkInZQtN/hOGpbcrJbGCyzm/QG78wkWLwQEDxnex1E3odmL/lwovXbMcwjDc+2kMT+/gJWLGGnDMwHZAxqcg68t3t2zIaongdwRuH1FBUI9xQz2s+pDnrfvzYNwJ18+tGers23k8wjgeoP5eaxcUG0898P0hSOzda0o2ru7zV8csQJXjXg0qzppzCOYNCKzevXoh+1udMf1ulEPYa8Rf8deo//WcR3+NzQOvwf9ht/daW1I3Y2NL/8CDRU/77SWr/0hmpq+h8bG73ZY+/abjcb0HagJv75FhV0Mue3G2wag9h3Eneg/8pHYfA81od7CtatKsAeWP7zU3E0CdikvImLZmKUAABAASURBVO8sfPuKgfZ9/CAgEXXAEHeNdgWgduyRU9BY9TNMGvkfTBoxD9eOXoQvjn0e1498E5fs1Ig6SVkNUVdndUIKVx7W1D7vqlHP4trh8zFp+GPYa8nfgYrJCHGw6TzekmAuUeLp8XtkV25aOBiBfM8WioidacpUFIsh6QOQSn8YTSMfwjXjVuT8kWzXM8utq42v34tE6mJbPx/BpqQl/JRtarUb+8FZ0JbTtjn37YnB26982ZzAlAUjIDjXJg22SvFBQKD2dzfK31zuQ31OdV43+mmLxe662u44p4ZprEgIuP3w+SiTAzBHE0USE8ModQLNzUcbgj2suu3bXiIVuxOsT6NpxGORau2Jsrr2ZIHrer+2J2o6XFbtrER0OEI5vMM2RT9DjEKe60RJo6vqLuLc3fLOqhs2oc5u3tUNaUZn1V0ATh7fiM5q+4XjmI34zGa1ITjKNoczbavxlUB2idp7UV3+Q7g4zVg8JOXRDZcjSHrUXyyq1YEqlmDiHUe7d473ZqeODa2n2+R9rG420T5lK4I3IXI60tgFjeE3cc2oFXBPnrj9FWw/nK2+/7WfODGNa/dah+tGPoPGUXMtUfJhCMbaddQvAWlC3opxTCZ+YuZzfTO5CQn5ACpaDrcbKPNxw9hX4c4nzJG8SZ0lH6/e9zU0vvYrlAWnmh/ftuoSmfaSAxHsgDD4IKYuOaAjaz5OLDuyVTjTE8HHoDLOHBarFB8EFP+xLPd/2rPzPvTnVKftyBtH2oWUfDynZmmsmAhU252OS/HMEvdrbcUUF2MpVQJh4iRAdoCf8hqC4H47yUv5Ud9NrSsa7wPkVbgbNPBRZFeL+2C48U18qKfO4iAwc+kQKD5rwYyxVz/nsYKFCFJfynkPAQuqUxHXA8vOyTpt9O5MvvNCwM8258XVIlBqaX2k24L2SGpX9IGIHXuxW/vn7v1rAeQSNIR7tI+R5HpXuYQ7PBSXqHFjSLYnx0Z+CJK2c2D5C1KS+2P79KXXWoSHWd3E0t54FWnfT/0dCYzEVSN/iyvGrbV1p15tZqvcJbKuHP4iGn/1GSSCKwB5AbkpAsHxxuZE/GB15bZM5mYlbctyXKfNXHQsEBxv4HrF1cUi8MvdPf8rQqkvglg2heB2wkHrryEyxRIRfp5T3mSJ/4uXwPEIbYc9eZ4ls4o3SEZWAgTcBbRgPAS+jqMvI5X+e+xIfme82/ffjVB93kV2d9bHxyR2uhE3Au74kQ4/Z27Zuaz9j1pcclZkNUKpxdV2hz5q/ZHo83gNyCGwIllDVBIhATFd5W93tqpJvQ+BjLUp3ZFmKO5GYMfuSSO+i7oxG7ujpNvLuITONWNewTUjTsGNY3L7WPKUJUfbtdul5nuNVb/i9qFAAyDXorHqHLhH9hDzUlcX4qrhs5EOP2SePmE1tOpZNLDtcSJeazkUqm4r38IeE1ib47jdMtch3KOD+24+me8jJ7AAgTyESSM2RK45nwrdXYSG9B0IEr+0HaG7kMmnN7RdeAQEgs+jsnyvbe2sCy8cetw1gSJtoZhgke1u1YNIExRP4roxKz0o77lKTf8eIut7rqhDDSOhqQNRO5fPMnWIqERn1NaXo6r6fAjebwQqrEYvITYgxPdw7Yj7olcegcZ0BDo6U5FOS2ezOa8SECJCbovYd1Lgxp1UPcLOH/fK0rwlI+Q1SHATkolP4upR9ejJI4LoYXGJrFzar63fDkm90bze2apvSUPxrK2ji1GZuA11Q9b6NhidflFcP/pfQPojCPCw6fW9tzUTui8kPAlTnxxgH7aQYItPpfzBnQw2tp0CiLtrxRNDeCutEHkAbfKkNwv5VFxndw/aWqcA8k+rOfhyo7RL8UU/HJL4GL65qKb4QmNEJUFg8kvV0NCNv7OTl3hV10LwJy+6o1B67egFdoK6AHbWBT+lNxCMR83gIX7UU2tBEjh3TgI1iUPt5tnHzH9PyWO7TIbORf+GmYAo4ljcPfs4+lVKPunWvSVKKfw8xCpIS4DWcB879uxn9rPpJ9hmyyy1Y/YX0fDyNFw1/A1bvnSkdm4lqoPLjIHjlvAceKvpnw+Rz6Fp1C9j9/i1OZeRTBq7BIKPAPJvq5b8hN+iOBtSuS/m2DFuM0tMYP0PRt+ddkMgZ0Aw7H+TSuE15zEqViIMH2z/VYqcG8+RwZaxyyFBLRAuzJFFmikmAiqfxIbEPuBJYDGt1dKJpXqDG3RzpAXs40ZQaMfo5xHWPGj6Yyp2YS/hzwH1dwNDxBgL9xEx3QLy4tb+Y3e1cytLXsnh3uyrLkVb69Vwv1TlzUjcFfvYrcU9ZvoXbwKWvJKwAqGOt7zyqCx8dQmVJ5HAjWia83PUTUhlsWxxNK3Z/mA713ZPXm3VwyfiAFtM32OQ8AZcPeLPqJPQPudVemTcPfYYpj8BweM90pPZwsMsP3MSVo7bbvPmTGA5Gm7MgLb0SbYRH2tZWHGTWL0QaEUQPIxA/+NFe1yUuh1TZWKe3aucYi6tsEohgcwJCPoA4fWYsczX+EGZ+8KWJJANAdeTWdOHAZLtIwzIsDRD5H5ct/uaDNvnp1lK/wKV1zwa3wMaHoCvP9XXow2qLhQCtU/2g+hEQNyjg77OYd9AQm7El8aV8DmNCsKUL75gKSgCcXI2QICd7J7JgYAMQiZF0GbH0vnWdCquGvl71NUVdkLFAslaZi0bAE1+2Dj47rjiEoX/hXtE8+rRfzV78ey9mi1AN4yDG/YEWJ7totm31zMQpIahVt/JW73zJntlRbRERflIi8Yd+AfbK8UbAbU75zoXbpA+bzZiovjyYS2orP4bEPyfefS8VQoJZEFATkYQup+uzWIZNiWBPBPoPXhnwO4CQ7f35EmDJYZ+50l3dGrdz2AL7olO4Xs12UmcyuForvZ94v1ew/wcNwK1qyvRq2ICBB+32sePe5K27/X/tV/oRmbAk6JAPV4cijmdzdNZ1rwkhZeWOV3tgqQdFy15hYMysyshFKugMgPXjLwb7WNOZbZk0bRSS0anUidZPMdarbbqS1LGeb4xno6rhxdP8up/tK4e+QhU6yB463+TPL0OQ4Djsf3Kd27scy8zdUF/BEm3EdtdY0/YqdYIaAqQx5FqifGjH4i2XDFkrSn8NSA/BVBaz5VbwJQeEBDbVYe4HtPn7wIWEigUAmlxj7Z19xeQuojSTroh9ei3cX4XDeMxO5n6oZ3U+buYFuwLpMa2D9wbj4jpRa4JuIuwXk1DkdbPmunhVv2I6p9QXn0bCuFCN4Tanx8OTiufIHQUOq7pFsvyqdWOm3BOxARUe5vGA6CS4Q0NfRNheDuGDP9dQXynLbjIZdayPSz20wDZA/6KO/6vNjsz0DDiHnt1n/1Zy5fmJrXrXHzPu3nViWhue6ejUWknsFxXtETZPlB8yMBXWaX4IiDyMgK5Hzfu96IvE7HUO2nESyhL3wnIH+0OZgNYSCBzApYIKHMXJpkvwZYZE2DDiAnUPtrHNI4HZHd4KZq2O313Fcz4O+tlHiA+x0HsayfEh6Ox5Z0TOrCUFoGpS7dDKJfYdnC0v8B1PpLhTfjCHuv82SggzXyEsIBWVsm4atevOgCC8q4jliZr93MEyZ9goqS7bl+ELWrnJpFOn2DX/kfZdVnCW4SKN4BwFhpTf0CduwHnzVJ+FdeNaYME3zYnHrLqU0ZCE4fA/dquWQmslq7ULBpkG/A5EIwoXQg5idzuicliJIJ7cmItbkauHP00NH2bufUvqymrxSCMIScE9KOYXp9ht/CcOEQjJLBtApV97e6vWgJLK7fdoMdT19tJ0t091pIrBXVjWhHqz7yaE5kABD7vIHt1n8p7QMA9OpgIz4WouwHr6yJsLSSYjg2Yj0LofeVwBkFx9nJwsRVKVUihuFpafrokis6z7/RtmDRiQ2nFvlm01QPsXEVORIAdNpsa9dtG+xZ8B1j7C7hzgai1x0ufos/GF4znLeaWz+0qANLnoTJs/5V2+2DmSlFq68shCffM8EQLPw8czGrJiFoWWv+CK/Z+qWRC3iJQUTSNXgiVqVBduMUsfiCBTgnIICC4DnPU1wVKp9Y5kwQyIqAqSGAsgP2t+pL7MGn4y76Ue9GrMsf0+ux5u5udJB+M2hV9zA6lVAi471vVRvdduxqKLX6ZKVIEIt9EuvovBXUBlk4DXpNtfIYQXRXpqgHn54lAK5Cow9UjVufJfv7NXjyvDJo8AoKjbN8pnhwKIXIvUvgGJh2xjYSOJ6v5VHvJ+Da0ph8G5NfwW45EeWIPu5aW0k3clKUGIgwvA9QuEP3SLmntYrsI4BmUtd5lX2hFqRbXfbT/yEcQBDcBUroHD7BkScDto4/EqkXnZrkcm5NA7gjMWLajHUtdT0F/F9Ma/giQwjqGNKdfshOt++GttCe2T0TNu+NCeDNFxfEhMGtBNYLELED2hK8i+kdo4qdovrOwHh2UhO0jTLxwsUR9mPZ10evF46JUyqC6R0D1J2hsc0+CdG/5Ylhqj/K9gPBEux71d64CvADodbhhVGHdcOvp+h025g0gdL3OfXZW6Y20nIrJDyTcxVFPXS685W9fUYFk8hRAJoDFLwGFnfzIH3DFvj43aL8xRKX9EmlDQ+WfoeGtptK+6PafQgJdE+gPCS7HlCW+ftmtaw/YggQ6IxDq3nar4nBr4uvibjVeXf9P019gMto9Mv5zv07LYXandxjcuB5+DVF7XAiEyWn2fXMJ4255lMFCywD9Jp5evxJ1dWEG7WPUxH3lPLrDDlgZwPV1GMjANJt0QEDeRFD15YLqTdlBJN2eXKsBgmA/BHIcXC/WbivqYkEJr8Q1I1d20ar4Zrsx1SrCevjuhaU4F9vvUqIJrOYWd0F4HYBKqxS/BF4D2n4Er126/QYQqfa6Ic0o7/M94/FD09tklUICXREI7GJiJJLhJV015HwSyDmBWx6uevvxwVH+bMsvcethcdlfZh5mnYSQhBvY9JnMF8q2pVYhwCmo2KFvtkuyfQESmLb4PEjwCfM8YdWHNFty7A4k+z6I74xv82HAq87A9cDyZcEOxWGK2Zku8SoZdckoxw2C8Cu4ZsgrObYaL3OVS3ezfedJgHg8VsoP0Lf5D2bDVzdQxLqsGfO6nQ/eYz763NZGY0PzcNsbm5lSEneXMpTPWwKBA5/6X+9Nxvm3mLTvC/5NFZCFK3dtQkP6BkD+BiC0SiGBLghIP2gwEbcsGdtFwwKYTReLikBz/13tbuYxFlPSqh9JwyX8UZClV2q9JQT8Dj4vciaS6vORiIJEX3ROz1q8OwTfsu9blbfYRH6EVOL3cOcp3ox4VJz2qLtddVn7f/4jgcIhoKuwUe8sHH89eRqEewFyiu0/BX7KWwjbvlgwv5Tsg4G7aQddCsi98FcSSCZOL70EFvrsAZEvetyA/a2yQtOsWIsW+Q5YtibgfpWirNd5gCxBtoXtS5SADkObfpoDupfo6o9l2HanPYk9ABwDX0UbK6JfAAAQAElEQVT1n+i1+llf6r3rfW10I5L4rdnxeLNCd0Eox+D2FRVmh1KMBGq1HGl144v46j3gegz8E2Hqx7hx+IuFi9B7Bqtw0eTKc5FcWaKdLgmIHXd0OkYvbuqyaTE3cENwSHAsoAM9hek434C9xq73pL9w1G741fPQ8B/msL9tTnFGaSWw5tSXo6ZqlkHlLRSD4FckDdHf4Esl/GsXXQF2dzjbghOtGccHMwiULglUW4ujsWrRKXYQ5hmiwaDkmcAti/rbicpR5oW/3j+CX2CHkz0PbGMR+BJ3R1LKV5v6f1v1KOFEbEz18miAqvNFwCUma5bWAjIOgK99//NAeCcmjXkEhVy8PkJYyGBy6LvP8YVyGEaRmFqIIP17TJyYLpJ4uhOGIAh2geJ0+Cv/Qk1wF9w4UP5sFIbmuroQ6dRi4+3znGd8aSWwng1ONaBnFMYWUOhehu6xiW8XehTe/Xd3OtN6ntl5xSqFBLoisDck+DBmLeeA7l2R4nz/BNLBToC4JDw8lTVok3sL/qQwlVpraYc/GSPXy8VePIjIBLPR/vPSHrRTZb4IuIGHm1J27qofMxfcTQx7iVw22rbzSyD5WxT8eKWpyOG8q1AFafhKIL5rJr7vuvasorLrNmyRGwIiaTP0PWzsU9q9gmpXV0DC/QAdYzx8SCNE7kBZQ2lz3pxsa7gKgv/YJD87ZLGUJEqlTFkxECEmA4YULP4JyB9w7ehF/u0UgYUnFz2MUK6znetrRRANQ/BLIGHqD0EqPBuz57EnqcGg5IlAbX05NBiJTb1C4KWo/BF9ytZ40Z1LpZOGb7SbZ/8E5HX4Kwk7u/kwLnnc31hk/nwvEc3dCLPXglF2bnAdIDvAT2mxbfNv0PQPMWnEBj8mcqhVfA7ibnHw22UQuhCxRF8XTTg7BwRUV0P0r3A/HpUDc7E1Ud7U3zicaf75ST6L/h0qj5T02FcGdwupG7cWoc63aS9Z9SKBF61xU6oqCFKXAbATAftP8UtAsd5OpG/3a6SItN81MY1k611wGXyg8C/WimjVxDSU3eyC5kxs6Dsspv7RrVIgUK79EabPsG0x4SncNgT4AyrWvTuOgidD/tWKQsOXoPoPv7b0bAwr6+/XBrXnjMCti3dEWH6V2bNzV/Vxvh6a7iVA4ruYNNZe7VOhS9pzAGFaPFsobPWpVuNjUthRFIv3v0BYUdo3xmttv5kMdwXkaPgpGxDip6hKvOlHfQFrFV0OQb2vCHwcEH352n29s5aNtezrx00B750YBO8iuBdXj3zSu51iMnD1vg2oLJsNkZ9aWEVwwWZRUHwREAgOQZg6A9OX9s7GCNuSQCQEamsDVCR3gcixkejbtpJlSAdPFs1dzfK+rwPiElgt8FUC2R1IHu9LPfXmkIDbt7fgAksQn2BWq616EH0DKj/Bnnvf50F5flQGUNsvaX6M02o7AddpoP0N/+WRwKtIJO5D056F36uyJxD7vlBhx8Sj7eaRn3E6FY+Y7idw+bCWnrhZnMs2P4NNP1SWgocSeNAZL5WzX6pGmP6COeWr+7WppmxGYKNddNxRpCcQm4Xp4e3lQ98AUrcBcrfxS4OFBDomsL2dpp8BDcd13IRzSMATgb4nViCNYwDsZNWX/BloKZ4eqe5HOxLhAoO1zKofcReOIT5pSQ/xY4Bac0LAJYg1fSwEHzF7O1r1INoIyB+RDH5c8GPMIVfFfa14HzxXtGmnJwRkLlLJ51AnrpdlTxQV9rLNGy3573qKewmjGYK7kUy/7EV7oSu9dvw6u05Zbucjb/kIJccJLB8hdKFz7YYTIHKCtbIsrP2n+CUg8jf0Sszza6RYtYtijzHPIBHcYl/4ucUaJeOKioCOg4SnYeb8QVFppB4SyIjA+u1rbB81MaO23Wu0BhI8gOY3i+vucas8B9UHu4ck06XkMMxcMjrT1mwXQwK9zh+DAJ8AdKQn7+wGmTyOVPp2XDXcbpx5spIPtaGqcfNj2eWvQj5C2DXcoOsmbOGTQAvcuEzlr77u00h2uvPQWlWQ1N3N8v5WoxfFEiCcB/cETfTai0NjICsheNZHMMW9l7ll2c5A+hOWARzoAx51bkWgBZr6Ft78adtWczghMwLuJ1jLgwUI8XUATAQaBEqHBCoBeT+0/CCcOycBFhLIBQG1k8KK9H5mal+rfkTxX6RTK1E3wUvXcz9OZ6D12cY3sOmXeXyOl1EBlY9m4A2bxJHA9KU7IUxfaOvwKEA8dffRN207nIYbxiwES+YE3L4PeTrUZu4lW5LAEqR0Ia48rLSHI5n8QAKK4wCpho8iMtc4P+tDddHoTLW6xwhf8BFPcSewWts+COhBBq7cKsU7Af070sknUFdX2l1We8rZPUvdO3zQtt1vmqrlVikk0AEBGWIH6HOw/9hdO2jAySQQLYHJSCCAHVvhsVez/g1B8tVoHY+Btu+Mb4OI3bXVp7x6o3oOpi7gYO6bQS6It7c8XAUJTwEC9/3q68dnTUFwGxrC+wFRFFsJEn5jCtgDq8tNpj3R12UrNvBFQPEIwjYvSQNfLvvROzAwvada9SD6mu0+H0PrG296UF48Kpt7vwTVFyGSjjoot3Kj1hkPfTPq94MEZ1rdPh4OFbsXbuOU7+KZhvXFHmlO4vvMmI0Ie/3ebN1p9RWrFBLYFgHbh+vpSIZHoHZ15bYacBoJREDgXRXbr3SJkTPfnRD5u2egiSfQ+IuGyDXHQWFl2UqoPGKu+LzQ3gmJspPMBqWQCKS2H48Ql9rNq539uR38AalgNurGtPqzkUfN6RSMoScHxHSL/fOknmpJoOcEmiB4HAP3fa3nqgpcQ9+ygYCO9xOFuN6rK4qul3jUsOqGNAPygiWxIs8N2MUPiq/Uzk0iDM63wMYZtIS9UnwTEJ2LNjwJd4fZt61S0X/d7muQbr7TDka/spA3WqUULAGvjm+HtHwCFc27ebVC5STgCDS2nGX7pAHurZ8q/wZanynanryfG7oBKq4H1jN++LVrTULDC9vf8V9hEJixcC8gdSkC7GMOi1Uf8jxa5SpcP7J4ew2Izx5YKvD0UKePlZ03nWJHiLwZL3nDS5HAClwibSVPojV9JCA18FL0KaSEjw9mwjYIXgRkDSIuxZnAqtnhWOP0PtuF9rJXSi4IiP4Ifcpe8WaqVBVfv//rSCZmQvWvhiDyLpimk1IMBEQPtwuf01Bbz31eMazPOMcgwSehdnT142MaYfgQmoPiffxBRBFIPUSe8IOwXaud28l+cD3R2z/yX6wJ1D7ZD5o4BypnQVHmx1cJESQ+ji8N95k49eN6VlrTWbXOqrFY6xDuv72hkEAsCSxAmzwXS89y7dSmH3DzYXUNJLEYLb9c40N58ekMXW5gbbfj6mBBO8npYE6hTp76bH+72D/HDjFj7USAB5pcrEfFQ3bR8Tjc2E25sFdqNq7c+yUkkzdC5NFSC53xZkpAyiD6RfQu2yXTJdiOBLImMHXROFvGU5d80yyYD5HFRft4k4XYLkOGr7Tzk8etNrd/9vOvD5D8gB/V1BoZgTlzEuhVMR6Ca02nn8GGTbGdF0/BxrZ/wg4UKObiewysYmYXWWy89IoMZfaKlqA5/dLmi5Xu+9B1Zok+fMUqpNPPFG0v8aiJaeh+vGZD1GqDqBXmXV+w8RTz4X1W2dHXIHgXsVPwAL9Ev+3ZldIbbFFcNXwp2tJfgshSb2aouNAJ7IQw9WlMX9q70AOh/zElkAguMs/8nTdI8CgqsMJsFLe4X5uV9JMQ+NufC6qg4ZmY/ZK/pEhxr6XcRPf0iN0RYoadSfXzZlDkH2hO3Fb0ieF2gCnA9XJEZGUzRZaYCcX+bTaJb7cmoEpGW1PJwRR5AYGuLo3veRc4py7ZA5Dd4aMIViJRzmveTNkmKt+E6sZMm2fazt+JaKYeRNlu6sqhgJwBwDZcsOSCQKjzEMijuGSnxlyYK2kbN4yZC01PA/QFuMRhScNg8NskoLjU7gyNsoMFTyC3CYgTu01g8rxq267c2JLdVtH5grrWLuTn4YqRrrt5502LY+5Tth+vt1DUavSiph0YiHVrT49eeTYa2bZDArfUb4cgMcnmu56N9uJBFC/bza8vonbv4h33anNsaqnAzT9H+V4tMZOIUmGR6uLZR55WrD6NUPj4oKMf6JHuxUO1PYyuRsMLL3rQXZwqWxs3QjTy3ubFk8CqrS9H0HqCXdxbLc5tIIZRtQHyB2xofhosuSHQeNdPIMG37BQt8ueJcxMArfglIGVIBJNxx0r2wvILOnfa42Kpsvocc6WvVV/yJJBaBDvTQSmUa8a8Yvvxxy3UN6z6EveLkadh9rwysMSLQO3cJNLJs+14/gmPjm1AENyIqr7L4K1Xkkfvu6Pa9yOEHAOrO2uFy+SEgDwDlL2QE1NxN6I42JOLb0DwLOomRJ6Q8eRv/tU2Bw0I0RK1I0HUCvOjz+6K9Ma+EPkAIP3AkhsCqosRyL9QN47JlNwQR/sz130bZpo598uEke8QTG/RSekFpCeise2s0oubEXsjMFvLEOCDpt9P/wNBGxA8Aa1aZjZKRwJ9xIL1+chkhenfD+sqR9srJU4EKgeNRRjOgKqf7xTsgkHwY5SF9+LKXZviFLpXX9oTWKE/E0Fa/CkvFs12TVYsoRRMHJKGhi+iCq8XjMs+HRU90JP6ly3XwF5u2cCtG9NqzOwcD5rNYl21LY4EVu1TfZEKToR66zLYFcdint9RbG6DvA+p5OKOGnC6JwKXjLcdQXANoH+FRLtD8OQx1eaWgEDkBkxfulNuzdJa0RLYuHyU7WncCaGfcwbFiwjwBK7da13RMtxWYA1NC22yO4a22qsfUewIJE6y44X4MUCtWROYPn8XBHKbLbedVR+idgz4NxB+r4Qeyd3EMZXa9Orjv1EFkj40F4/OlNh+xqR4IiqMSARrAHmBP6YFYOb8Gtv/jbB30YvgNaT15egVx1JjdE4J2mydRHpnIYjOuzxpct2wq8sPgLTfHWY3+VytBjeIneJBXD+M2f5cMd/czqQRG9AWftaStnaSuvkMvicBR0D3hugVqNXC38e7cFjzS6AtNdEcqLHqSxYhTD3pS3ls9U4e3wgJ3T7c5wlxf8Bu7k1ZOSC2HErJMXdxpWXXQnCEv7B1FdLpb6IBlhwV9WenxDS7oykHcS+xld6TcHO4bKiv2X7+pRxajK+pVHJvKFzv4+h9VLyBIPFq9IqLXKNqCNVIj0Vud1zY1MoHDwTk/QDYRd4g5EjazM6DSNsdc3tDyROBG8c+b+vgKjtold6FX56QF5ZZ/TiqF40vLJ/pbewITFkxECLHm1+VVj2INtiJzXy88PwqD8oLQKX+y5x8xmqkJ3em738S2Mn8UJS1eUyY/M8UX7skoGXnQ/BxWye+uqm8AZUfoqz5wYL/NbIuYW6jQfsjhNuYHtUkPkKYAUmVDBqxSZQEBG8iEVgSK0qlBaorwCi7LvKU39A+0NQBmL74v+S8EQAAEABJREFUfaxZMIDsArjemYiseFrBkfnXuaLbV1QgKYdaI5fAEnul5IbAs2bmQdxQMr8WZeHGVFpG/RdBos688zmOiqmnFBwBRT8gmITpD3FAd7B0m0DQOsGW3c2qp/MFeQai/8Edp5TmmH4NY1ZD228GbTTGkcpmynZGiKNQu9pTEnIzS3zbMYFZy45AiKsh8LUeWu3C7a8IW+fgqvFvdOxIEc8J7dvkKzxlYiYztJJZM7aKkICsQZslsSLUWLCqJNgbiDZZgndKcCAk8VXbz85k1SwY4GA7z4v0HDJSZe+s31y9aWocaKY+ZXUHq5RcEBBJ25f2P0gmHgLE1x1jsGRIoE5CDKj4KzS0HQnYrTVDbCXSzO3fLfnQ/4wSiTfqMKmvVt2AL6cbiP5WPYjtvxTLIXjMg/LCUOn24WHqfjuu+rx7XgOE41DVMLwwoBShl19dOgRheI1t60MsxeLnCl/1SUuQ3YmW360sQoKZh+TtFxdttYW2BjP3hC1JIFcE1qAyXZpJ660I654QsS/rVjMimKCWd9B9AWHNigG2j/q45y5wUJCldm4lgvJTzfejrVJyRkBfAGQu1v3c55gdYMmCwEVDmlHRdhcgblDYJsSm0JEYEOgDlYsxa/HuMfCFLhQagT7LR0OCfcxtP+NJQNcAOg9Xjy7t5LvgEUDcI5R2gwieit2VluBwT8qptjMCVzxchfK0G7PyGGtWZtWHPAvBD1HR5xHU1YUo1RKq3xurgXi6MC6mFcaearlfm9qAmuYNubcbQ4sqe0K1cPMbMUQaR5cKdwX32m5HhHqFnfxWxRFsJD7FT4ka8wVIpu8r6ROk+K0X4Ir91qGt5cfm2myrpXvyasFTtiCQsIuafZGWi7aYyg8kkAmBtvSJdoz1+GuW+jyCxIPw1mMikyBj0Oa6fSyRZzeGoD4vQAZZMvtA3LRqcAwiLi0Xdux7PiDnQNALPopgPSB3I13+G1y5a4nfxErBW1Fl8ioTuFK4l5aZhBe/NuLO+VtxyXiPG3/8ot6mR3PmJN4+Zyns7+o2g+PEzQkU5l7GPdYQll1mgQyzSskVAcUrkMT9WD/mxVyZpJ1MCYiibd+XgeR3bIk5Vikk8DYB6W0H9DMwffEhb0/gCwl0TWDyvAG23biBvz09Pog2QJahsc+TYDHU+BMglsiCr5KA6L5ItOznywD1boPAtIWHQfFxm7Ozvfq4qLKLV5ln6/b/+KvQRjmRVONsbzxIYDrF0pD2QumEgOY/0deJd0U4S9O2VbZaYH57H5qB2Mtz+7rzFV9jDMY+/FJy0O2OCy/eysVj7WzPjX1VmP4XHvFNHgtWIBHejbr2bP+mafwfHwJuvTS+uAIS/p99P+bGxzF6kl8Criu1jDAfPoHZ83w9vmLqKUVFoLLG/UCKu0mU8BTXG3ah+SAm79ToSX9hqW0asQQQl8yzxB58lZEI0gdyP+AL73v0Tl+6ExDYzVZxvwbr63u0CkE4Cw0jn36P9Z58LNxlA7WLeBMvEdglR5gWL6qplAS6S0CRtmOpz+NGdz3Lw3JtgwDxta8FS3wI2N44Ps5k7EmAqYD0A0suCbxpxu7Dhl89b6+UuBKom5BCw+v/sQTW183FhVYpJGAEtMpOcI7C2ho3ILd9ppBAFwQkPAYi7tcHu2jY7dmvIii7r9tLx3rBbjhXJymo3m3fU5+PgNmd6WA81lTt3Q0PuUg2BOaoXUSFF9l36DRbrMKqB9G1pvSHWN50P+oktPeUlEcEqgK437XwaIOqSSBbAqKhHTvS2S5WlO1TCcsNuJu2RRkdg9qMQLDZ+8J4O3PZ2RA5oTCcLSovn4ekf8mxrwpgndZZEmvI6D8D8n8AXrZKIQFAMBSi52HWsgGIe6F/+SUwfflItP/CDKrhp9jdYnkV6ZbtMGXJ3vjawl0xo34H3Lq6H25f0ae9ticA/BiPrVYJfgeR9X79k/GAjAWLXwKrl55p6/IjZsQuqOx/5KKWqgkeQlXZLHxnvH2fIjdQmArbe2B5dF3ZA8sjXaruHgGFgAnsTex620vh5TbMaUp2BAprJU+eV40wnGV3KO0uSHaBsnWPCGwAwr/imrHsot4jjLlbGBMljarkj+yuzHft++L5giiHcdFUTwgEti0cjnR6Imp5h6onIIt8WYGk3K/V+eylUwboiQiCx5DQZShLPAcNXkZr0xo0ta1rr6uXpDB9sW5d3fQM64zFrbZ8S8TVdGZof/rm7RaH5sc24tksRoS2r9ZdvG5fqjtbInu8JQ6392qnZJWr4KaF+9gF5cegOsIbBpUX0KafxeXDWrzZKETFQVJhGzi8FAFE7B9YOiLQ3teQiDrC42e6633pqh/tBaVVwz4Q+ysop+lsdwgUTgLr3DkJVFV/0U56d+tOoFkuw+b/IyB2yQu8BK34yf8m8bVACLgT23K9zXblvzKPfT6WYuopBUJgJ0BOR9XS0WAhgW0RmDavj00+GJCdEcviHs3KsCosUYZyCyPKajoztI/N29me2ByJh8jhCFLD4+FLkXkxZeUAJJIXWPLqZH+RyToEeg1uHPWsPxsFqjnlsTNa+yOEBcolp26r5NRcqRvbdJ3GHlhuOxCpQoie5DacFtYCIFA4K/ngUcOhcokx5QPoBiFnomiByP2YNHRxzmzSUHQErhzzFqRsuin8q9UWq5SSJ6CH242AM+F6tJY8CwLYikCiZpxNG2vbSOGcH5jDlKwIjLPj+hjU1rvEXlYLsnEnBH6wuhKJ9GkQXGitfJ2rpiw5dieuHvVrs0HJJQGXlgls7ebSZsHZosM5J6BQgD2w4EpgN6wCce9Yi5xAUBDxzXylBmHwRYhy7Jbcr7DXkcYPIGI7yNwbp8UICFwz7GkEMsMuSB+DwOPtyQh8pYpcEHBjBJyGql4H24UQj/S5IF4oNlxCI9QDofD36FOhsChuPyuAxFHolYxpL7sChH/xvDK81nAoEF4K6KBuR9D1gv9Gou1L4DnZtkm1P0K47VnRTE1Eo6ZYtaRaxUJz1V4ouSGgdn2m7IHlYKslsJQ9AB2KYq+FkcAK33qfnVCfZCvDTrrsPyVXBEI7Sfo7mn/5ZK4M0o4nAlePfARB4mbTvsxqaJVSygQC7G83BE7FrAUDSxkDY38PgUrsZhff421qX6sFKXQ6UwLhkQjDoeB4eJkC67idu2Aa2nc3SOJTEBzYccMez1mJFK7E1fs29FhTsSoI1S7mfQVneZkwtH++9FMvCXSDgIid0wdWu7FssS3ihg1Q2wsXW1yMZysC8U9gTV+6k3n9CTup5oWWgcixbIDqbP7yYI6p+zK3cfgfLRH8dVP/ilVKKRNoP8jrGUiVHY7ZWrYZCr4tXQKCZDAWkP3BUvwERHa10/yD0e8pN+ZZ8cfrM8LpjxvDtvPtfOn9doz1k+AQvGUhTMOw+vn2SskLARX7zkheTBeM0QrnKRk5Crmq7Y8QKhNYjnf8sxrOS9YICMR7VdfWmn/hRIvT7mgJL7IMRI7l75hX/98c2yxwczF2v87u0jSGP4GGd5iXHNTdIJS4DEUC78dbC3ctcQ4M3xGofbIv0nDJqz3cR9YiJ+DuUitORrp6hyKP1G947rFbqTkOIS41Q+1X7/YatYSWGPsxtOLXmDgxHbXyotKXMFI+A9I0kzM++VJ39gREXApLs1+wGJewtEExhsWYtiIQvzW9uYtV5461j2dbZe8rg5BjaYWW34y7eLKUY+5+zdWNaYUkvwHIt8BS6gQEKicBiWMw+aVqsJQ2gcrKvQA9zCD4GnzaVFNiRmA/pJWDuXd3pagKqhLD7XtzNQQ7d1dNBsv9HenUbEzac30GbUu8iRvm0+e1PHePXW5g0mWL0mvg8yeU1G3vRZDXjmKrCNkRLQqMhaAjvgms2e6CSs4ziPtYja+f5lyRyt/QtNdjRRpbaYc1acQGSHqmQfiFVUpJE9ABduF1Eare3L2kMZR68LPnlSHQURAZV+ooSix+l7g+CRUVHPOsOyu+7vEqCK63RQ+y6klkGRS3oSVYBRF3perJTpGoDZPqj5MlLCW+PbCKZA0WZxjJcvUaWBD41e/V+QiVB0jBbs1GqJGqYkogvomhNW8dCZETIeCJVe43nhChzEKdpHJvmhZzQuCaMa+gNaiD4P6c2KOR+BIQORCSPBO1K/rE10l65pVAQ2/3q2mH2f6gn1c7VB5DAuHJCFI7QLXU+01kv26qKj9nC51p1dO5tGwA5NuoLvsXXO9psHRNIBHC26W8+4okunah1FtwX5LrLUDt2K25NhpLexq6LpixdI1ORUvA00G3h07OqN8BQeJsOwiNtOqOGD1UyMWzIqCW1Ej259hXWUErwMapX6yw79eXzPMFVimlS6DCLl4vQWXrXmgfd7B0QZRs5K3h7oBMsP1BD463YClMAjtC9Dj88Blf4zcVJpWuvJ66+HgguALQqq6adn++zkGov8flQy2R1X0tpbVkq99niEL2wOp6e5Kum7BFtAT8bvXR+upVm7TZeYx6NUHlsSAQzwSWynF2QeV6X1XGglKpORHKHdg4mIN8F/t6r6sL0a/xcfuuXWuh8pcJDUJeJa/GZTcEuBTV59fk1Q0azz2B2vpeQHiA1b1yb5wWY0DAXW1OxMvN/O5nujJuWrwjEnKrNR9s1Zf8C2n9EfYa8TwswwiWzAgkK91gQP4uYANx35fMfGErEniHgM9BsN4xwjcqTd56o4msN913A3J9djW8FhJ8AQg+761q+FkAn/RcL7TrhPO9VUmch0A/aIe7iZnUwIKNl0xZsrc5dIbV3axSck/gQZS1PoY6Kbh8fu5RFYHFS8a3obzPA3bHYhJgO36wlCYBtWOBfNgOTAeyF1aJbQGVZYMgcgIgSbCUKAEdD0mN5Xc/g9XvHo9K4ut242ckfBXB8wjDO9Gi/8FEcQkZX5aKT2+6xV/yCirFB8xLROTkBWtHSkXBcZ82wZGgEbZz3vQh4v8amm7MRVPDbdnV5juQfOs7KHvru95qU833UVX2U6+1MfwVNoa/9VYb2n6HPqN+h75Nv8+k2kXLOys4/2/maMKyb8dB5RRzJrBKyTUBkdnYmFiba7O0l0cCV+7ahIqWP0DDr5kXapVSmgRq7KLpq9j+I2WlGX4JRu0uxhPhrhb5cVYpJUtAyhAE52On0xMliyDTwKcvuRyKk6y5L1ZuDJdfoLnitxz3yihnK6Lu5qun8xjLy4SWKsjWp1Jrb5hKLeT8xhu6nE1Ptvn8uh+p9XQD4KkDhlqiEGjF5PGNWdcrD2uCz1o3pBmXD2vxWt04jL7rJdIG17EigxqvJNHqZeMgeq4dHnqBJR8EHrME4sM8acoH+jzbvGLcWpSFP7Gj4HfNEzsa2n9KKRI4DA2tHy7FwEsy5mkL3aDt7mLc4zg+JUm28IJWOQ8tQ7gddLbmZiw93GZ/wc5R+9irD7GLULkXqcQPUDdsvQ8Dxa8z4ff8RWUb6Znip5pVhGrfkIVcb4sAABAASURBVKwWKIHG6VBhF7hg8UsgwEYzYKztf9Qitl1r6OvGRdTeFr2++CSwps3rC4QnAnIUWPJBwHVT/xF693s9H8ZpMwYEvjj2eWjwf7aL/qN5w1+gNAglKUEwFVMX9C/J2Est6Irq7aF6eqmFzXi3QUDQB42vfXAbc/xPKgQLX1812L4rX4WI67How2N30VWPILwT1w9f6sNASeiU0BJY4lh6CFcFvHwFS9wI2PYugadtPm6xduFPmHBPENk+oIt23ZudAIJk9xblUlETiEcC69w5CUiv/aH4kAWYsErJNQHBfAT4Jy7ZyT3jm2vrtBcXApNG1COttwPyGACX1LQXSmkR0EGQ5JdQO5cH6gJZ8d1yc/a8MrSm9rdlR1mlkAAgehHcdgGWLQh8o74XmpuvA3S8VU/nqPIGIL/AxlF/Bkv3CaSTdt7i6/rV3ApDsf+UjgikW42PSUfzOd0DActdhR63eQ8ee1MZtKwx3b5gJC1PUW76KTEgEI8E1oEHDgTCcyDgiXReNgptszuLv8bGlhfyYp5G40NA7E7OXqMehMptgC4HxNeBADEqdOW9BASfRPVAl9x47xx+LhYCLyVq4B7Zhx15wUICjoAcjLdq9nHvWN8mcPuKCjTIRPuWnGlTelv1INJk52B/Rbrpe6gT9n7uCWGvPbBEIAnpiXtclgSiJ2Dn7aKWxYpec8Fp3D2xFhA3jiA8lEoIOMSRB7DdUZn/BFZtfTm05SBzfqJVSl4IyFIEwQOoG7eue+a5VFERcL96NLjiD9DgW0D4UlHFxmAyJVADyHWY9nRfsBQhARVUle8M6PFFGBxD6jYBDZDQT3R78WJbUO170hgeaDd0HJPdPYXnElZPINT/w/X7cwiHHkNO+7zpZsmrFHsmd7WO3PemqzalNj+hfhNMfIRw0xY1cUyrndestUSTD94VZqQ3au04aW8ojkD+apA/0+2WBWXBjkB4sX0aYJWScwJqJ0/6J0iwwkz7+MKbWkrBEbhoSDO0+qfm948AeQMspUbAjg0yAdJ6VqkFXhLxzkFgf65HiRvEvSRCZpAZEgjlDMxcOSjD1sXdbNayPSBpd356gAVqyQv7H6UI1C60XoaG38b1o9xj+1FqL01dUuYSWOop+AAiCU+6i0dtEP1XpXjgvCeSSD66zd1t9pEoK3wlgpew6RcDo47Fvv9BL1Qvq4laMfVlTyDIfpEIl7h9RTkSbuB28C5whFizUqVYCQkewBf3fjOr5di4+Alct/satMl3LcH8Wwt2g1VKSREQ11X6U5i5dEhJhV0Kwa5eVg0NfA/Y7brxNxhO96tArEAUDJpgGRX4LKKWvGo93aeJgtB9S/120PT55usJViusRi+KZoThL9D02q8BcVehYMmOwFat2x8h3GpqNBME9hcwgdUVTVXpqgnnR0nA9h3KQdzfIRrqS/ZN9bM/Ve1neYvt3rHFN3kjEOTNsqVH0do0BEHwGfPBz8mBKaZ0RkDSlry6D0gvgNgOsLOmnFeaBG4c9SwCucOC/zsgzWApIQLqTtTHQPVjmNP+voRiL/JQAzkYgtGeo7TEt9SanRtZEQ0Dxc22zp6yGpVsQ48koDgPtVq6g9W6oS3acCxU3A8LDd4GpCgmuS4T/4Ck70DdBB5boyDqdEg6hKp756MGppuPEHZKlpdzneLhTP8EFM/a99TTTkD7I8T2/oOgha4I5C+BVYsE0sHHARkDlvwQUF1thh9Ew+jX7JVCAtsmcPXIRQhkBqDuwim97UacWpwEtA8UZ2LV0oOLM76eRlWgy4fpj9sJnktQ+grgFQh+jCELv45rRt3GGhGDppabIXKvrbSUVU+iAVT2Qa+l7rE5TzZirrYmbeel8knzcqRVPyJYjSB1Eybtyx/PiZKwlIf2HdEoVb6jSxEgVCaw3gHCNxkTSJf72SY3OaBwf5ve83+QfNog+OK9ve0DfN3UMLcpmRLIXwKr12I7OQoutIvi/PmQKaXibKd2kP8X0PoY6iQszhAZVTQERLFxxH8gUmv6nrdXtddohFriTkAAHQoJP4raFX3i7iz9y4DAzSt3te/wiRm07H4TwX+gwdOYOJEJ7+5T3HrJyfuts8TjkzbjWas+pTfSeq5PA7HVfcuynaHJjwJyJGAJC/sXuaim7Dv4ZWwc+5/IdZe6QtcDyxcDteSuiM/Evy/Pc6d3U79NyZ1BWmonIAHPy9tB2D8NXQLLz3WtYrAlC3c0K5Q8E8hP8khVEEqtxc4spkHoiXR/WbET4PSDGLLs5e7r4JIlQ8AlOfs2zLWLp0lWm0ombgbqCNQAMgFVrSeBpfAJpFvfb99hn2M4hHaH8iEE/dizJOqtRUQhuhCCJ6JWvaU+rTQbx+BrT+285fQi//SN+l5oC0+1KM+zWm3Vk8g3kOj1O7jjqicLJas2nWizC0z1Er9IAARlXnRTaZETaPEcH+8VvQM4nXIJLE/7AGyPQHeOw7Aa78Rbom9sZ5yHyGcumWhWj7VKyRcBDR9H2PYg75DnawUUoN1LxrehqfoPgEwCS6kR2AOQczDt6d3AUrgEajWwi7uP+w1A7eQxWIirBzf6tVOi2hvCZ20dPm7R+/xhDQFkZySS70OpFPfdaEyMBfSLgAyCv/IvlCdm4spdeSPIB+MNa1rtAtNP7wsgaQnkKh9uF43OIHA91Db1w4p3ULn1LunxEUJ3YyNgD6x3VuhTS94AxCp8lHJIsBueWTTQh3LqzJxAkHnTiFpOm9cXIb5i2jjSn0HIk7wEyFw8seJ5sJBANgTqhjSjX9877ST/lmwWY9uCJ+DuOh+FoPXMgo+klAOorD/Kwh9m1aMEjyFIrYRd6YElegJ1Y+wCHZbAkmXRK99co/a3E/UzMGeOuyDdfEZxvu+7fEeE4ZcsuKFW/YjC/drzNbhibzsH82Mid1pjaumt7Vssweun9wVQblH3tkrZFoGL55WhpW1vCNz5wrZacJoPAqFt7mlfOVsfDnvWeZcbukAXerOiOgSa3MWbfirOiEDuE1ioutJ2bkMy8o6NPBGQhQjSf0H7l9yTCaotXgKX7NQIbbIktPy2eINkZFsREAyC6um4edG4reZxQmEQCBIfBsRdhMFTabG81X/R8MaznvQXj9qeRJJKPQ4J63uiIoNlyxBgOJ4de1AGbQu7ycz5NWhLXwKI63Hm77xYwuvRWPUUXI8JsHghcMfQVtiXA35KlSU5B8D11vOjv7C1DisrRxCMswSiFHYgBea9259IYFmsAvPbp7uqbqxITxaCIQjCXT0pp9oMCfg7UG/LgVkLRtgdvU/ZLGbnDUKe5E0gfBDXjH06T/ZpthgIXDt+HSCfszoPLKVCwJ2UHoV0cDrcz8znOWqaz5LAlCcG2oXzyYAmslwym+aLoFqPugmpbBZi2ywJXLfPGqj8Fwq/Y1iq7gQNi3vsO5eM0IQbsN09Gp/Mck1k0Vx/gKqK38H1Ys5iKTbNloC4C/lmW8q92kuk4q6Z+qPXggGRai0WZSl3cyQ9vljCiTSO5pZI1W2pLLTDuh0NtpxY2p9UPY4TqXsgxFDUzvF5M7C0118G0budcQbNImhSq0mkEzfat2z7CLRRRXcIiNvByVL7/4fuLM5liopAz4Np/MUrdjfyYqiusgtj7blCaigAAhW2/zgd1WVH2np3Ca0CcJkuthMIqt5v68zfL0m2H19gdz0TS9rt8Z9fAhI+DMFyr0Yk6AuVwzGjfgevdvKpvHrZDtDEd80FfxcjiscRJL6Oy4e+YXYo3gnoeojYVb0HQ4F9J1BRvN+HniALyquAoPh7bHaHkc8xsLrjT7Evk0y6BJav65LA9i9j0GufnYsdY5zjC3LmXJ9lpwAyAYC/kwRTnjspQEuK9UD4T0watbgAvafLcSNQVxdiu6Z6hMHn7cL4lbi5R398EdD9oenTMaXe50DHvpwvTb2ux5zgbAveLjDsvw9RrLHjy1OYNNxvryAfvheizobX6yGoB8T1NoGXoiqmdw9IcIy9Fp+4Xx1E+luA+hzP5HVIOA0bU0sB8XVBBZbNCIiss3XqJ4EF7Ye07riZNb51BGo1QJjax7izk4Ljkcsqtl8JVHNpMva2rhr+jG2Lnn4J2aJX3Q8p3d3eUfJEIMiJ3VnLBiCV/rTZ4gWPQciTqNldDSn/NdzOzj5QSKDHBNwvEybkQQi+apV3l3sMtCAUuOPGmQjkCMyex8fBC2GVVSXG28ncSHPV5yNSSyDJJ8GLdOSk1E1IIdR/2nr1d5K+KZBdEOJo1K6uRDEVl9RtSNp5qZzuLyxtgMq3kG59EG7wfX+GqHlzAqGsNe5+EliK/gjABNbmvDe9D5BIHL3pbRf/OZsEfBNw17mCf3k0MxJBOAKfu6fCow2q7oSAuxDpZHYEs2rdo4OpD0GxHwCPJ8+mndIZgUao/AsNQ5/qrBHnkUDWBCaN2IC2tBvQ/du27BqrlGInINgDQXAO1vXdDSzxJqAqEDnDnOxv1Y8I2uB6A6Vb2bvXD+Ftay1P/tsSWG48Sz8X65us2gm6jkXv1rGbPhbJ/6rEBKheb9GIVR9i34ngL0A4B9fv/3qUBqirCwIirwLq5zuh2B6K3VFbG3ThRWnN3unlcijcjyCUVtxxiFbVNnejHwdf4uRDGNgNHm8OuZu3h2HQzjt5s0DFnRLwvwOuWuru+p4LCQZ26gln+iMgtmNTfdlujP8cdeLnoO7Pe2ouBAI3jH0VyfIfmau/sa1to71Sip2A4hRo2zGYPK8aLPElMOPJHe3s1g1S3cubk6qv2jH+cbjBxb0ZiUxx8Si6cviLtr/9jwW0zqpPGYa2tiMwZ07Cp5Gc6Z7iflAIX7PvRR+PNusRht/H44uWerRB1dsiIHjZvhfpbc3q8bRAamy72RVVF/busa5iUrDmrWHGZd9iCqlwYhG16zstHH9z5GlC7QaP3VzzZ+4IlCf3RK36z6X4i6FgNfuFPn1pb0h4PiCjbcfm1xZYOiSgaIXrStn46rwO23AGCfSUwBV7PY1Qvo1A/26qWqxSipLA20EJ7OJPP4rKmr2g6qsXw9vG+NJ9ApXHQXRXW97jOpKnkU4/ZjYouSaQcL184HkMwmAAguBAvLBv4Q9ePXPlIASJa+yc1PUo8/WdeMkSuj9Ck/4Ld030k0jJ9XZWSPY09SIC+Pkl1E3Hup2AZp/jphUS7bd9Tbzf3vApG4NAiQmBhsZVdu27wp83sgdUDkW/p+xc2J8Vat42Ab9JJdFDATkJgL9HF0w5pUsCa+0C807UTfBzQO/SPBtsQaBYP7hnzvca8RQUd1iI/wWEJ+4o9iKHIAhPxx0rexd7pAUZ3+yXqm3ff6x9Jwd69L8J7vHB8vXLPdqg6o4INDTMt1lLrLZa9STtd5jHojXc35OB3Kh1415p24XY9EhthSejG0zvHxCmfoe6MeyNbDByL8lnAPF5vrszAuEAzni7zJ5XjUBdAuvtCXzJLQG1fHzC/uXWauyCNg8fAAAQAElEQVStvYQ2O/+536OfAsHpSFUwme0Rckeq/SWwbl28IxC6HdqIjox3dzqXy4pAaBcv/0QTeHc8K2xs3C0CEy1pVVX+EERvB5SPTnQLYkEtVIYQF6ElNRrnFsnjRQWFvwtn33x9LCBWUQlvRV6GyMO48rAmbyaouGMCk8c3Igz/ag3WW/Upe9p+/UDU1vt7FNWn9053TeIEaPhxQHzdVE1D5b8IE3fi2jHPgyU/BBLyDFQ9JrDUjf04jONgvb1611QdDYgbLgYsHRAoU4WdLHUwt4eTxXSXxv3irEDteEDazk3csTGrxbJqLNgXaTmcQ2lkRS2Sxn4SWLW1AVrV3fV1A/pVReIplXSXQKvdKfoG+As43eXH5bIlcPmwFmjiLxB8yxZ9ziqlmAmI7GUX0J/CkeNqijnMgowtUXaMfQ/99RQQUdP/nCU23FgTBYmoKJwW/MXicI8Rqr36kmpTPB5VZXvZa+HJzMVjLKlxKWD7K6ifc1/V1YB+F817Pwl7Y5WSDwIb9n7LzL5u+yZP3wfpC8Xe6P2h7cxOIYkfX0Uutu9WcYyP54cQteaDgBvzOVG+0HbFz3kzr6iw/cyFqKgZ5M0GFW+TgJ+DeMUH9gbkDKv+TpzBkhkBnYvK5KOZtWUrEoiIwKQRG5CSX9qO/cem8U2rlOIlIICcjebUUaj1dGEIlqwJTF+6E0QOhL/eJnZeqBstefkEdhv5AljyR6BptPHXhwDxPPagHgDBPlAVFFKZtWwAQnwCkCMAlFvtpnS6mCVN7JhXXXYP6iTVaUvO9EvAXbgCKyzJ5CmBBbG/vZFu3cNvIAWgfcby/exAcHQBeFrcLkrga1svbG7rdR0gf4PX4o6LqZNRO9djT3evARSk8ugTWLWrK5FMHmc0XE3YKyW/BG6G6xGTXx9ovRQJXD/yTZThm3ax8werjaWIoIRi7meJjBuw08s8gMdmpYcHIdSRdnHh8zj8GiD/wERJI5PCNn4IuAv2UH5j69rzflYGALZdTVlSOIO5z9EE0nqOgf+AJR18DbbbCshDkLLZdr7l+1FOsGRCIFhkrUKrfkR1DDSwm/V+1BeMVm27DBBf3yuwZEqAh+BtkxraaN/TP9o8nwm+CiDxWVTvYsdHs0TJCYHoE1iVDWMBOcdOFNi1FnkvD8KNR5R3N+hAyRK4YtTLgE4G5GEAvCttEHoisV5WMB5rN3w81j6WinPtg1XjUAt3T6u+xF0cvgA0PuTLAPVmQaCi97+t9UqratWX2DmjHo4EhvkyELneZ5cdDYQfNb07240UsddoxT1GCzwHyFcxaeiLYIkHgTC90Bxx+yh78SEyCCL7YcqS7X1oLwid05aMNQYnm68+b5KYekrnBMTnPr9z03GfWycpBOFiCNwPnfjzVmQ4kL4YtXOT/oxQ8+YE7GRk8489fH/r6n5IBCfaScJhUNtceqiOi/eQgMgsuxvo+ZGCHvqY28VpLR8Erh39PAJ82kyvsr2C2iulKAmIHbjDL+GmRwcXZXiFFFQfjLTv3H72ffPYI042IJC5uHb8+kJCU7S+Xrlrk513uV5Yac8xjoHIPrjl4fiPbzpjxV7Q8CIIDjAm0Z7vmsJ2CXUDgmAKhix4EhAe3xCTkpCnAPGYwILbng5GeeDzJgFiXQJ8xvY5g2LtY1ycS4bcN+RrXTSEb0L1Xr/m1ZK44eWoGmSJLL+WqH0TAbcD3vQuo/9dNGppGGMtPmbV1xgDppqSEQHV/2Jg5f0ZtWUjEvBKwE7qrxm10i4izkeoDV5NUXmeCeggJHt/Jc9O0HwqGI8QY/2C0LWQ4B6zoVYpcSBQnvgZIG3wW8qg4TFI9dvFr5keap85vwZh6lyofACKsh5q62BxSUP0N9h9+I8xcWK6g0acnA8CDSOftnXzul/TbozBcFRJ9rqYtvgoqJ5kfCusUroi0NxVg57Mt0OwJuxfT3R0tWwhzx+9FtA/WwS+rz/62nXOt80OJQcEoktgzajfwe5CnWcnCoX5CzU5gJ1DE2rr4Tbc81/fJ7I5DImmCpyA4ppRT9gFr3uUg9tlga/Mzt2XCzBz+cGdt+FcbwTcgNWCA+xEakdvNoA0RFZgw96Pe7RB1dkSuHL4i3bRfl+2i2XdXjABYbinXRRI1svmYgH3YxLp5PHG4tPmo7+eYhKuQFX5FzgGXC5WapY26iSEBo9kuVSWzbUKaT0FlQO7Hsw9S82xbv65FS5pdYX5uJNVCgnEm4DbFwTJZ8zJv1n1LHIEpi75rCV343ls9Bx9LtVHk8Byz3wGMg6wCxew5J+AzkdL6m+4i3cE878u6MEWBCaN/C0kuBGQJrAUKQGpQLrta/jBao+PrxUpuijCSutYQMbDb3GDhf8B7sTQrx1qz5aAJu60RTzfjZftIHIkblnU32zlRDI2UlsboHzBfoB8FsCuVv2IYD208gJcPmy9HwPU2mMCGv6zxzq6UiA4AUFyFObMSXTVtCjmux9F2KXtIxbLgVY99Ww0zcUmZZWe98npYiMWbTyJt16Bhq7HuP8b6IF+BTOXWE4k2hCobUsCESSwVNB78M4Ig8ug2mdL9fyUewKaAuS70D48qQJLLAk8v+o2KNxFltdO1bGMvSSc0gCBHITXGz9kxwQpiZDjEqQbvB3hvvb9GvMelyL+qOuQDlyX/Ij1Ul2PCTQO/4vpeMGqZ5ET0RrubEbi9B0X9PvgYCQSF0JwrPnmS5oQSh0m7TXPlwHqjYBAsnmuafF7Za/oB9GzsXqczx6viE15evE+9t36hFX2vorNSqEjXRK48rAmlInbX/+3y7Y9b9DPzsHugHsyree6SlOD6xh1+4o+nY212fME1u0ryxHifUbYPQttL5T8EggWIwzvQ90QJgfyuyJovSMCd5zSgnTqq5bccBfA/u+GdORHVtPZOCsCil4I5dOYvspfD4isHCqRxhWpPezC4hBAqzxGHEKC/+C64as92qDq7hKok1ZAfgr/ZT9oMAa3ryj3bypDC5PnVaFFTrPt8xO2RM/Pb03JNsS2f/kdmhs41sk24MRq0oa7l5o/7tEhe/EpehbCtgPRfgPBp508656yYiACXGoX5/uYJ3FKXJs7cZcmvw5KoH4NFIH2tqZVUPmjReL7+th9N/YHghtL+ldKDXS3ZPZL1ei1w4Foav0Y2vqM7UhHDw/wKmhK7wHI5+xilF1JkfeSsvXwMwTJV/PuyXsd4GcS2JxA669fh5R9CSL/AiQES7ERCGzdDgVaPmUXuBXFFlws46nVAGUVw6HwPf5YGpBfwbJkVilxJKCBWz8Nnl1LIpE4DRua+3m2k5l6d8e2ouIgCL5oC/Sy6kueQqq8DpMP8HxF6sv9EtJbVxfaObF7bMhv0Ip+CPQS1AS7mz1BMZbaFX2QaPswRE628GqsUuJDQMGz6K7XxrXj1wHph2wbXth14x63qLR1ch4S+BimzeuLUi6Zxq6WU5q5chDeemsiQr3ZzmU/Dklu19HiQUczMpo++/EkEF4EaIcZsoz0sFE0BBTL7e7I/bhm+MZoFFILCXgiUGcnlk+vX4k0vmr7jyc9WaHavBLQPhCchcaWA8Hin0Dlc32RDscDshu8Fn0FydTfvZqg8p4RqA6W2snfIz1TksHSYXgcKsp3g0ueZtDcXxM78a3cfjcECUte6XB/duQFhOEUtDQ9Awh7PKAAisofzEv/60rkWPvOTUTdyz57v1ooeZDbV1SgOnW8nat9zGLcNQ8eFL7Jsu6PgVX4wccognIsBsJ7zSPfN3hg57/bQfWzkOpz8I16nzdVUPBl9rwyzFyxL8LWKxEEN1k8h9qr3fxWyzPZp21IsI1pmU9aX7W/Nf647dCK846DBVcwIpK2L8tvkAyfgfDEqmDWWyk7+p3xbWhpeMz2H7MMwzKrlOIi4I4LQyDBR9mNOgcrVpp3s33/MYD27Ljetat/xpVj3uq6GVvkjcC/nkxB5Wfe7YsMRtoubOXx/P5gQ+0zFZCyyyxen0NZuBuD30Nz299RN6bVbFEKgYBU/BeCZ+C7KMrMzmWoXDsBeU/oRhisu7BsSB1qsX3GjuVjItRcWqqaPIcr8J+k9RxCTtS7c5dQ3a8R5uLGudj3ZjeL64tYnziHPbGMxLZk+tLeWF9zLjT1NUA+D2DT+HquR1ZoBG3CtqT7J7ouI69ynSkdaJWSbwKKlQjkH1g3em2+XaF9EsiYwOTxjbbT+qvtor5lyzxvlVJcBNyjBhOQxAnFFVbMovncPRVAarR55fuXb0Jo8BOzQ4kzgfZfIG5zv8D2bM/d7EqDnIt+2/XuqpXX+VWN50D0U2ajw7u1Nq/7Iu0Xh3+GJH+Kyfut674iLplzAk3PNVhS/085savY2c5lbkSf5cXxVIr7ZcW1leMQ6FVQPcJqIicci9JIY1FGVZBBSXK+bcuuF1YubsS5PMtw+w5dA6n6KG5avGNBMvPl9PT6g4DUlxDqVyByiu2rN78ZZgnAtHRkOuhoRpfTm9vOskO6z7tdXbrABm8TEFsTqvegNbUEdRK+PZUvJFAYBK7bZ41dFN9lO66fmsO5OKCYGUoOCewKhB/AjIV75dBmfEzlwpNd9twekGMAeE4kyCJUJx83O5S4EwjKX4fA//g/wBg0N49HrXb/fLInLGcs3h8iN5oKf+OMqNg2r99F33XPmS32dDDYBSOTj0kjHf7W/M1Vr7mDkUp/DV9/2vW8MLMFKnM0gWfG7AsJrrUIjrNabpXSIwLCfUeP+EW08KQRGwD9s9X/wl0/R6S2EzV2bJThQHCF3cy9Ajcv2buTtqUx66aFgzF98dXQYKZx+ZwFvRdcjyt7s5nY2hHZ7PMWbw3qFp8z++B+GlLhdmp21zezRdjKIwHFKkDmYtiYN8BCAoVIYNLwlyHl3zfXf2d1i87W9plS2ATKoXK41dNRq356SBQ2nx56r4Iw5e78v6+HirpeXGQOLh/W0nVDtsg7gcaXmxCGdwPSDL+lDAHOw07Ife+MKUu2t/2KGy/DLg58BSkvAeH3gcRjuGR8my8r1OuJgIiiJVwM6H89WXivWjFbJ1lSdxZuXmg3b947uwA+185N4ulF+0PhHulxHRU27xVRAAHE0EWOgRWvldKEJfY9/a1t48/lxjF3g0f3MFufQEq/ihn1h8M9nmsTSkpuX9EHMxZ/EonEtyzuSZZAPMpeO9q/iLVDR6V7CaxQLrMV7x5X6Egvp+eUgPwd0vokJkp6G2Y5iQQKgICdZDYMXY0guB0i7vl0bssFsNaycHEQEJyG3st9P+KWhUtF0nTmgmoEcqh9b3b1HFEztOUuzzaoPioCdRNSSAZLoTovKpWd6DkFry/ZNG5FJ40ineXu1ibC6+xcdEKkejdXJmgx/XNQLnej/a795jP5vmAI6FvrAfk5clYkafvjM5BO3oqpS9xFa84s99iQu6iuHjzBzsVuMV3H2f6jyl4psSZg589BoLF2MW7OuXEMK/Ru+57ONdd8xTdthQAAEABJREFU3+QxE+/IdoCcDk3chnXVF2Pqs/3hr8RH8y3PV2Ha4vPQmLrTkoZfhuAMc257q52J2E046ahB9gmsm1eMg8gFkCDZkVJOzymB5yB4AEP2eRksJFDIBOokxMaXFyPQmy2MXN0tNVOUHBBwx5qD7WB0GmrtDkwODJaMibDanQCdYRcannvAyL/Q2OfZkuFaDIGmA/dI9h+9h6LYDkn5gHc7mxuYufQ8QD4EwN+TACH+YedXP8HaX71qdiiFSmDyMS1IlD0AyHLkrlTYPvlUO5/5JqYvHZ87sz2w5Ma8WlP1cfP7m6blUKvdfWywSJIpRoBSvAQ+P+Y1ILzTAlxqNYeiLik8DipfRtDwTcxcPAb5egTfd9TufN8lrlIbfgHRGVZPN5O7Wk1Y7VzcTarQjsAdtHIXFR3M2sZkBzjVdrXN2RlOsb2h5J3AvyHyKNj7Ku8rgg5EQKBuQgq9Gx8BApfEyuXJZgTOU0UXBHohxJmoTB3SRTvOzpTAuXMSkNRe9n05LNNFut0uwF0Y/V8+QtVtgHlY8JrhG1EmD5nlV6z6FdFPAip+jbytfdqCsXYO6s5FB789JfoXVbuo0R+iYeQC1NWF0RsoAY1xCVFEkQpeBORXyG1xj8YcB6RnWxLrHNtmc/P96E6MtU/2w6qxP7briakIxI4p3XokuAWC+wF5AixbEmjc8mO0n2z3lOZDC1kzdfuFvk2P2jb7Y1s2xzcp2h8pHGR2z7bz4j+gZslUfKO+l30uDpm1bACmL7kY1W1/Mr53QHEKIC5xlXlSXERsX9ThPjO7BFblkjPNCfe8YuYOgMUbAVX7wskD2PgL3hX3BpmKc07AjTPy9IN3277mm1Zfzbl9GvRHQHQsgvB0/hJLRIiPGVVl35EzAHV39CJSug01grcgFfdh4kSeJW8Dj69JPdbrTtDb0i/YXc9/9FhXlwpkOGYsdeeHXbbsUQN3ki9lk03HaKvZncPaAhmJYK2ddP8K5ev+iDpJgaXwCUzacz3S6T9bIM9ZzaXY9VKwHxD+H2bYRaq7sMul9UxsTVv0IVRXPGb7iYnWvL8dU8ReuyH6usU52RJ1b3Zj4SJfhEO7xnIFu+sN2e475ps7RrbYa67F9SAeYt+5L2Bj8CSmLf58wY6N5X74wfUmm7H4m7avfQTQ2wzm4VYHWC2zmp0oBGEUv0J4+4o+CPAZiOyQnQds7Y1AEDwGyIO8OwiWYiPwnUva0PTqNyysn9vJ0EZ7pRQHgQAIJiIph9p6Fc8hFb/6tVoDhO6iw3OswT1IvbXWsxGq90GgCa8gFdxnqtWqR7E7yqqf8GjAVKugIXGlXWgfYx8sMWD/IxcJEWIukPgOdnmhFe6xqo6q6wHJmkBXDOLwxIZL5iJYacedHI6F9b+N074bwGAIrkI69TdMrz8Ht6+wC1fbnv/XJLevAvdEjfsFzxlL7oXID838MKs9GRqmzfTMgrautmtFZmsM5hbCQdy3wBGrD1fv0ICw5XrzaaVVtZoPccezofbduRVrq1Zi+tJJVnujttbOmSH5cKhLm26/Xmv7Ntd7c8byz2HVkv9A8YTVy2zZoVZdD9TAXrsnLupEosNlM1PsHGxq+7hpGQNox9qsASVnBN5EGP4Tk4Yvz5lFGioxAnkOt25CContvmRe3Gu1xSqlKAjoILsAPQ8zV7kDXFFElJcg3EVjoMcDsgv8ltBOqu5Gf3h9CMJvCCWs3Q1WWx4stpPKp7xTEJyJmxYO9mLHnYdOX3Q6VM+DYjsvNtqV2gm5iwPhaqwe07hZ3YBVo9e/U1ePWYsDx7yReR37CsaPfbkk6/TFF7ejzfe/60faebP+ya5jluTFFXWP5cl+QOLHaErdi2kLz8CUJwaidnWlbdfi1ye1pFV9OabN64tp9YejevEv7Hv0gNk9yexm3zvCFnqPPI7ny76NVKWa3vR75vFjKlRvEFxyVoy6NwMloPi6cc9YlFdYze940grbD8huQDjF6nJUf/A7mLHoCNy6uh8mz6tuv1lgTuZc2pNVtv9wPaCnLuiPGYuHYebS61C15GFUV74MTd1unh9gW2EU+5LNwut4V5JZAqti5QhAzzHnBm2mlW+7IuBvvm3iMt/Wyd9gV4JgIYFiJeDujAR6uW3rj1mIoVVKMRBQnAZtOQrul0mKIZ58xDDqwDJI4sP+TctKhIkn4bra+zdGCz4IJMvcY1MPmGq16k8U1UiWfTB6A3bx3dudh8qnTfdwq77FnRu7O+Kb1yqIVL9TgV52st4v86oD7Dg2sCRrIJW+V1jG+lvaFkHwU2ufx5ti7pFvnQBJzkGi6m+oavgCpi8dg+nzd2lPMLkef+Zgj8VddLqLXpdUnrJ8OGqCCxFU/x4S/AUQ13O3N6IoIuuh4dW4Y1gLylyiRnmu9l6uZVX+9r3+NL83iuL+PGmUu6aeakGus9oz6fnS7hjknnj7BFT+itamuaiursX+I4/E1CV7tN8omr60t5+ElgpqLVnlkmY3Ld4RX1u8e/v+qSbxIWwMvgNJPAzFQqjeZPvSg+2Ylpf9uwPUOWa38wtaL4DIaHPYMoOdN+fcnBBYZxvOv/H44vqcWKMREsgngWvGvIJU6tO2zS/Npxu0HSkBdzF4EVLrhr/dRTpS5SWhrLpldzsuH+s/VrkHyco1/u3QgjcCa4a8DqQfNf1vWfUpCbMzEbc8XBWpkVnLt0c6dQkgRwDo+rzVGlFIYJsE6satRaL8Xtt3PghIvhMt5Xbxty8ksItmfQia/A2kahKeGXscZtTvh1nLRmDm0iF28bgTpqwYaDd8tmvvieF+2ctdvLrqelS5HhFTlmyPmSsHYfqKXTC1fiimLRqNmcsOQ1XNx5EIvotE+A+7hptt1T1+W4OoimorVO7AtWMeekel64P1zofuvSm6pdqUaaZCWKmNr3wbCvfLhA0xctcdT/czv65BkPgLAv0byhKzIenPYfzIYzF10bj27/uUp/bG1xbu2r6vcPsEt29wwz+5V5eMuqV+O7TvJ+bbfmLpTphWvxtmLNwLNy/ZG9OXj8TMhfvAPVY8ZZHtN+QctDR9GUn8CGW4D6IP277KcTkfIiOMTYVVzyK2J0l0+L3p4kTAsnBV1YebsycauH6ePaX6zAgoBMuQSPwRd3FA3cyQsVXBE7hh33qofN7icN187YVS8ARUD0WIM1B1ejR3gQseSLYBpC+wJfyeRKg2Aqm5qHl1g9miFCqBOrtQT5QttZsArierzygEkJFI97e7soimzJxfg7SeYyfPZ5rC6C68TVkRC0PrjMD6lkVQ/BwIX+qsWU7nCfpA5CBArjPf7oUG9yCd/inS4TcQhlMQtF2PtvVXoa35clS3XYYwfTE0fQmk5tMIyj6PhF6NsO0GoG2GXR98B8Cv7ft+L6B3mN7T7XVHm9bFNZ+1yFYE/0Bj06wtFhPb32wxgR9Q7nqmeeQQBOpRe+morpuQQnlv+x7JzyxoO/+x//GSCnNnqO0jzoTKTUDyXgRyr33H70Ki7E4kEzMQtF1n+4AvWDL802hq/QyCqs+07zdSwRWWkLoKWnY9kP4akLjF6reR0h/Y518gTP7e9hl/QyL4h+n7GQTukcr3mb29rfaCQuw1NhJ06slN9YMg8gFrM9IqJR4ENiLEw1i+wf94FvGIl16QwCYC1426H5DJVl8CSzEQsONPcBFQObZ9oORiiChXMdQ+2gebHgGB1yLBk3ZStLz0Hh/0SjU/yjeufQYJecSMe350SqrtJHgiatW+32atJ1I7N4lU2aFAeKGp2d0qhQR6TsCNC9fW4s4nfm3KNliNmbR/d1zC6QAITkaAj9rrF9Ce3NI6ANMQyCyIzAR0itVamzYJ0Mvt9XyoTrB5I+yz75tD9WajFpP3W2d2N0l5tQJMYGGr4jr0GJqtpkcxwZfeKHwrQB1X7tqEsvR1EJ1j36OmeEegCfPPjTtpeRo5HILzrF4BlS8DYvsGqy7RpVoHxY22b7jWXj9v8y6y+D5g748HcJh9j/e1OgQQN75kOWJROt+uOz7BqNUkksHxFuxxFkdenm80u5TNCYi4tfkcgvA3+M74ts1n8T0JlASBxoW/sJ3zHbajXVsS8RZqkJn6LdgDEnwST4/oA5bMCfTqe7Q19jsIvtipjYZ/t7t5r5ktSqETqDtkPVSehMhqv6FoBRRHonLpbj2202eHPe0k+yLTM94qhQSiI3Djfi8ikfg5IP8GwPNpg5CdyDO2L5mCqufm26u7Ntm0eEODnZ557m20yVJh/W+zxN67lKL3PR1Gr7OUNV45Zg0SFV82BL+yahu1/afEikDHCazqZXsBcoZVy8iBJQ4EVC0TLA+jsmJeHNyhD/4IUHMHBOomtiKZ/g4QfN9aNFulFDoBxdkIkkcjih4bKIWigrR+wiIVq/5E9XVAHsMui9+9uw6WgiaQRr0llx73HIPbLnewxNPJPbIza9kApPSDEJxiesqsUkggWgIb9n7SFH7X6lLbznymF8xEUYk7NnwTYcM9uPyUrXt0BsJsyntXt+9HCN9rj597SkBx5V4vQOQrEPzYlMWwp6Z5VcKy7QSWG3MA+j5Aj7GaKEA+xeryG/ZF+hkuH7b1AaNYI2ZcJPBeAleMXoMQ/weIuzPCEyUUeBH0sQi+iN6Pu67L9pbSKYGblw6z48CRnbaJZKYlryS9ChM51mIkOOOgZLuGFy2x5BJYb3l2p69toyfADTLdHUNuEPhU6lg7//woIBx/FSxeCNRJCo3p+wD5jiV2XwBLJgTWAPI9pMKf4toD1uO9pdz92h4TWO/FgtZQsekpmq1m9XyCKIJAe66nKDREF4RbXxuHPwsJZtr+4Xum+A2rlJgQCLbpRyoxCoIPQGTgNudzYj4ItJrRfyPZy/cgrGaGQgIxJuAOKnuNeB5h8jbz8h6rlIInoIcgXWUXqwUfiP8A0qEb0Nol/fzZEqRN+UNAGS/qDETRyCVu6IGE68G9zHNMZXCDuSOV/aN/ridmS98Rdv75Oat7goUEfBKoG7MRieCXgLhf2OIFKtBZ2QDID5DQ2bh+5Cv2fttJE8vVgIUEioGA+wEUl8QqS99q4Xzd6jNWKTEgEGzlg/uJxUTiZKgeZBlH2Wo+J+SHgGAjkP4B3OBy+fGAVkkgPgQmShrNLYsQwCWxHo2PY/SkewQkCZHPY2r90O4tXyJL1c7tBQ3eD4jfntGqz9g5wAJcM9yOO2ApJgJljQvtu7bAQkpZ9SeibhDqk7M20GvBAATB52y5gwvyHNQcpxQYgauGv4GUzrbvxQ9tm9u6V1GBhePFXYFxkR+gNfVNbBj5vLFSL3aKVWllmrwKdd26JNYXx7yARML2EbjJwlholeKXwBoI/gLRDllvmcBSFSQxBqF+2PyqtkqJB4HQLiYeRVk/uyMeD4foBQnknYD7JaFE739D5HbzZblVSkETkF1sXd5Q0CH4dr5qwNGAunEp/d5cUvkv2mSlrY+cn2+rLHoAABAASURBVHT7Rljy+r/gfjFMHoPgRa8sVHoBMh5Tl2Xei+oHqyuh5R+0bfwcAGVWKSSQGwI3jHrZbhLfbN+LO81gk1XKuwTW2DXIdxE234rUmNVwF/TvzuO7TAi0sFtaJpji20YULtGtwa8gcpX5+Ter/PEHgxCxpI3vfwG5Aq3pqWgYuRodlGCL6V9fsgM0PM8W3muL6fyQbwIppMNvsfdVvlcD7ceOgOuRqPInIPiG+faq1VKXwo3f3UARORvTlx1XuEF49lwS55qFXlY9ijQjYQmsvmXPeTRC1fki4B7B1rZHoLrSrwtq55eyJ4KUJV0zsOS+/682748wvM5a97ZKIYHcErhmzCtIy9eg4c1m2G8PRTNQIPI6FN+A6Cxcu9+zYPKqe6ut2XMPLFHebOremsluqUkjNqDviLl2zfE5u9HyA0DWgSUqAq8Y068hCC5E2Zo5uHHs87a/6XA/bCcYb9ut1SRS2N9WyvmmIPH2VL7EgYDgcbTIfXFwpfh9YIQFR8AdUMKqnwBuDAttAEshE+gDTU3G7SsqCjkIL75v6slyiOkut+pPFMvsXKCePxbiD3HeNQ8ZsxwSPGV+eN5f6s52Tnkkbnm+ymx1Lt95PAnBpxHIDp035FwS8Ejg+pFvorzvFNsWL4NqyqOlQlD9HDSss33FDFwz+lW45HcheF1qPoqlGEst5nzGe4m04Zrhy6GV10D1cqurwHXQkzXixvj+LSR5Msr6TMcX916GKw/rshds8I7FvssHI1SXUez7zrTuvOEy0RNIySy4x6Wi10yNJFAcBK7bfQ1SegdUfmMBpa1SCpOAQGRfNLd9vDDd9+i1tJ5u2gdY9SuiTyFoXezXCLXnlYAbQ1DwIESf9+uHWFJKR6G18YCM7EhoCWxIRm3ZiAR8EXA9u68e+X0ky46DyCu+zMRWr7sYV11qsX8Kk0Z/E+4moe0sYutvIThW5bkHVhwYlJIPLpl77V7rMGnkT6Dp90FxN6BtpYQgmlj1Udu1HI8hIyfimr2fan/SzLHNQPmmBJa7292mJwBiFSyxIqCLMHShfTFi5RSdIYH4EWgfw0JnAHI/gNAqpRAJCHpB5TJMX7FLIbrvxWd3jHZ3pyD9vOh/R6msgwRPYtI+L74ziW+Kk8DG5n9B4caXUK8BKvYG2o6wu9Ti1Q6Vk0CUBNxF1FXD/gWkjgDkz1C4XgLwWWKiuwEqv0Oy5SRcM/I+OA4xcayg3ei9m78bq24P7k97QWP37rz7fly3zyo0vnquXXW48cOfNZulsq+wULMUkTQUzbbUY7ZvORGNow7HNaP/BXdTDdmVTQmshtSOEJ1ki/IEwyDER2xFi8zAxIncNcVnpdCTOBO4dvQiy13NhMrjtnPk9ybO66oj3xR2HNI9gJbLMXseB3J2nFrajgR0T6ueH+/XJUDrU7ATArAUN4G6cWstQLtAx1v26lP6QxIH4OYlu/k0AoDqSSBiAqK4ZuzTqEp+yI5K7hrJXZy2RGwkJurE4nI9MhPXtsd71f4u1pj4VgRuvP6cu6mqRRAJQ9gWgboJKVw3+i40Vu0HkZsgcDcBG7fVtESnWdJKXrMbWX8BZKJxOro9QV4n7nuB7pQAtfXlCHCxKR3eHQVcxicBXQoNfufTAnWTQNERuGbUP4DwdtunPW2xdXvnaMtS8kegNzRxOtb1dmM+5c+LOFieowmEOMFOiAb7dQeW8A0XIdVU79kO1ceFQBjcZ668BHcX2d74k/9n707g4yrLPY7/3jNJ2qSlpRcsi2wFapM0lIJFAQHBBZQLVBQEFUSQpdAFKM3SBdPa22YmKfSCYCnIIsiVGxARZVG5oFxQKEVsm0zSFqgIAqII1TbdMue9z5tesI2UT0MyaSb5z+d9c5Y58573/Z4z78x55pwTfxCxG2PlW3Da/ipJIJcEJg3/Oy+0XA+Z06zad4F7BYv0W+4Fqe0+Xy/bd6Z7rB/4NJUjrtP9D7OwWf9tsH2+ZqHcd4qMUHDsHYsdOZw17G3Ki2fT2voZez8tALcCx9/pm4+MNftN+z20Gdztdkx2OkMLT6Oq5KfMGmYBLTr1iBjkRoIf16lS9OJsCNiGT3yXYSMUwc2GrsrsvQLhYGxd6V3E7kb7SP+zfXjogz0Xt7ZjX3z8TWqWDsnF6ndZnV9aug/wMSsv2/+Z7Q2Ifse0j79p61LqCwKHFy+xZjbi/UYbZjPtb+s4jOsbBmRzJSpbAlkTuHHMJioPWmx95EQiPwnc/UC4BHeDDXMxhfv1rMJFD+HdeD5W+g0qSlfmYkNyos5vHhguncqJqqqSnRQIxyDTRjWztrgKn/kycXyDlbjI8uvg7Nie3vtwhOOtNfZ3Bfhf4lzS+ssv0ZKZSFXp45zb+cDVO3gRrdGnbMKiY/zWhpuz90/bl41/Zvwim35mq4yzjpxn7TU9P3urp3Nb19/7rp2GRTj+adbesKPT+Eds49/Hl3v5zm47kJIEulxglmtlw9oFRNxhHemaLi9fBXaDgC+E+GiighOp9psvd++Gtfa4VWTyjgD/4W6o1/Mk3NPdsB6toqcIHGf9ZOQfsOqEywltkLWUb/vwGNbkFWdtDSpYAt0hEG5oXl76Y/IzF+G9HaByt612qeW1dgwQDt5stEenDfadKBxc/sTqO5XMpnOoKv4ZoS/o0dXO+crFODbisnRM17vDIrm58cNxSFXZEtaNnI7rd5Y1ImXZPm/DrRpYa+O9KPnQnka8+wWem+zz/jISeWdTUTKPKWVpZpVt7OrGRvj4YVx8ybs59uNtfMJWGT/R3nSTtsqeS/GJy3IiE1s97RcT57ZuQ1dOh19kMrE5xVvbuQ84nRdNouU1+0W8qzf5BypPL5JA7gjU1ye4uuHfKBy0L7hFwJts/lXARpVyS8DtA/FpDGgYllv17sLaRtFf8e5ey/algJut5M3Z+9v4l8ztONfx7O11uHrWDG6y8pX6kkCceBTcDz7QfrPlvhb2ofb7I+5WPLcA3wP3FK61lW09hnw0tjo8arnj+++W9dB4z/PD9b5+ZXLZ36gaWU+/wolEXAHRdbavP2i79/O2D/e0cIK3eoV73f3Ghrfa8d10Mhsuobyknqmj3gIXnqdLHv38emv/k5azsx96/pfEhvVdUtfuLKTtXj/+NvDhbJzNn+X/0l/yfRwddyO+z74L/KE7m6N1dUAgBLIqDlhJS8m1OAt846tsey2wEkJ/Ec567PLgjpXdVWkb5bjYnnjd9tffWvfxIxu3tlEBeefzbEO59Y0PMWXEX21+1lJkK2mkouz37+apI59rO002nCr7bi5bRGXpU1vlqpLfUDXiidzIZU9sVff2bemK6fKRTzO17Jl/tTto8Qead0XJCmYdt+0ve1nbJVSwBHJIIPx3tquW7U0qfTjJxrHUNJ7HqrLJbIqutA+KOfYhUWWtGWJfLJ0NlXJPIM+qfDhx3liqV/W38b6XKkp+QVVpJRXF4xhWchEtfx7XlosKxrFlXvfGxaxvuRi30X6Q6mAesvPFtGRuZOaeumS9r+1hlcWvkj/Q+ssO7jPt97P1tg9tuT+G8ZbMOF5ssf3V9tvK0hlt3zO35RvONu+Xv+AD7b/t66LpjvcB2TQ7rPjRbW32nJ9/+bC3KS99hJ3X2HuIy+27xpXWpvng7gF+DzvoTIu2H+3caqtPOKv2dguczMW7cnxLFZVlP2LaoX/BdWHgyhraliYe+A8K8ywQ08n+ZFv7Y2HBrVR+9O9t68qJP1tUsnLkTCpKJ1Bh/WH4HA995Ja5pXAcg60f3VbbtzU/f3A1G94IV0NtsTKN9jiBEMSsKHvd3n/323e3GWSc9RfRDHtvXoUn3FtvMbjV9MxHiEeEgNXTVte7cVxj9Z4FkfUpGyZZjGW67dsPUjn8Fe7unn88F/VMJ9VKAhKQQDuB6xsGMm9lKcnGz7cFqpLpCta1zqE1kbJAVYooShKut4b/sFdeZvNOtWG4cfBgGyrlrsBu9kF5MkXrRuduE7qg5uFgIxzkhx82Qp40fEPbzXbfGc46bj0zx7RQfvDaDueLLHA1q2xjF9RSReSiwOS913V4n2m/n4Xg5zv74jvDsE+FeweFL+7b4xJe175cTXf8/dzTzDpzedr27Dc9YZmLxmyyA7iV9mPDXfTPm4HLq8LHlt1U+14yD9wP7XPsSRx/suEmsvHwrLGyl9AWPHNX2/g0IldJAVNpeeMa2k48GBMOkD3ZeoTPqWy+j0PZYR3Zqn93lBvq/56f4cPWEz6LO/r+Df13KK876q51dI1A2I+nlaygqrieFj+TPKrA+ouQvU/aSu6wQNHj4F8Ct57ufWyw1f3R+qr/P7vKX4dz1TgqwfoTn6gib+B0KkcupKL4SSoPfdXme7r5EXXz+rQ6CUhAAu8vEC4BrG3YnWTTkaQav2YBqynUNtWx1i2gtXW+daI19qVsphUy3cYvs+FXcO4YvC/G8SGbLrCs1HsEnG3vQ4GT2i4NtRElCUhg+wS0lAQk0M0C4eC0YvgLVJX9nHXF15O/fg5x5lv2I1s5GSZCNMG+r9j3FxcCWzeBv8cOVh/Bu2espo2WX2Dzfzr8C/AmuDB8zZZ7BQiXHC3GE+6Tew/O3WjzUvbcFCv3YmImg5tBZtMcWkpuoKLk11xe+pqu6EAPCfRMgfBDz5TSlywg9D+Wb8C9NZdoUzUJX2Hv60nWd0y04TSrfJ293xfaeD24n9vwCZx/xvqC52w89BvtcwObzwL9Xdtyzj8J7jEcvwAeAHev5TutL7rFXm9BKm+Bs6jClr3E5k2y/qScKDODqHU2azPzLEB/e1t/MnXEi4Sgqb2IHfiIduC6tWoJSKCvC1Q3FFCzdH+Syz9PbXo8tU01rCq7Fe9us072GuP5Ns5VWmdqX/jcWdaxHg/uYGBvHINsfsLGlXq7gPeDrImnsNF93IbOcnclrUcCEpCABCTwwQTC2YeXH/I2U8uep7zkt0wt/TGLl91MovUaC2ilyLODw8ym6SSiK3AhsBWPI3bnE/lzieOv23ecs+0A9uu28nNs/rk4d4E9N2Hz8m4aPm82GVdHyxvXU1X8A6aOfJTK4uWEe1uFddsLlSQggRwSqDzqH5QfvIpwa6LKsvtZP/IWCyJdSyJRS140m/x+0/GUW19wKa1MxBECTuPw1ndsmZ1NR+4Sa/l4vJ9g/c2luMxk60em2HQ4m2oacfQti0PNotXNJc/XkT/gOspLb6Vq5E+oKH6SKaOarS5vZOMm7FavTiUFsDrFpxdLQALvL7DFs6nmnahpPIS6xrOoa6ommb6ZosT9RHn/bZ3qNdYhz7CO9BLrjM8Ed4KNj7Hh/sCulvtbVurTAr6YiLEkG/bu0wxqvAQkIAEJ5K5AuEdMuEws3OT4ioNeZtroFZQXL6VyxCKqyp5gasmv7CDyEaaWPWwHkg+1DStLf8nU0keoKPk14cA2LF9RupLK4a8wreRNwiXkuSuimktAAtsSCIEj/ouvAAAMp0lEQVTod/qLySP+xOQDn6eqZBkVpb9j2sinCffxDv1G+1xR9iTlFjQPz1eWLWJKybNt96EMr60a2bg50D3iRetz/sj00tcI/5ginFnlnN9WVXrSfAWwetLWeK+6aJ4Eck2g2kfMT+9BXfozJJsmk0x/l1T6QQtIPUHk7rbofx2xv9wCVV+1eZ8FLFDFcBvujmeQ5XwbV5JAOwGXj3dj7VekI6j2ee2e1KQEJCABCUhAAhKQgARyX0AteF8BBbDel0dPSkAC7ysQAgm1Lwwn2XAmycYaUk13U5hezEa/iJgfElFtrz/XsgWq/CgbHmB5d8vhxurhrCr1QYahtN0Cu9l+9RWKlof9aLtfpAUlIAEJSEACEug7AmqpBCTQewV08Nh7t61aJoGuFah7fQC1DZ+gpuFyahtvpTb9G4qaX8Zv+D0uug3nrrAVnmrD0eD2Ilz6F+5d5AiBKp0xYyBKnRZwOD4P/pNc/XJhp0tTARKQgAQk8F4CmicBCUhAAhLokQJRj6yVKiUBCXSjgHeEy/7qfcKGeVy7sh/z0vtSkz617ayq2qafkmpciX/zLXz0BFF0Nd59A88RFkgIZ1MVWWX7Wc636XBTdWfjShLIlkCB7WcXs3HNgdlagcqVQOcFVIIEJCABCUhAAhKQQFcLKIDV1aIqTwI9VcBboGrh4nwWvlpE8oXBzG3ape1eVbWNRzIgPZ5V6ZsoanqMdZtWkeEFIu7FuSq8PwncgXhnASr0kED3CLz/WkbjMqdT/dzO77+YnpWABCQgAQlIQAISkIAEeouAAli9ZUuqHRLYUqD6sTzCJX/zlu/K1cs/TM3y/UmmR7N64BdYvXo6bPg+CR5lo1/ZdlaVd9eCC/eqOgrYw3I4k8oGShLooQI+upCB/UsIZw/20CqqWhKQgAQkIAEJSEACEpBA1wkogLVtSz0jgdwQaLvkzwJVNU37kWwcacGqwyjc7QT83y4kE89lU3wHicwjRO4pfFyP99NwjIVwU3U3IDcaqVpKoJ2AYzcy/hL6NQ9p94wmJSABCUhAAhKQgAQk0FEBLZ8DAgpg5cBGUhUl0CYQzjS5duUgkg37UNc8inBD9dqGz7Fh01nEmXKieL4Fpu4gyjyAcz/Bc7UFqS6wfJyND7MyCiwrSaA3CZyG88cQ3hu9qVVqiwQkIAEJSCAnBVRpCUhAAtkVUAAru74qXQIfTGDig/0sQLU7dekykuljSDWcQlHz2azfNAkSM/HxNXh3Kz66m5jv4akA9wXLhwAfsqBVwoZKEujdAo7+RG4KBU279e6GqnUSkECfEVBDJSABCUhAAhLYpoACWNuk0RMS6CaBhYuLqF12AMmmI9sCVanGc9lrv8uIoxl4NxfHfIgWWFDqRjyzcf5cGx4Lbjgw0LKSBPqywOEkOLsvA6jtWwtoSgISkIAEJCABCUigdwoogNU7t6ta1RMF6n2CuiVDqV0xmmT63wmBqmS6grcLZ0NiDsQpfFRnVb8K3BwLXI3H+5OBQy3vabnAspIEsi2QY+X7yN4rE5jXUJpjFVd1JSABCUhAAhKQgAQkIIEOCEQdWFaLSkAC2yVgC4Ubq89eMoyapmOpazyLVLqcF5vq8AXz8a3z7IC7Bu9m27Aa3GQ8Z+DcUTg+YtNDwIJd6CEBCWynwN60RpUsXJy/nctrMQlIQAISkIAEJCABCUggxwR6ZgArxxBV3T4ukGreidqG0aSavkgyfSm1jXWsb72F/PwbiPw84miWCVVacGoC3n/Vxj9t+SCb/rANiywrSUACnRVwnMLqfid0thi9XgISkIAEJCABCUigmwW0Oglsp4ACWNsJpcUkQH19glTzntQsO5ZUw4WkGudasOpOyPzYglTfA5+0oFQV3o2zQNWZNn68qX3U5u9vw10s6+wQQ1CSQJYEBhMnrqBm6ZAsla9iJSABCUhAAj1WQBWTgAQk0BcEFMDqC1tZbey4QPVj/UmtKNl8VlVTFan0Tfyh7GELVj1IlLgJolkWqBpv+XRwn7ZglQWqCDdV3x3abqyu95ZBKEmgGwWcretQorxzbKgkAQlIoKMCWl4CEpCABCQggR4uoIPsHr6BVL1uEKhetTNzm44g1TiOZHq+5Z9ROPRZ2PRzW/sCC05V2fAscMdZPhg40PLuNn+QDXVWlSEoSaBHCDh2snqcS206BJNtVKl7BbQ2CUhAAhKQgAQkIAEJZE9AAazs2arkniYQ/gvgvPS+pJpPIZW+0vJddqD7HEXrVhL5h8FdhXMX4/gckSux6b3BD7U8GOiP143VzUEpmwIqu7MC4SysA+y9OslyGO9seXq9BCQgAQlIQAISkIAEJNBDBBTA6iEbQtXoGoF3Swn/BbBu2ShqG88jmb7OglW/4g/Nr5LhRVx8ny33bctn4BkN7GpBq3A2VZEFq/rZdMLm6+DXIJQkkIMCA8Adz7zlx6GHBCQgAQlIQAISkIAEJNBrBNoHsHpNw9SQXipQ7SMWLs6nelV/6pYMoPqpQYSzqmrTJ1KXvpLa9F3UNi2hZdPbxIkleHezBafGm8Yn8eFsKiK8zbEZShKQQK8V2I84voDqhoG9toVqmAQkIAEJSEACEui8gEqQQE4JKICVU5urL1XWOzv4LOB6OwCd27QLc9J7UNc8jMLGI3lrwHkUtdSRyb+XokFLyfC8BaUeIObbNjzDAlWjLETVvy9pqa0SkMBWAgU2dTg7Jb5ECHrbhJIEJCABCUggOwIqVQISkIAEuktAAazuktZ6ti0Q7k0VzpSYs2w3apr2a/vvf/NWjGFA3ljWJiaT4DvkcT9x/AxR9DjO3wBuggWpjgf2tZxnWUkCEpDAlgL7kPGnM6Bh2JYzNS4BCfRAAVVJAhKQgAQkIAEJbIeAAljbgaRFukrAO8K9qeYt35WapftT1zyK2oZP8NLykyiKzicvMdOCUwvxrfeRiX+Nj+vxfhb4r1gNxljeBV3+ZwxKEpDAdgjY55s/jDjxJa5+uXA7ls/pRVR5CUhAAhKQgAQkIAEJ9HYB+4Lf25uo9u0QAe8dqeadSDbsQ3L5wdQ2fZK65aewrvUcC05NJsqbSxxbsCqqt+E9Vsf5lse1nVXl+IgFrXTAaSBK3SagFfVKATfU+pSTyKwJ/6yhV7ZQjZKABCQgAQlIQAISkEBfEVAAq69s6Wy2s7qhgLolQ5mzpIxk+hjq0qdS1/RNC0JNhqgaMvPwfgE+vo22y//8VKvOGZYPt7ynZV0CaAhKEpBAVgQOIfZjCffSy0rxKlQCEpCABCQgAQlIQAJ9TWDHtFcBrB3jnptr9d6x8NUiZi8ZZgGqI0ilv0Cq6UIGUEWcN4tE3lwcdcT8J57rwM+06fMsfwYosXk7W3Y2riQBCUiguwQG2opOJI8jqK9P2LiSBCQgAQlIQAIS2PECqoEEJNBhAQWwOkzWR14QglXhjIW2+1SlT6Su+ZsWtJrO6tW1FOTVEvsU3tdYkGouProS3DicOxn4mOV9LPezrCQBCUhgxws4iq2/Gssfy/ba8ZVRDSQgAQlIoKsEVI4EJCABCfQtAQWw+tb2fu/Wtt1YPb0vcxuPtiDVV0mlK0k1fYdEfIMd9M3HU0OcmWnDSgtYXQLuNOBoC1gV23AXy7oE0BCUJCCBHirgybeanUirP7rtH0nYhJIEJNAmoD8SkIAEJCABCUggZwQUwMqZTdUFFQ1nVYUbq89ZUkaq+RSS6UtJpeezfuOdxNxGwl1DHM8GynFcSAhUef8pYBS4cObCQAti6RJA9JCABHJQYA9wZ7LO70+XPlSYBCQgAQlIQAISkIAEJNAdAgpgdYfyjlhHCFbVNuxOsuEoahrPs2DVbGqb/gviB8nLvxMy8y1INRX8BXh3Kp5jgUPAhYO7cFZVOGMBPSSQdQGtQALdI+Bw3vq5+LMWwN+pe1aptUhAAhKQgAQkIAEJSEACXSWgAFZXSe7Acqhe1Z/a9HCSTSfbgVk5ycabqW16HB/9ChfdSRTVWPUmWf4izn3ChqPYHKjazYYDgMiykgQkIIFeLuCsv4vPx7UeYMF718sbq+ZJQAISkIAEJCABCfRCgb7cJAUucmnrh7OqqlftTF3TEW03VU81XkWq8SEKW5bh/RM4/32Iv2VBqq9Zs460PMLyPuCH4hhk4wW2nA7aDEJJAhLoswKl4M6gZtnO6CEBCUhAAhKQQF8UUJslIIEcFVAAq6duuBCsSq3ci2TTCSSbK0im7yDVtITCdS8T+8eI4wXgLoXoeJw70MaHAkMsD7Qc/gOgtq1BKElAAhJoJ5DAM468xEeo9uon2+FoUgISkMD2CWgpCUhAAhKQQPcL/B8AAAD///mrIjMAAAAGSURBVAMAvdoO5g6OJwwAAAAASUVORK5CYII=;" parent="1" vertex="1">
          <mxGeometry x="401.96" y="290" width="109.37" height="31.54" as="geometry" />
        </mxCell>
        <mxCell id="askfaeidy0MYPpgIz7Vt-2" value="Azure&#xa;Storage" style="shape=image;verticalLabelPosition=middle;labelBackgroundColor=default;verticalAlign=middle;aspect=fixed;imageAspect=0;editableCssRules=.*;image=data:image/svg+xml,PHN2ZyB4bWxucz0iaHR0cDovL3d3dy53My5vcmcvMjAwMC9zdmciIHZpZXdCb3g9IjAuNSAyLjE2OTk5OTgzNzg3NTM2NiAxNyAxMy42Njk5OTkxMjI2MTk2MjkiIHdpZHRoPSIxNyIgaGVpZ2h0PSIxMy42Njk5OTkxMjI2MTk2MjkiPjxkZWZzPjxsaW5lYXJHcmFkaWVudCBncmFkaWVudFVuaXRzPSJ1c2VyU3BhY2VPblVzZSIgeTI9IjUuNzkiIHgyPSI5IiB5MT0iMTUuODMiIHgxPSI5IiBpZD0iYSI+PHN0b3Agc3RvcC1jb2xvcj0iI2IzYjNiMyIgb2Zmc2V0PSIwIi8+PHN0b3Agc3RvcC1jb2xvcj0iI2MxYzFjMSIgb2Zmc2V0PSIuMjYiLz48c3RvcCBzdG9wLWNvbG9yPSIjZTZlNmU2IiBvZmZzZXQ9IjEiLz48L2xpbmVhckdyYWRpZW50PjwvZGVmcz48cGF0aCBmaWxsPSJ1cmwoI2EpIiBkPSJNLjUgNS43OWgxN3Y5LjQ4YS41Ny41NyAwIDAxLS41Ny41N0gxLjA3YS41Ny41NyAwIDAxLS41Ny0uNTdWNS43OXoiLz48cGF0aCBmaWxsPSIjMzdjMmIxIiBkPSJNMS4wNyAyLjE3aDE1Ljg2YS41Ny41NyAwIDAxLjU3LjU3djMuMDVILjVWMi43M2EuNTcuNTcgMCAwMS41Ny0uNTZ6Ii8+PHBhdGggZmlsbD0iI2ZmZiIgZD0iTTIuODEgNi44OWgxMi4zN2EuMjcuMjcgMCAwMS4yNi4yN3YxLjRhLjI3LjI3IDAgMDEtLjI2LjI3SDIuODFhLjI3LjI3IDAgMDEtLjI2LS4yN3YtMS40YS4yNy4yNyAwIDAxLjI2LS4yN3oiLz48cGF0aCBmaWxsPSIjMzdjMmIxIiBkPSJNMi44MiA5LjY4aDEyLjM3YS4yNy4yNyAwIDAxLjI2LjI3djEuNDFhLjI3LjI3IDAgMDEtLjI2LjI3SDIuODJhLjI3LjI3IDAgMDEtLjI2LS4yN1YxMGEuMjcuMjcgMCAwMS4yNi0uMzJ6Ii8+PHBhdGggZmlsbD0iIzI1ODI3NyIgZD0iTTIuODIgMTIuNWgxMi4zN2EuMjcuMjcgMCAwMS4yNi4yN3YxLjQxYS4yNy4yNyAwIDAxLS4yNi4yN0gyLjgyYS4yNy4yNyAwIDAxLS4yNi0uMjd2LTEuNDFhLjI3LjI3IDAgMDEuMjYtLjI3eiIvPjwvc3ZnPg==;labelPosition=right;align=left;spacingLeft=6;fontStyle=1" parent="1" vertex="1">
          <mxGeometry x="405" y="339" width="41.29" height="34" as="geometry" />
        </mxCell>
        <mxCell id="askfaeidy0MYPpgIz7Vt-4" value="Blob" style="shape=image;verticalLabelPosition=bottom;labelBackgroundColor=default;verticalAlign=top;aspect=fixed;imageAspect=0;image=data:image/png,iVBORw0KGgoAAAANSUhEUgAAAOEAAADhCAMAAAAJbSJIAAAAmVBMVEUAeNf///8Ac9bg7fn2+/53reYAddYHgtoAetgAcdWx0fEAbtXJ4vYUid3c5/elw+xhmuDm8/xEj91Gl+Ckz/EAatTZ6/kAftmbx+7z+f3G3vXu9fxloeJ9tOhmqeVMmeCCtehdn+KPwOy+2POpyu4vkN4di92+3fWy1fKVxe3m7/ra7fqMt+lNkd7L3/WNuemGvOtknOBHneIqhcDmAAAMvUlEQVR4nO2d2WLiIBSGY4xEjF2se7VWa2ut3Wbm/R9uVCArgQOBoK3/1UxrNV/AcDgbXuOny3N9AdZ1ITx/XQjPXxfC89eF8Px1ITx/XQhLNerUq1HthHOvXae8ed2EE+TVrOd6CWf9uglRf1Yr4cSvGdDz/EmdhLOodsA9ot4g6hE+YBeED/URdsPanzN7obBbF2EwdzGEnofn05oI1074DrqviXDjYo4ehDb1EE5cPEiJIo0VQ51wd+dqCPeDeNergfDGHeAe8cY+4WjslHB8bZ1wUb+9lpa/sE04crMUJsKqG0VFwumjyzl6EFrZJey0HQN6Xrtjk3DmfAj3g/iotsdQI3xyt9gnUlz2lQgD13BUgTXCpesHKRFe2iLshq7ZqJQ2igqEQcvtYp/IbynMUwXCL9dgidpfVgidbQuLQlc2CDunsFIwRfBlH0zYq90HLJKCfxhM+HQqjxki/8k0YdOJA7FcKGwaJnw4rSFU8A8DCUdD10QFDYEbRRhhsDqtOXoQWsGWfRjheuyah6Px2hzhaa0UTKgPci2CCCensafIC4E2iiBCpw7EcqGxKUIn0UKIMGTFABCOpIs9wpFBwScMCgErhpwweBB/JIrQv6f1tTF9Kexh0IN8xZAT3gutGTRevcrvo5JU4ga+PKIoJ3wRfR7uK3ovIXq9AiOiF+m7SQm3om1h9E8n7izVK3wUI+kMkhHORNFCpOT0UhB8oqI72UZRRvgmeHe8tDKCBylMVNlGUULYE3ySirNEWeCJijaSQZQQCqKF8D2olsATFUsiimJCUbTQ/05e190+3xhRagVfQ70KkoiimFA4hLHjudcK2wibEEqvPRMEQ5SEhYWEHdH7ttirumPflGWejQ1ugYiecE0WEQqjhdGWvmpq0EeVi35OYN9FtBI9bESEW5G9NmQrhcmYYj6+C5yo/rZw7TBC8aaJvmhqMoGoEMEGTlSsR/hHRBinmHXha7NcxRg9bKJiwbJfTjgSXnq83BsNKnKyECaQv0NX5StGKWHQEk7S2ggbW4iHAZdHFEsJ78V5JSlCq7N0ryXkA9qlG8VSQokDET6GiIjzcx9HEfbTv+ISBpD0AdRXJRxI1gAwIbq7PSrnU0be5vbPoNsdPM3v2vGqVJIN9ARAjMpWjBJCacUIdJZGD8Q+zy0q/iYpZOptF20kJIRM1NKIYgnhs9S9BhpDHNfy9DKE/l3m2Rd0xmJCyERFJWVDfEJ5tBBCiNAi9rtnCNFj3h9PfSXlOWvyiYqu+Ls5PqHcBwyYpShMed2zhMV8GPIugqy8peyKyvzDXMIeYE5IxxBt0um8aUJmgcwGgwF7PrxhCWFTHv7C3EgNl3AuD/jKCaPMVy1FiOZkde4OI4yHtK5wF8oI5ZaFz61R5BFCooXyWUoJm/dBjrBNHglN8rimmYbBMYxejZAfUeQQTiEBX+gYbsPWNEvIbEia84/ojd8ebmu7POgJIUS8siEO4TPEEAQRBvebiFqMKUKCxKKuDJgY+uEmp6tlACf0MGfFKBIGoP2KfJb6y/uWj1iWXUJInzPxgkSn1vTz+H+UU2xSgwh5EcUi4RsoWghZD48MBcKom71ilvvzl3unfCVCL3qTE8qjhWDC9CWmCGfZK2Z+V37GjiIhJ6KYJwxAexWF3VOBcJi/4oism3yrRZHQQ8v8RjFPeA0sN9AfwzLCgRFCr50vG8oTCqOFKZ0sYWGjmCN8hboGzc9SQ4SFiGKWEF70c7JjuN+4ZJf9LCG8F8TpEnpeNpEoQ9iEp0GYn6X8dViDEG0yG8UMoUISaYX18D13xT4h5O9JdcYwm3qaJuwpRCAqEL5mr5gl4C1M2DT0I9IbxTShSnmo/izFgxzhgjwZbs0RZiKKKcJ7lSRS/THEb9krpi+YfZoj9Mb3PMLpSiWVW5+QfkvivQUtz+7xY1h6hP5qyiHsKGUg6s9SRKbQlH4nWLT8lU+gR+jhDodQLYlUfwzRJ7nmLbGAWSrFDX8GaRKisEgI8Zyn30KbMPamLA+PbkQvoMzJrkmYiigywnfFQCdglvrHbNHhghBeDVnuqP9B/jJYhlHUp+7ETslDQJcQXb3nCL8VY2TyMfSfSL7ojuCQ/xzsXhTu6N82r69psKE03UGX0EPfWcIv1Sp0gCeK3cS0jtVTHOf0quw7ok3otbsZQuVyA7C/NCtiF7bzEYan0s/RJ/T/pQlflXPVNceQEKKXbODirXwG6RMy8/BIOOXbEyIBvodvu2ZeO2p8oqi/3pFFedpc9wX2cAVC1J/GhM+qfwyMPRWV/BKH84+bm5vvRYhFt7cCIW1EeCCcQZ0z6cuvnIuBSLKf5KOrEKKXGSXUaSRgJ9ukqEpjeGxNsCfs6aSL2Mk2KaoSoYd6R0JxalDZ357DGHq4dSDUqy08D8KDDew1PrTqts5jlnr441eM4c//Hv6CZ+nPXw/t2jTUctEdaDM2jSW79PAqPD5anx9zjvWJPGKrCremZuxSO3uLvfDLukl2ELPd+iVX/orH3eN+oyucQVX2Fp/J3sLK/nCvuOiEvDKT2haycLQ40bMCIU7tD63s8T20yIXUm8l8xJvYKy1uZ6BPyILB9vw0frE3HottIbxI/Bi2CFkvKWu+NhRSx/rs4GMj/9xR82mcDkRbIsz72sz7S5lffdQ/OE1JNhb15ONMfp4dwqK/1LTPO0677hPvGvFzk9aZNOjbGFkkLPq8TcctWMNfWveFSWsAUjdNCLv9T3uEvLiF4dhTSJ6VActAfCF+7gUjfF+O8a09Qp8XezIaP2RtqePiKZa8driNeNKYbLCH7BHy44dGY8AsLzb+LSLPbpKTj4cHG84iIT8GbDSOz0IT8W8RuaujlPPXHmFZHN9kLgZNR0j9lrbmSvUMs0dYmothMJ+mSBjVR1ieT2MwJyohjNNoaiMU5USZy2tzOoaCvDZzuYkOCcW5icbySx3OUnF+qbEcYXdjWOg6ZCnPm0P4Xg+hNM/bUK4+TV5L/bbdqIVQnqtvqN4isWnY68nk6Vm2aQD1FtCNoswu/ZsnJIbUq2VCDKiZMVP3RD15yd4C/yncPguEsLonI7VrrCItYJ5YmuqcLvyzQAirXTNTfzhm+WrkdiFyoZleG+YJofWHRmpIfdbR8PGAyB4AmSNOzBNCa0j3c6l6HXCcnjd6wRgPiV8omFOfxjFaE1HCl0iQdaJC6K94MNZquRNn1/1gQP1utOs5WgyOIuZV8Hr496SkkY8KoUItt4l6/JS3i6lLXxnxWgNUzxFWqcc30lMB51tx9NjGJeKdu3XDv6lwQrWeCkb6Yow7GQNqdMdGyRKhUl8MI71NUHuxjb8Zo84mnoaYV3X/XZFQtbeJmf40fvtu/rQddQd//m681I0I/94WVPI2YELV/jSmegzxGgkdf1xQyRtACdV7DLnpE1UUlFCjT5STXl9FAQl1en056ddWVEIoMiW1+rXJeu7VNUvZnv1adDV6PffEfRPjroLioa4szA4evRY93DX7Jop7X0bsVXOrhHEUSbRrLZhPUEJx/1I28+9tHtCS9IHlF9Eepd+/VNiDFse+87m9o658P35Eir7u2j1oxX2EP+MPX47zK7oJ7Y0FbxVbfQJnfJU+wo2R4JuYbKiDdevxilM+UlH9Vsp0F5zb51fpBS0cxHny+cGsUABUXbPUIi6IwFfr5y3syY41jgHXVK/8mVe1J7ugbm7/5qqHD2tLZEFW7KtfVkROCDVOOtcSvykI8BoqnW/hj+VHhFRXIMoqrH6+hTiiiHKeChtqtkQXYOCMEvE5M6i94JWKGlTnTvT5Rs6ZkZwVhIb/1s3ZNLCg2e76zRMejmTmrCBpRBFF7cdFy4JWGyT22xo67wnkH0a+BUlNQVNndv2Cc9d+wdl5P//8w59/huUvOIf0558le4KnPIJWChXCn3+mc+P7tA51Nn8u94mtGDbOVm907DkN1RXBD5aEEzYUzge1LZVj+xQIv1xzJWK1hYYJA4HPsl755dHCSoS2Q4VwhcXzMcwQluVL1C38Lb9UTcLgRJ41St4vJUKj5+RpK1LztasRwitO7AkVa8QNEmYTRN1IcI6JCUL3g4ge1a5YlVB4umwtkpwcW51QqdDUgiQBXxOE105di2jMy9w0S8jO+HFEeCO/wMqEO5NHq6oCakQs1QkbE3fLvuJir0vYsJvnJVCcamabcO0I0PN0Qs46hMHczaKIeUU/VghtZ1yWCCltC6sRuvEP+1AfsAnCmQsnv6+2p6hG6CKiqJuCpUkorTgxLgUfsBFChf4SplRS9GONsDH32nXK454xapVw1KlX2lmC2oRnowvh+etCeP66EJ6/LoTnrwvh+etCeP76D4W2Hf/XkQc2AAAAAElFTkSuQmCC;spacing=0;" parent="1" vertex="1">
          <mxGeometry x="536.04" y="339" width="19.46" height="19.46" as="geometry" />
        </mxCell>
        <mxCell id="askfaeidy0MYPpgIz7Vt-5" value="Table" style="shape=image;verticalLabelPosition=bottom;labelBackgroundColor=default;verticalAlign=top;aspect=fixed;imageAspect=0;image=data:image/png,iVBORw0KGgoAAAANSUhEUgAAAOEAAADhCAMAAAAJbSJIAAAAdVBMVEX///8AeNcAdNYAcdUAdtelw+wAcNVppeN1rOX7/v9GlN8AfNjj7/qOuulgoOKFtei61fLu9vwwidsdgtoAbdTp8/vS5fe/2fM9j92uz/Dc6/nn8vsAa9ROmN+gx+3e7PnI4PUzi9xvquVXneGkye58seaTv+sPoszFAAAGxElEQVR4nO2d61biShCF7SSTkYtiIF5xxBkH3/8RjxBwDqSr73VpVn//XA3qNphKVe+uuroqFAqFQqFQKBQKhUKhUCgUCvx0Pyi4Y1S4eK3xaat7NoHzSlFQ/WRTeEujUPUvTAIfehqBqvrFpPCpIVKo+kcWgc8tlUDVLDkETlZkl1Cp9i+DwpuaTuDXVZyQC+xIBap6Qa7wmlahatbEAh/objMD5GH/F1Gw/0f9QCrwkfoSfn1Mn0gVUkaKIz1ljvFGfwl3YZ8uYnQzBoFfYf+NTOGWOFJ80xEJ3JDfRw/UWyKFH1wKVUsT9t+p0sIx1S2JQrq0cEz7TiCQMC0c00zxBU5mjJfw6yI+oyukTQtHNCtsgR3nZ3QHetj/yRYpvsEN++Rp4RjksD9lvc0MVBtEgXf8lxC5PsyRFo7p39EEsqSFY/Cy/Y5b2pEeK+xTFxBBmhVOtv/CHwqP1J8oCukLiDAtRthnTAvH1NcICn+LiBRH6vTbwn9lRIoj6cM+UwERpk29LbyQEimOpN4WXku6zQz0abeFBaSF5zSrlBFDQFo4pr1JqJCzgAiTcFuYtYAIk3Bb2FRArPo9h6+aSs/htXoa01tNn55kbrBPwyVsbrv5jtXw1fJWz/BiYHG5U9FM9YsfBolNorB/b/grfn9Shuy/gv75h+cFYHFfgoUi+L0pECcK+39MP+Og8GCQAl0vDgqBPey56R6QJuw/GJ9meBWmqQ9PjcGeWaFS8dn+o/l5jVthHR32J0tzsOdWqKp5pEJbAZFfYWTYt6aF7Apj3WBWXwm/wrj6sPXbC1AYZwK3HzcQoDAm7DsUEAUojAn7DmmhBIVqFprtu6SFIhSGmsAn9m8tRKHqw7J9J1+JDIVhbrB7p9qMDIWqDQn7bgVEIQpDwr45LZSmMMQN5lhAlKKwmfkKvHMs40tRqFrPbWHng2liFPq6wZx9JegK166/iZ8bzN1Xcqqwul5vdKwHhXP94nZ3167ftKvzd+c9Ia9tYXdfyalC4pr32a/y4S5w475beKaQFQ83mIevRJJC97DvczBNkkL3sO/jKzlX2OhxWLSsuuDqBvPylZwpnC31DC8GFocb7cr4Vjfc6sNOaSGgsEKI+F4mkNol7Pv5SgQ90+x/AQc3mGe/EmEKVWsP+579SqQptId9x7RQrEL72S9fB6I4hbZjQ8++7i5xCi1h3//RRJ5Cc9g3+UpyUWgM+0ZfSTYKlYLrw0ZfST4Kqz+QwJDOVhIVqh6qD4eYSEUqBPf2L/8aXsr/YQ3+H17MvdTQZ/Ei4qGx+n35zzSX8FxqO5yYf27x2yww//zQbgLLPce37+hnXqdxMWPG1NqqxaTTMJkMCif61Zv93tOdfvHFr5ro4qyJqZeqGYCyr5rf6opT0Tum5s2Ma5vTmH0LVqyR4ki+e0/OTtNM9w89zgZH7AFr96r/7a6Z9rGNb3Wh92jrErqPX221t/zuEC20a91ksY8Wz/pV94csrzP6oV4M3ojvZaiR46dxVujphc7PE+Xd7yQ7X5t/h9rcvIn+BtPM/KUhZ4Oy8ggHne/KyufdBA1qycirH3jOMqPzFqFnZbM5MxPe1DSTc08RJxAzObsW02Uwi/OHUQ2iszhD2kad5s7gHHBkx9YMznIHH688IP48fnRnDOk9FRIMvRDeFyPFvDLRvU2qFF3oRfenSTNAyKPHUFgXpc/gLkoGX4kPLn2ijpWr1VTP8GJgcd9Fq1nqF59MP93kK/HB5EFJd6IEWDTdyn1PVcIY+rVx7lv4n4wFMSSKnApTzrqAE0VGhUkbl8O9L78VVtD/USSwwqAuAyBgafGo8AO4T0azsvxtUwH2oEUfSwj+bQO7fYBAHhR0hVCZIfnYTihRZFMYmxaOATwoXAoxxufqPShMCp19JT7oS4tMdxqcMSV6D8pye43JVnsOGGnUDDDfAmiUkAr9z0QaJy9mRgnK7IcdYubM4I3tEjIrCHP0mgT3Gu74PBEzu6CaVRoEzF1DHmMpYEhC2rRwDPugC/SHKP4ZluhznZnnkMb377bCO0u2mRHMV2cd50EwLPeKdSQL3uTDExgHsCFOrzyBbba6T8+5KDZsCjGnyJ5g9aDggDwJ+P8wjZlLX0CEYUkU0Sdyn8Cx1YQ+Vf0En+NtiUg+8NAC+dhV1FnVOsgTRey0cAxxaRGtgAjTESskjBRHbig/pwRp4RhKcwLWIG4LhIkiTVo4hixRJEoLx4R0zgoC7myFjWcflFCijhvE4dkHJVhh7PC4CBavNT6vqX0lPnQ/KGAI9oVCoVAoFAqFQqFQKBQKhUJhxH//y8tOF4HdYQAAAABJRU5ErkJggg==;spacing=-1;" parent="1" vertex="1">
          <mxGeometry x="570.01" y="338" width="20.73" height="20.73" as="geometry" />
        </mxCell>
        <mxCell id="askfaeidy0MYPpgIz7Vt-6" value="Queue" style="shape=image;verticalLabelPosition=bottom;labelBackgroundColor=default;verticalAlign=top;aspect=fixed;imageAspect=0;image=data:image/png,iVBORw0KGgoAAAANSUhEUgAAAOEAAADhCAMAAAAJbSJIAAAAllBMVEUAeNf///8Aetix0fEAddYAdNYAcNX2+/5Gl+Dq8/x3reakz/FfqOXm8/xEj90Uid2TwuwAbtVpp+Pb5vfH4PZQlN4ihNq62/Qgjd3N5Pfx+P0AatTb6/kAbtTt9fyszvAAftmOuuo6lN+nyO5WneG51fJkouObxe02iNuJuOl+sufX6vk+jd1VouO91/MEgdl8ruZjneEjPLwtAAANOUlEQVR4nO2daV/iPBeHAyQtOAOCD6KsFgSRRZ37+3+5p9CszdKkQJP64/9uxpmYq9nOSU5OQOO3C/iuwM11J6y/7oT1152w/roT1l93wvrrTqhV/NaqVMPKCf+gZpUCvVnFhLMRBJUK7Ssm3KFqAQFIDpUSzpKqAQH6qpRwVXkTAjAtN9mUIxwOqgcEsD2pjDBee2hCAJqtygi3Fc+jWPDYrYiwc/RDCKJ+RYTLyA9gOp/GlRB2fEwzmaKnSggfvEwzmX7GFRAOE3+AAD0491NnwomflYIo+r45YcsrIICPNyf88bRSEM1dl31Xwp23lQILfjou+46Es0/PTZgiLm9KuPQ7Cs+Eo84NCcfeWzBV5OYouhG2/TdhqrmTt+9EOJz7hjsLfdyKcNILoZOe9HYjwq1vMCLk4u07EHZeQ2lCgP7chPDB92LPKbI3wO0JuwEBgmh3A8KnIFYKLPhpvWJYE26avqkE2TuKtoSe3UJZTdv9YVvCTWCAAK2uTBgaIAADS0fRkrAf0kSaCfYWVyQ8+HcLZcH36xHGIS32VHBkdSxsRTgMa6UgiqyOha0IfZwW2iiyGYk2hC1/2/hmofV1CBfBuIWSEov9YQvC92ABU2+/2FEsJqw8rsRF82Jvv5gwyJWCCP5cThiUWygr2l5MGJpPkRMcFTmKRYSbxDdDgdCuwFEsIAzOLZSVFNhuBYTbMPaATSpyFM2EcZgGqaiB2ds3E/qLK3EQWhtHopFw+OO79lZCxhXDRBj7jCtxEOyZThRNhGPfVbeVMRrMRPgYsEEqamBwFA2EwbqFsqKHMoSL59o0oTEaTE8YQFCCvdCHdsXQEgbtFspCG2fCoN1CWfpoMB3heOq7zo6a65Z9DaGnWPULpA0C1xAGdlpoI6hpRDVhh98DhuFKINRcG1ITbtk0g6LRqh2oVgJi9NeBkH2YQXvY7YSqRQvwjJGyEZWE1KdAK/fI8Up14G1n1FYt+yrCMVns4U/Za42V6ZtftpXXhhSEzC2MSl00qlbLAd+Iik1+BSH9LCVC/6tXzMf5zBWOooKQdu1Ea+uFpINgQMuNKBO2yAYitRJe/gQp8v37XD9VRINJhF0alAD/O//FYj2IwhQxYngL80faWpQIl7TN0ZPYpqGJRirwjp48d+QJOz95wgBDabDo3ec+b2PmV/A8IdfiwROC6UtWad4TkhzFHOGYX12CJ4S9rlztwcZIyA/a8AnZ/Zk1qyR8XhgI3/n/XgNCAPDU2eEnm76ecCG4I0pCiMpLrNsFJXF1JEdr3D0C+DnTEm6FSigIIXr9W1prMGAfEEbt0gV9JaxK5LIef79cjAbjCSfiJreCUF5PnfRCqwFt41/V6ssNtuGW7SnfiDzhXhxxMmF+EDurRbZ/3C+7CuIuCdLJZiWtc5k4wnHutFBFeKGzMRzhkgb/u6icLgtEg+Qcf8jNIXw0GCOMP3JTQT0I2WTDpcxBbdbZGOEmv4tfE0J6js+7UYhFgzFC6bQwYEIhXBKSc/w9Z7sl9N9Swr7kQugJx6vRo4u25MNIhMOVSzkjskshBoSSveCYG2bMUSSEMzlfiaENx5+R9a4tgm+05eU2HPYcSvogq0BXJCTXu7nQEXZtiBD25XMKUy+drW1tOTTi5jVFL12sLP1POGXxXSIhXeK73EhDS5FwrDinMI/DPrQ6X4ye+CVUOQ77TZuS4A+38ZcjBFPciG/8fxgLhKqjpoKZZjsqPp6CQNw3Uc804s61WpGwN50nJEv8pM01YpsnHKt6StFcOhwV9VTUzIXwaubSYeHHmq8EaypPCBK8Ymw4w3M+ZISxMiiheLVYm6tFHdTTrzARNhZPxo8Fm8whOs+mUnA9WuNZlrPdYG9CCd+Up4V6wg6uebwz1uuBhSp1dx0V4Yx8gnhv6Kmwydz2w17ZhgDhUTrk//KdEIpuoQXhmAyKuDXVVQxOt6zBu5+PXRXhyzP1ArZaRDRiHs336FFNSAK+edsTnrv2iVCTr8RAOEJ9XP2D5jIGPLJqxVuANIRTdpgy+1QPRm42jndT9KompOf4fAqk87KfEnY1w9xECME/jDh7Us1S8y/mosX/AIQawjmMtmQjfpY3/c+/EuxpV5h9QAB1hHTQ8+cYqHsm1MWVmAmjJzzK4v1A6jIDbl+2+xGd9vg0hOmPngjiZC8FgEDATufHp0bWEtLLejOukFM0GNDHqpsJAfohxkorN9mjEbeh12qefmggBBGgZ7d/ktw6x7Zc4j46/cxASLbA+ZjR1FEE+jjgAsL0+5IxNH7ky0BHtjhPttG5LibCdJagy+bwyH8sZog2Jrjz6Qmpsc1v8kfLC9rwNIsv8e/nzdSIVasx+SCnySbCtCAaW9h5ZSVN2RA8kF+QEXaU8xvE/5yLyEs2p3G4LzUOz2KmxhJlf8UPnMaYbvyZCU9GGf0sO2ymwoQlv3gHtKAzofo6HcLfibXwySQvPZeSmpEeuT0f6aBPZqfFWzaqigjTrk3Hbuts0yO23Cx4r0jfS9ORiCtDg2XwXNrYqf0XG8K0VFKzk3EZ9biAjy/OZygkTHsqbbLvJALzV2oQdde8Q28gBAgvYTG2Tud4PSxh03BjmbltcbvJ7eKJs08x4WlpJzZc94PzSYYR38dMvZT8lkYjyf5IbRpnu3QsHJ1DUrMFt0jkfCsbQhA9kx4woSXFOe/RTLjM/tMha8PMsynlW4iEqrDAXc4/tiJMR/FLvqC8+2Ich2Q3I1sRcW1L+Yc5QskPPLTz07MdIYBz8Saa7IKaCAd4JOP1b57NO6V8/DxhOk3wvvzwRyrNkjCt1hPXH/pykkYDITn9nWT2LbnoXWqfRiJk01iqbSL/emvC1IImgzHeI0VBBpsGD16chqUp7tO47bUpCEGEbbXFSnVNw54wnZxb598yfFVZInpC9IS/cUZCz0lL7ZeqCAFKvifdWauntJAcCFMtu/H4LVEaInpCslWTmQfwOMsRuu15K28qwOS5d9TsDLoRNo/PnxqXX0tIkijjNCwswo2dW0i1diUEAGr3UN0ITQVpCGETD95/2UoxasiEDmdPOkK9HAkNBWkIEfZ/8ZQJNwpCh/PD8AjpgWGWnTPiLgmVOgMOj5BMM/i+HX/Ry/EcP1DCSPQMhWAMp1iMYAnneDMLP9ow4ONoneJpgiHM+RbkqvM4W6vEm89iTJTgYwRMKLYhDWDPrGskxsQ4xbVxe96O13d0e94Dx3IgUu1EYc+GfC/R0cnFJv5njE0khId1z1HHtfJkZvjpXNCX1EvpBlRmzeSzDDvFlxLCuNN1VdZx8oSxczlZQQJhE3fKHZ5mckHCTjHCQUabDMhufnL+o5Tt2ynOOxhCbqahTtMrNkjzOyrFsfoCYakXl5hooo2rEUJivmBrRs66b7hvoSAs9RwRJ/qMEirz6g8TS0lCzJdZxqx4OcFwZ0YRX5qPPHDUGxcpcUkc54Q6CcRLinEggCKpqeHekypGuPd+wSONS36Kb19Q0AMtKMHbj9j1y+yBQkJyd00V5w3BBY80invEF5REC6ImNp4fVYG5hvuH4cfqw2fxZFt5ndBwhxQTbsMljIhXmJz/SM+eCgnJrnh2d83LS4BWGiyz6i7wPiFS5nBR3+XOZt5sfZ88RBfcsbihItInv8i4VLIY7uOTRu9sH4LUHu+IkkxBmhSKmpwKvXMABUm2HIeprHLEWUWafFiavBjfp005PvIuWM16uI82NVc4dLlNzlZD6Td4K9QHWb11WYbM+WmQXVJwj6JBDFNdls+CHEPo7yHkO/ldGrGmz/ZVlCcKJQ/vFb8xbq8tDXo25GcvzvWF0AUW5G3Fzm9oZL4LYZ3ytZku1f2OnHumty5+Rd5E48OWvyL3JTDlCfoN+UvNWWZ+Qw5a8yPBvyCPcMFr3b8gF3Ritrrqn897XmA71z4nO73xVJIw/Lz6hcms6v42QvFTM7V/36JwG6Lmb5SYkkBbE858vzVukE3aw3q/FWTz9Fqt33uyej6v1m92WT2BWOd318h99CsQBvp2XtMqfazl+4chNmL0z2qj04owyDcscym9LiQM0VEscAtdCQN8SxZZ1tyWMLz3gG0T5NoShuYoFrqFzoQs1VoYalrnOLYmDOttdXVQwoWEs5Cm02K3sARhSI6ihVtYhrDzGsqyD48OcX8OhHyOUM9yOXx3IQzFUcTpkW5AWOJ6xE00d8qi6kSIb4Z5lp1bWJJwHEI3lXKSX5MwhKfKDEEJ1yCceXcUbd3CsoS6vGDVKVo61tiVsOF5f9jiIe5LCd/8jkTk/PSNM6FfRxF9ON/acSYUktpVrhIp090JfTqKDm7hJYRdf08jDkwP/16P0N+K4brYlybsyHlQKhE8lmjCUoTskl3FhMb3t69K6OcNz4I31K9K6Oem0KDc4xrlCH2cKDq6hZcS4ovTFYq+Y1ERIf+YREWE8ptxtyWs+lFrZ7fwYsLGFlV68QD9Ka7SlQnjau+ZvJW+ulOasDa6E9Zfd8L6605Yf90J6687Yf11J6y//g+JPlfhrin8iAAAAABJRU5ErkJggg==;spacing=0;" parent="1" vertex="1">
          <mxGeometry x="610" y="339" width="18" height="18" as="geometry" />
        </mxCell>
        <mxCell id="askfaeidy0MYPpgIz7Vt-10" value="" style="endArrow=none;html=1;rounded=0;exitX=1;exitY=0.5;exitDx=0;exitDy=0;strokeColor=#3C508F;strokeWidth=2;" parent="1" source="IH_eHasgbrQrR9ba0ONM-49" target="IH_eHasgbrQrR9ba0ONM-14" edge="1">
          <mxGeometry width="50" height="50" relative="1" as="geometry">
            <mxPoint x="190" y="390" as="sourcePoint" />
            <mxPoint x="240" y="340" as="targetPoint" />
            <Array as="points">
              <mxPoint x="166" y="345" />
            </Array>
          </mxGeometry>
        </mxCell>
        <mxCell id="askfaeidy0MYPpgIz7Vt-11" value="" style="endArrow=none;html=1;rounded=0;exitX=1;exitY=0.5;exitDx=0;exitDy=0;strokeColor=#3C508F;strokeWidth=2;" parent="1" source="IH_eHasgbrQrR9ba0ONM-49" target="IH_eHasgbrQrR9ba0ONM-28" edge="1">
          <mxGeometry width="50" height="50" relative="1" as="geometry">
            <mxPoint x="130" y="360" as="sourcePoint" />
            <mxPoint x="373" y="449" as="targetPoint" />
            <Array as="points">
              <mxPoint x="166" y="416" />
            </Array>
          </mxGeometry>
        </mxCell>
        <mxCell id="tXwXjZz_xk4zs_cxmN8Q-1" value="" style="rounded=0;whiteSpace=wrap;html=1;strokeColor=#B2B2B2;shadow=1;shadowOffsetY=0;shadowOffsetX=-3;shadowBlur=1;shadowOpacity=25;" parent="1" vertex="1">
          <mxGeometry x="390.65" y="575" width="260" height="50" as="geometry" />
        </mxCell>
        <mxCell id="tXwXjZz_xk4zs_cxmN8Q-2" value="Service Bus" style="image;aspect=fixed;html=1;points=[];align=left;fontSize=12;image=img/lib/azure2/integration/Service_Bus.svg;fontStyle=1;labelPosition=right;verticalLabelPosition=middle;verticalAlign=middle;spacingLeft=5;" parent="1" vertex="1">
          <mxGeometry x="402.65" y="580" width="45.33" height="40" as="geometry" />
        </mxCell>
        <mxCell id="tXwXjZz_xk4zs_cxmN8Q-3" value="" style="rounded=0;whiteSpace=wrap;html=1;strokeColor=#B2B2B2;shadow=1;shadowOffsetY=0;shadowOffsetX=-3;shadowBlur=1;shadowOpacity=25;" parent="1" vertex="1">
          <mxGeometry x="390.65" y="452" width="260" height="50" as="geometry" />
        </mxCell>
        <mxCell id="tXwXjZz_xk4zs_cxmN8Q-4" value="Event Hubs" style="image;aspect=fixed;html=1;points=[];align=left;fontSize=12;image=img/lib/azure2/iot/Event_Hubs.svg;fontStyle=1;labelPosition=right;verticalLabelPosition=middle;verticalAlign=middle;spacingLeft=5;" parent="1" vertex="1">
          <mxGeometry x="401.96" y="456" width="46.9" height="42" as="geometry" />
        </mxCell>
        <mxCell id="tXwXjZz_xk4zs_cxmN8Q-5" value="" style="rounded=0;whiteSpace=wrap;html=1;strokeColor=#B2B2B2;shadow=1;shadowOffsetY=0;shadowOffsetX=-3;shadowBlur=1;shadowOpacity=25;" parent="1" vertex="1">
          <mxGeometry x="390.65" y="637" width="260" height="50" as="geometry" />
        </mxCell>
        <mxCell id="tXwXjZz_xk4zs_cxmN8Q-6" value="SQL Server" style="image;aspect=fixed;html=1;points=[];align=left;fontSize=12;image=img/lib/azure2/databases/SQL_Server.svg;fontStyle=1;labelPosition=right;verticalLabelPosition=middle;verticalAlign=middle;spacingLeft=5;" parent="1" vertex="1">
          <mxGeometry x="407.86" y="641.5" width="41" height="41" as="geometry" />
        </mxCell>
        <mxCell id="tXwXjZz_xk4zs_cxmN8Q-7" value="" style="endArrow=none;html=1;rounded=0;strokeColor=#3C508F;strokeWidth=2;exitX=1;exitY=0.5;exitDx=0;exitDy=0;" parent="1" source="IH_eHasgbrQrR9ba0ONM-49" target="tXwXjZz_xk4zs_cxmN8Q-8" edge="1">
          <mxGeometry width="50" height="50" relative="1" as="geometry">
            <mxPoint x="150" y="304" as="sourcePoint" />
            <mxPoint x="335" y="483" as="targetPoint" />
            <Array as="points">
              <mxPoint x="166" y="477" />
            </Array>
          </mxGeometry>
        </mxCell>
        <mxCell id="tXwXjZz_xk4zs_cxmN8Q-8" value="" style="sketch=0;pointerEvents=1;shadow=0;dashed=1;html=1;strokeColor=none;fillColor=#3C508F;labelPosition=center;verticalLabelPosition=bottom;verticalAlign=top;outlineConnect=0;align=center;shape=mxgraph.office.concepts.connector;" parent="1" vertex="1">
          <mxGeometry x="341" y="471" width="16.5" height="12" as="geometry" />
        </mxCell>
        <mxCell id="tXwXjZz_xk4zs_cxmN8Q-9" value="" style="html=1;labelBackgroundColor=#ffffff;jettySize=auto;orthogonalLoop=1;fontSize=6;rounded=0;jumpStyle=gap;edgeStyle=orthogonalEdgeStyle;startArrow=none;endArrow=none;strokeWidth=2;endFill=0;strokeColor=#3C508F;jumpSize=6;" parent="1" source="tXwXjZz_xk4zs_cxmN8Q-8" target="tXwXjZz_xk4zs_cxmN8Q-3" edge="1">
          <mxGeometry width="48" height="48" relative="1" as="geometry">
            <mxPoint x="312.1599999999999" y="511" as="sourcePoint" />
            <mxPoint x="392" y="477" as="targetPoint" />
            <Array as="points" />
          </mxGeometry>
        </mxCell>
        <mxCell id="tXwXjZz_xk4zs_cxmN8Q-10" value="" style="sketch=0;pointerEvents=1;shadow=0;dashed=1;html=1;strokeColor=none;fillColor=#3C508F;labelPosition=center;verticalLabelPosition=bottom;verticalAlign=top;outlineConnect=0;align=center;shape=mxgraph.office.concepts.connector;" parent="1" vertex="1">
          <mxGeometry x="339.65" y="594" width="16.5" height="12" as="geometry" />
        </mxCell>
        <mxCell id="tXwXjZz_xk4zs_cxmN8Q-11" value="" style="html=1;labelBackgroundColor=#ffffff;jettySize=auto;orthogonalLoop=1;fontSize=6;rounded=0;jumpStyle=gap;edgeStyle=orthogonalEdgeStyle;startArrow=none;endArrow=none;strokeWidth=2;endFill=0;strokeColor=#3C508F;jumpSize=6;" parent="1" source="tXwXjZz_xk4zs_cxmN8Q-10" target="tXwXjZz_xk4zs_cxmN8Q-1" edge="1">
          <mxGeometry width="48" height="48" relative="1" as="geometry">
            <mxPoint x="310.8099999999999" y="634" as="sourcePoint" />
            <mxPoint x="390.65" y="600" as="targetPoint" />
            <Array as="points" />
          </mxGeometry>
        </mxCell>
        <mxCell id="tXwXjZz_xk4zs_cxmN8Q-12" value="" style="endArrow=none;html=1;rounded=0;strokeColor=#3C508F;strokeWidth=2;exitX=1;exitY=0.5;exitDx=0;exitDy=0;" parent="1" source="IH_eHasgbrQrR9ba0ONM-49" target="tXwXjZz_xk4zs_cxmN8Q-10" edge="1">
          <mxGeometry width="50" height="50" relative="1" as="geometry">
            <mxPoint x="140.34" y="304" as="sourcePoint" />
            <mxPoint x="315.34" y="544" as="targetPoint" />
            <Array as="points">
              <mxPoint x="166" y="600" />
            </Array>
          </mxGeometry>
        </mxCell>
        <mxCell id="tXwXjZz_xk4zs_cxmN8Q-13" value="" style="endArrow=classic;html=1;rounded=0;exitX=1;exitY=0.5;exitDx=0;exitDy=0;entryX=0.5;entryY=0;entryDx=0;entryDy=0;strokeColor=#8F8F8F;" parent="1" source="tXwXjZz_xk4zs_cxmN8Q-3" target="askfaeidy0MYPpgIz7Vt-4" edge="1">
          <mxGeometry width="50" height="50" relative="1" as="geometry">
            <mxPoint x="710" y="610" as="sourcePoint" />
            <mxPoint x="610" y="270" as="targetPoint" />
            <Array as="points">
              <mxPoint x="670" y="477" />
              <mxPoint x="670" y="320" />
              <mxPoint x="546" y="320" />
            </Array>
          </mxGeometry>
        </mxCell>
        <mxCell id="tXwXjZz_xk4zs_cxmN8Q-14" value="" style="endArrow=classic;html=1;rounded=0;strokeColor=#8F8F8F;exitX=1;exitY=0.5;exitDx=0;exitDy=0;entryX=1;entryY=0.5;entryDx=0;entryDy=0;" parent="1" source="tXwXjZz_xk4zs_cxmN8Q-1" target="tXwXjZz_xk4zs_cxmN8Q-5" edge="1">
          <mxGeometry width="50" height="50" relative="1" as="geometry">
            <mxPoint x="740" y="613" as="sourcePoint" />
            <mxPoint x="660" y="680" as="targetPoint" />
            <Array as="points">
              <mxPoint x="670" y="600" />
              <mxPoint x="670" y="662" />
            </Array>
          </mxGeometry>
        </mxCell>
        <mxCell id="tXwXjZz_xk4zs_cxmN8Q-15" value="" style="sketch=0;pointerEvents=1;shadow=0;dashed=1;html=1;strokeColor=none;fillColor=#B2B2B2;labelPosition=center;verticalLabelPosition=bottom;verticalAlign=top;outlineConnect=0;align=center;shape=mxgraph.office.concepts.connector;" parent="1" vertex="1">
          <mxGeometry x="339.3" y="656" width="16.5" height="12" as="geometry" />
        </mxCell>
        <mxCell id="tXwXjZz_xk4zs_cxmN8Q-16" value="" style="html=1;labelBackgroundColor=#ffffff;jettySize=auto;orthogonalLoop=1;fontSize=6;rounded=0;jumpStyle=gap;edgeStyle=orthogonalEdgeStyle;startArrow=none;endArrow=none;strokeWidth=2;endFill=0;strokeColor=#B2B2B2;jumpSize=6;entryX=0;entryY=0.5;entryDx=0;entryDy=0;dashed=1;" parent="1" source="tXwXjZz_xk4zs_cxmN8Q-15" target="tXwXjZz_xk4zs_cxmN8Q-5" edge="1">
          <mxGeometry width="48" height="48" relative="1" as="geometry">
            <mxPoint x="310.4599999999999" y="696" as="sourcePoint" />
            <mxPoint x="390.65000000000003" y="662" as="targetPoint" />
            <Array as="points" />
          </mxGeometry>
        </mxCell>
        <mxCell id="tXwXjZz_xk4zs_cxmN8Q-57" value="" style="rounded=0;whiteSpace=wrap;html=1;strokeColor=#B2B2B2;shadow=1;shadowOffsetY=0;shadowOffsetX=-3;shadowBlur=1;shadowOpacity=25;" parent="1" vertex="1">
          <mxGeometry x="390.65" y="513" width="260" height="50" as="geometry" />
        </mxCell>
        <mxCell id="tXwXjZz_xk4zs_cxmN8Q-58" value="App Configuration" style="image;aspect=fixed;html=1;points=[];align=left;fontSize=12;image=img/lib/azure2/integration/App_Configuration.svg;fontStyle=1;labelPosition=right;verticalLabelPosition=middle;verticalAlign=middle;spacingLeft=7;" parent="1" vertex="1">
          <mxGeometry x="404.96" y="515.5" width="42.35" height="45" as="geometry" />
        </mxCell>
        <mxCell id="tXwXjZz_xk4zs_cxmN8Q-61" value="" style="endArrow=none;html=1;rounded=0;strokeColor=#3C508F;strokeWidth=2;exitX=1;exitY=0.5;exitDx=0;exitDy=0;" parent="1" source="IH_eHasgbrQrR9ba0ONM-49" target="tXwXjZz_xk4zs_cxmN8Q-62" edge="1">
          <mxGeometry width="50" height="50" relative="1" as="geometry">
            <mxPoint x="100" y="300" as="sourcePoint" />
            <mxPoint x="310" y="540" as="targetPoint" />
            <Array as="points">
              <mxPoint x="166" y="538" />
            </Array>
          </mxGeometry>
        </mxCell>
        <mxCell id="tXwXjZz_xk4zs_cxmN8Q-62" value="" style="sketch=0;pointerEvents=1;shadow=0;dashed=1;html=1;strokeColor=none;fillColor=#3C508F;labelPosition=center;verticalLabelPosition=bottom;verticalAlign=top;outlineConnect=0;align=center;shape=mxgraph.office.concepts.connector;" parent="1" vertex="1">
          <mxGeometry x="339.3" y="532" width="16.5" height="12" as="geometry" />
        </mxCell>
        <mxCell id="tXwXjZz_xk4zs_cxmN8Q-63" value="" style="html=1;labelBackgroundColor=#ffffff;jettySize=auto;orthogonalLoop=1;fontSize=6;rounded=0;jumpStyle=gap;edgeStyle=orthogonalEdgeStyle;startArrow=none;endArrow=none;strokeWidth=2;endFill=0;strokeColor=#3C508F;jumpSize=6;entryX=0;entryY=0.5;entryDx=0;entryDy=0;" parent="1" source="tXwXjZz_xk4zs_cxmN8Q-62" target="tXwXjZz_xk4zs_cxmN8Q-57" edge="1">
          <mxGeometry width="48" height="48" relative="1" as="geometry">
            <mxPoint x="310.4599999999999" y="572" as="sourcePoint" />
            <mxPoint x="389.3" y="538" as="targetPoint" />
            <Array as="points" />
          </mxGeometry>
        </mxCell>
        <mxCell id="tXwXjZz_xk4zs_cxmN8Q-68" value="" style="shape=image;html=1;verticalAlign=top;verticalLabelPosition=bottom;labelBackgroundColor=#ffffff;imageAspect=0;aspect=fixed;image=https://icons.diagrams.net/icon-cache1/Unicons_Line_vol_3-2965/docker-1335.svg" parent="1" vertex="1">
          <mxGeometry x="80" y="640" width="98.34" height="98.34" as="geometry" />
        </mxCell>
        <mxCell id="XoHUwfCZDg78QH5NhLkb-1" value="CosmosDB" style="image;sketch=0;aspect=fixed;html=1;points=[];align=left;fontSize=12;image=img/lib/mscae/CosmosDB.svg;fontStyle=1;labelPosition=right;verticalLabelPosition=middle;verticalAlign=middle;spacingLeft=7;" vertex="1" parent="1">
          <mxGeometry x="405" y="395.5" width="41" height="41" as="geometry" />
        </mxCell>
      </root>
    </mxGraphModel>
  </diagram>
</mxfile>
